SplineFontDB: 3.2
FontName: Inconsolata-SemiCondensed
FullName: Inconsolata Semi Condensed
FamilyName: Inconsolata Semi Condensed
Weight: Book
Copyright: Copyright 2006 The Inconsolata Project Authors (https://github.com/cyrealtype/Inconsolata)
Version: 3.000; ttfautohint (v1.8.3)
ItalicAngle: 0
UnderlinePosition: -297
UnderlineWidth: 102
Ascent: 1802
Descent: 246
InvalidEm: 0
sfntRevision: 0x00030000
LayerCount: 2
Layer: 0 1 "Back" 1
Layer: 1 1 "Fore" 0
XUID: [1021 741 -1841480126 15345]
StyleMap: 0x0040
FSType: 0
OS2Version: 4
OS2_WeightWidthSlopeOnly: 0
OS2_UseTypoMetrics: 1
CreationTime: 1576097233
ModificationTime: 1732392374
PfmFamily: 81
TTFWeight: 400
TTFWidth: 4
LineGap: 0
VLineGap: 0
Panose: 0 0 0 0 0 0 0 0 0 0
OS2TypoAscent: 1759
OS2TypoAOffset: 0
OS2TypoDescent: -389
OS2TypoDOffset: 0
OS2TypoLinegap: 0
OS2WinAscent: 2056
OS2WinAOffset: 0
OS2WinDescent: 930
OS2WinDOffset: 0
HheadAscent: 1759
HheadAOffset: 0
HheadDescent: -389
HheadDOffset: 0
OS2SubXSize: 1331
OS2SubYSize: 1229
OS2SubXOff: 0
OS2SubYOff: 154
OS2SupXSize: 1331
OS2SupYSize: 1229
OS2SupXOff: 0
OS2SupYOff: 717
OS2StrikeYSize: 102
OS2StrikeYPos: 561
OS2CapHeight: 1276
OS2XHeight: 936
OS2Vendor: 'CYRE'
OS2CodePages: 60000193.cdd40000
OS2UnicodeRanges: a00000ff.0000f9eb.00000020.00000000
Lookup: 1 0 0 "'aalt' Access All Alternates in Latin lookup 0" { "'aalt' Access All Alternates in Latin lookup 0 subtable"  } ['aalt' ('DFLT' <'dflt' > 'latn' <'AZE ' 'CAT ' 'CRT ' 'KAZ ' 'MOL ' 'ROM ' 'TAT ' 'TRK ' 'dflt' > ) ]
Lookup: 3 0 0 "'aalt' Access All Alternates in Latin lookup 1" { "'aalt' Access All Alternates in Latin lookup 1 subtable"  } ['aalt' ('DFLT' <'dflt' > 'latn' <'AZE ' 'CAT ' 'CRT ' 'KAZ ' 'MOL ' 'ROM ' 'TAT ' 'TRK ' 'dflt' > ) ]

StartChar: A
Encoding: 65 65 1
Width: 907
VWidth: 2441
GlyphClass: 2
Flags: HW
AnchorPoint: "Anchor-3" 751 0 basechar 0
AnchorPoint: "Anchor-2" 452 0 basechar 0
AnchorPoint: "Anchor-0" 452 1521 basechar 0
LayerCount: 2
Fore
SplineSet
450 1140 m 1,0,-1
 305 576 l 1,1,-1
 594 576 l 1,2,-1
 450 1140 l 1,0,-1
743 0 m 1,3,-1
 629 445 l 1,4,-1
 271 445 l 1,5,-1
 157 0 l 1,6,-1
 23 0 l 1,7,-1
 440 1547 l 1,8,-1
 464 1547 l 1,9,-1
 881 0 l 1,10,-1
 743 0 l 1,3,-1
EndSplineSet
Substitution2: "Single Substitution lookup 29 subtable" ordfeminine
Substitution2: "'aalt' Access All Alternates in Latin lookup 0 subtable" ordfeminine
EndChar

StartChar: AE
Encoding: 198 198 26
Width: 867
VWidth: 2441
GlyphClass: 1
Flags: HW
LayerCount: 2
Fore
SplineSet
246 552 m 1,0,-1
 444 552 l 1,1,-1
 452 1372 l 1,2,-1
 432 1372 l 1,3,-1
 246 552 l 1,0,-1
3 0 m 1,4,-1
 352 1523 l 1,5,-1
 861 1523 l 1,6,-1
 861 1374 l 1,7,-1
 563 1374 l 1,8,-1
 563 869 l 1,9,-1
 813 869 l 1,10,-1
 813 718 l 1,11,-1
 563 718 l 1,12,-1
 563 149 l 1,13,-1
 857 149 l 1,14,-1
 857 0 l 1,15,-1
 444 0 l 1,16,-1
 444 415 l 1,17,-1
 221 415 l 1,18,-1
 124 0 l 1,19,-1
 3 0 l 1,4,-1
EndSplineSet
EndChar

StartChar: B
Encoding: 66 66 28
Width: 922
VWidth: 2441
GlyphClass: 2
Flags: HW
AnchorPoint: "Anchor-2" 456 0 basechar 0
AnchorPoint: "Anchor-0" 456 1521 basechar 0
LayerCount: 2
Fore
SplineSet
186 147 m 1,0,-1
 426 147 l 2,1,2
 561 147 561 147 644.5 212.5 c 128,-1,3
 728 278 728 278 728 437 c 0,4,5
 728 574 728 574 651.5 660.5 c 128,-1,6
 575 747 575 747 390 747 c 2,7,-1
 186 747 l 1,8,-1
 186 147 l 1,0,-1
186 892 m 1,9,-1
 384 892 l 2,10,11
 555 892 555 892 620 960 c 128,-1,12
 685 1028 685 1028 685 1132 c 0,13,14
 685 1232 685 1232 621 1305.5 c 128,-1,15
 557 1379 557 1379 405 1379 c 2,16,-1
 186 1379 l 1,17,-1
 186 892 l 1,9,-1
32 0 m 1,18,-1
 32 1521 l 1,19,-1
 405 1521 l 2,20,21
 625 1521 625 1521 732 1423.5 c 128,-1,22
 839 1326 839 1326 839 1153 c 0,23,24
 839 1034 839 1034 789 943 c 128,-1,25
 739 852 739 852 645 815 c 1,26,27
 754 773 754 773 822 667 c 128,-1,28
 890 561 890 561 890 427 c 0,29,30
 890 229 890 229 772 114.5 c 128,-1,31
 654 0 654 0 403 0 c 2,32,-1
 32 0 l 1,18,-1
EndSplineSet
EndChar

StartChar: C
Encoding: 67 67 29
Width: 922
VWidth: 2441
GlyphClass: 2
Flags: HW
AnchorPoint: "Anchor-2" 511 0 basechar 0
AnchorPoint: "Anchor-0" 491 1521 basechar 0
LayerCount: 2
Fore
SplineSet
522 -24 m 0,0,1
 386 -24 386 -24 276 55.5 c 128,-1,2
 166 135 166 135 100 306.5 c 128,-1,3
 34 478 34 478 32 752 c 0,4,5
 32 978 32 978 75.5 1129.5 c 128,-1,6
 119 1281 119 1281 189.5 1369.5 c 128,-1,7
 260 1458 260 1458 345.5 1495.5 c 128,-1,8
 431 1533 431 1533 515 1533 c 0,9,10
 649 1533 649 1533 746 1456 c 128,-1,11
 843 1379 843 1379 890 1248 c 1,12,-1
 770 1174 l 1,13,-1
 750 1162 l 1,14,-1
 743 1179 l 1,15,16
 747 1198 747 1198 743 1215.5 c 128,-1,17
 739 1233 739 1233 721 1270 c 1,18,19
 672 1345 672 1345 619.5 1370.5 c 128,-1,20
 567 1396 567 1396 511 1396 c 0,21,22
 357 1396 357 1396 267 1232.5 c 128,-1,23
 177 1069 177 1069 177 764 c 0,24,25
 177 566 177 566 222.5 422 c 128,-1,26
 268 278 268 278 345 200 c 128,-1,27
 422 122 422 122 518 122 c 0,28,29
 592 122 592 122 659 168.5 c 128,-1,30
 726 215 726 215 766 300 c 1,31,-1
 873 212 l 1,32,33
 813 95 813 95 728 35.5 c 128,-1,34
 643 -24 643 -24 522 -24 c 0,0,1
EndSplineSet
EndChar

StartChar: D
Encoding: 68 68 36
Width: 922
VWidth: 2441
GlyphClass: 2
Flags: HW
AnchorPoint: "Anchor-4" 447 762 basechar 0
AnchorPoint: "Anchor-2" 447 0 basechar 0
AnchorPoint: "Anchor-0" 384 1521 basechar 0
LayerCount: 2
Fore
SplineSet
182 132 m 1,0,-1
 309 132 l 2,1,2
 532 132 532 132 635 292 c 0,3,4
 736.038095238 448.952380952 736.038095238 448.952380952 736.038095238 731.961814059 c 0,5,6
 736.038095238 737.457142857 736.038095238 737.457142857 736 743 c 0,7,8
 736 1039 736 1039 643 1209 c 128,-1,9
 550 1379 550 1379 332 1379 c 2,10,-1
 182 1379 l 1,11,-1
 182 132 l 1,0,-1
32 -2 m 1,12,-1
 32 1521 l 1,13,-1
 340 1521 l 2,14,15
 508 1521 508 1521 603 1468.5 c 128,-1,16
 698 1416 698 1416 763 1316 c 0,17,18
 890 1118 890 1118 890 752 c 1,19,20
 883 517 883 517 824 349 c 128,-1,21
 765 181 765 181 642 89.5 c 128,-1,22
 519 -2 519 -2 313 -2 c 2,23,-1
 32 -2 l 1,12,-1
EndSplineSet
EndChar

StartChar: Eth
Encoding: 208 208 37
Width: 922
VWidth: 2441
GlyphClass: 1
Flags: HW
LayerCount: 2
Fore
SplineSet
261 139 m 1,0,-1
 372 139 l 2,1,2
 559 139 559 139 655 299 c 128,-1,3
 751 459 751 459 751 747 c 0,4,5
 751 1040 751 1040 664.5 1208.5 c 128,-1,6
 578 1377 578 1377 393 1377 c 2,7,-1
 261 1377 l 1,8,-1
 261 876 l 1,9,-1
 459 876 l 1,10,-1
 459 734 l 1,11,-1
 261 734 l 1,12,-1
 261 139 l 1,0,-1
126 -2 m 1,13,-1
 126 734 l 1,14,-1
 32 734 l 1,15,-1
 32 876 l 1,16,-1
 126 876 l 1,17,-1
 126 1521 l 1,18,-1
 400 1521 l 2,19,20
 522 1521 522 1521 602 1479.5 c 128,-1,21
 682 1438 682 1438 732 1372.5 c 128,-1,22
 782 1307 782 1307 811 1235 c 0,23,24
 838 1177 838 1177 864 1058 c 128,-1,25
 890 939 890 939 890 755 c 0,26,27
 890 387 890 387 755 192.5 c 128,-1,28
 620 -2 620 -2 376 -2 c 2,29,-1
 126 -2 l 1,13,-1
EndSplineSet
EndChar

StartChar: E
Encoding: 69 69 42
Width: 903
VWidth: 2441
GlyphClass: 2
Flags: HW
AnchorPoint: "Anchor-3" 890 24 basechar 0
AnchorPoint: "Anchor-2" 452 0 basechar 0
AnchorPoint: "Anchor-0" 473 1521 basechar 0
LayerCount: 2
Fore
SplineSet
32 0 m 1,0,-1
 32 1523 l 1,1,-1
 871 1523 l 1,2,-1
 871 1374 l 1,3,-1
 186 1374 l 1,4,-1
 186 869 l 1,5,-1
 752 869 l 1,6,-1
 752 718 l 1,7,-1
 186 718 l 1,8,-1
 186 149 l 1,9,-1
 866 149 l 1,10,-1
 866 0 l 1,11,-1
 32 0 l 1,0,-1
EndSplineSet
EndChar

StartChar: uni01B8
Encoding: 440 440 65
Width: 853
VWidth: 2441
GlyphClass: 1
Flags: HW
LayerCount: 2
Fore
SplineSet
467 -27 m 0,0,1
 323 -27 323 -27 226.5 33 c 128,-1,2
 130 93 130 93 81 195.5 c 128,-1,3
 32 298 32 298 32 420 c 0,4,5
 32 555 32 555 85.5 662 c 128,-1,6
 139 769 139 769 234.5 835 c 128,-1,7
 330 901 330 901 454 908 c 1,8,-1
 71 1370 l 1,9,-1
 71 1521 l 1,10,-1
 742 1521 l 1,11,-1
 742 1370 l 1,12,-1
 247 1370 l 1,13,-1
 621 908 l 1,14,-1
 621 781 l 1,15,16
 595.68852459 782.573770492 595.68852459 782.573770492 571.718624026 782.573770492 c 0,17,18
 412.918032787 782.573770492 412.918032787 782.573770492 313 713.5 c 0,19,20
 198 634 198 634 198 432 c 0,21,22
 198 285 198 285 271 201 c 128,-1,23
 344 117 344 117 484 117 c 0,24,25
 545 117 545 117 586.5 135.5 c 128,-1,26
 628 154 628 154 661 191 c 0,27,28
 685 223 685 223 694 238.5 c 128,-1,29
 703 254 703 254 701 275 c 1,30,-1
 710 291 l 1,31,-1
 731 273 l 1,32,-1
 821 142 l 1,33,34
 751 56 751 56 661.5 14.5 c 128,-1,35
 572 -27 572 -27 467 -27 c 0,0,1
EndSplineSet
EndChar

StartChar: F
Encoding: 70 70 66
Width: 853
VWidth: 2441
GlyphClass: 2
Flags: HW
AnchorPoint: "Anchor-2" 411 0 basechar 0
AnchorPoint: "Anchor-0" 411 1521 basechar 0
LayerCount: 2
Fore
SplineSet
32 0 m 1,0,-1
 32 1523 l 1,1,-1
 821 1523 l 1,2,-1
 821 1377 l 1,3,-1
 194 1377 l 1,4,-1
 194 894 l 1,5,-1
 698 894 l 1,6,-1
 698 750 l 1,7,-1
 194 750 l 1,8,-1
 194 0 l 1,9,-1
 32 0 l 1,0,-1
EndSplineSet
EndChar

StartChar: G
Encoding: 71 71 67
Width: 922
VWidth: 2441
GlyphClass: 2
Flags: HW
AnchorPoint: "Anchor-2" 496 0 basechar 0
AnchorPoint: "Anchor-0" 515 1521 basechar 0
LayerCount: 2
Fore
SplineSet
519 -24 m 0,0,1
 369 -24 369 -24 260 68.5 c 128,-1,2
 151 161 151 161 91.5 333 c 128,-1,3
 32 505 32 505 32 743 c 0,4,5
 31.9183673469 753.163265306 31.9183673469 753.163265306 31.9183673469 763.171595169 c 0,6,7
 31.9183673469 998.367346939 31.9183673469 998.367346939 77 1148 c 0,8,9
 124 1304 124 1304 199.5 1389.5 c 128,-1,10
 275 1475 275 1475 358.5 1506.5 c 128,-1,11
 442 1538 442 1538 515 1538 c 0,12,13
 629 1536 629 1536 732.5 1468 c 128,-1,14
 836 1400 836 1400 886 1289 c 1,15,-1
 785 1197 l 1,16,-1
 766 1179 l 1,17,-1
 757 1193 l 1,18,19
 759 1212 759 1212 752.5 1230 c 128,-1,20
 746 1248 746 1248 723 1279 c 0,21,22
 678 1335 678 1335 629 1362 c 128,-1,23
 580 1389 580 1389 513 1389 c 0,24,25
 423 1389 423 1389 346.5 1334 c 128,-1,26
 270 1279 270 1279 225 1146 c 128,-1,27
 180 1013 180 1013 180 778 c 0,28,29
 180 461 180 461 271 292.5 c 128,-1,30
 362 124 362 124 519 124 c 0,31,32
 573 124 573 124 638 145 c 128,-1,33
 703 166 703 166 751 212 c 1,34,-1
 751 583 l 1,35,-1
 526 583 l 1,36,-1
 526 727 l 1,37,-1
 890 727 l 1,38,-1
 890 132 l 1,39,40
 712 -24 712 -24 519 -24 c 0,0,1
EndSplineSet
EndChar

StartChar: H
Encoding: 72 72 74
Width: 922
VWidth: 2441
GlyphClass: 2
Flags: HW
AnchorPoint: "Anchor-4" 522 762 basechar 0
AnchorPoint: "Anchor-2" 522 0 basechar 0
AnchorPoint: "Anchor-0" 522 1521 basechar 0
LayerCount: 2
Fore
SplineSet
32 1521 m 1,0,-1
 216 1521 l 1,1,-1
 216 1504 l 1,2,3
 202 1490 202 1490 199.5 1473 c 128,-1,4
 197 1456 197 1456 197 1414 c 2,5,-1
 197 871 l 1,6,-1
 707 871 l 1,7,-1
 707 1521 l 1,8,-1
 890 1521 l 1,9,-1
 890 1504 l 1,10,11
 878 1490 878 1490 874.5 1473 c 128,-1,12
 871 1456 871 1456 871 1414 c 2,13,-1
 871 0 l 1,14,-1
 704 0 l 1,15,-1
 704 725 l 1,16,-1
 197 725 l 1,17,-1
 197 0 l 1,18,-1
 32 0 l 1,19,-1
 32 1521 l 1,0,-1
EndSplineSet
EndChar

StartChar: Hbar
Encoding: 294 294 75
Width: 882
VWidth: 2441
GlyphClass: 2
Flags: HW
AnchorPoint: "Anchor-4" 487 762 basechar 0
AnchorPoint: "Anchor-2" 487 0 basechar 0
AnchorPoint: "Anchor-0" 487 1521 basechar 0
LayerCount: 2
Fore
SplineSet
216 871 m 1,0,-1
 640 871 l 1,1,-1
 640 1216 l 1,2,-1
 216 1216 l 1,3,-1
 216 871 l 1,0,-1
2 1216 m 1,4,-1
 2 1351 l 1,5,-1
 80 1351 l 1,6,-1
 80 1521 l 1,7,-1
 233 1521 l 1,8,-1
 233 1504 l 1,9,10
 221 1490 221 1490 218.5 1473 c 128,-1,11
 216 1456 216 1456 216 1414 c 2,12,-1
 216 1351 l 1,13,-1
 640 1351 l 1,14,-1
 640 1521 l 1,15,-1
 792 1521 l 1,16,-1
 792 1504 l 1,17,18
 782 1490 782 1490 779.5 1473 c 128,-1,19
 777 1456 777 1456 777 1414 c 2,20,-1
 777 1351 l 1,21,-1
 860 1351 l 1,22,-1
 860 1216 l 1,23,-1
 777 1216 l 1,24,-1
 777 0 l 1,25,-1
 638 0 l 1,26,-1
 638 725 l 1,27,-1
 216 725 l 1,28,-1
 216 0 l 1,29,-1
 80 0 l 1,30,-1
 80 1216 l 1,31,-1
 2 1216 l 1,4,-1
EndSplineSet
EndChar

StartChar: I
Encoding: 73 73 79
Width: 771
VWidth: 2441
GlyphClass: 2
Flags: HW
AnchorPoint: "Anchor-3" 629 0 basechar 0
AnchorPoint: "Anchor-2" 403 0 basechar 0
AnchorPoint: "Anchor-0" 378 1521 basechar 0
LayerCount: 2
Fore
SplineSet
32 0 m 1,0,-1
 32 142 l 1,1,-1
 298 142 l 1,2,-1
 298 1379 l 1,3,-1
 46 1379 l 1,4,-1
 46 1521 l 1,5,-1
 725 1521 l 1,6,-1
 725 1379 l 1,7,-1
 459 1379 l 1,8,-1
 459 139 l 1,9,-1
 739 139 l 1,10,-1
 739 0 l 1,11,-1
 32 0 l 1,0,-1
EndSplineSet
EndChar

StartChar: J
Encoding: 74 74 94
Width: 922
VWidth: 2441
GlyphClass: 2
Flags: HW
AnchorPoint: "Anchor-2" 454 0 basechar 0
AnchorPoint: "Anchor-0" 621 1521 basechar 0
LayerCount: 2
Fore
SplineSet
339 -27 m 0,0,1
 152 -27 152 -27 32 132 c 1,2,-1
 116 263 l 1,3,-1
 130 284 l 1,4,-1
 144 275 l 1,5,6
 146 254 146 254 153.5 234.5 c 128,-1,7
 161 215 161 215 188 186 c 0,8,9
 257 123 257 123 339 122 c 0,10,11
 441 122 441 122 489 209 c 128,-1,12
 537 296 537 296 537 508 c 2,13,-1
 537 1379 l 1,14,-1
 288 1379 l 1,15,-1
 288 1521 l 1,16,-1
 890 1521 l 1,17,-1
 890 1379 l 1,18,-1
 690 1379 l 1,19,-1
 690 510 l 1,20,21
 690.458715596 491.834862385 690.458715596 491.834862385 690.458715596 474.338860365 c 0,22,23
 690.458715596 301.128440367 690.458715596 301.128440367 645.5 193.5 c 0,24,25
 596 75 596 75 514 24 c 128,-1,26
 432 -27 432 -27 339 -27 c 0,0,1
EndSplineSet
EndChar

StartChar: K
Encoding: 75 75 96
Width: 922
VWidth: 2441
GlyphClass: 1
Flags: HW
LayerCount: 2
Fore
SplineSet
285 755 m 1,0,-1
 187 622 l 1,1,-1
 187 0 l 1,2,-1
 32 0 l 1,3,-1
 32 1521 l 1,4,-1
 208 1521 l 1,5,-1
 208 1504 l 1,6,7
 195 1490 195 1490 191 1473 c 128,-1,8
 187 1456 187 1456 187 1414 c 2,9,-1
 187 823 l 1,10,-1
 697 1533 l 1,11,12
 748 1521 748 1521 809 1521 c 2,13,-1
 860 1521 l 1,14,-1
 395 859 l 1,15,-1
 890 0 l 1,16,-1
 705 -10 l 1,17,-1
 285 755 l 1,0,-1
EndSplineSet
EndChar

StartChar: uni0198
Encoding: 408 408 98
Width: 922
VWidth: 2441
GlyphClass: 1
Flags: HW
LayerCount: 2
Fore
SplineSet
32 1521 m 1,0,-1
 208 1521 l 1,1,-1
 208 1504 l 1,2,3
 195 1490 195 1490 191 1473 c 128,-1,4
 187 1456 187 1456 187 1414 c 2,5,-1
 187 806 l 1,6,7
 316 1081 316 1081 425.5 1238.5 c 128,-1,8
 535 1396 535 1396 630.5 1463.5 c 128,-1,9
 726 1531 726 1531 811 1531 c 0,10,11
 851 1531 851 1531 879 1521 c 1,12,-1
 877 1345 l 1,13,-1
 877 1321 l 1,14,-1
 864 1321 l 1,15,16
 853 1335 853 1335 838.5 1345 c 128,-1,17
 824 1355 824 1355 790 1358 c 2,18,-1
 784 1358 l 2,19,20
 762 1358 762 1358 730.5 1344 c 128,-1,21
 699 1330 699 1330 651 1285 c 128,-1,22
 603 1240 603 1240 535.5 1147.5 c 128,-1,23
 468 1055 468 1055 372 899 c 1,24,-1
 890 0 l 1,25,-1
 705 -10 l 1,26,-1
 285 750 l 1,27,28
 238 667 238 667 187 571 c 1,29,-1
 187 0 l 1,30,-1
 32 0 l 1,31,-1
 32 1521 l 1,0,-1
EndSplineSet
EndChar

StartChar: L
Encoding: 76 76 99
Width: 887
VWidth: 2441
GlyphClass: 2
Flags: HW
AnchorPoint: "Anchor-4" 123 762 basechar 0
AnchorPoint: "Anchor-2" 437 0 basechar 0
AnchorPoint: "Anchor-1" 284 1116 basechar 0
AnchorPoint: "Anchor-0" 328 1521 basechar 0
LayerCount: 2
Fore
SplineSet
32 1521 m 1,0,-1
 220 1521 l 1,1,-1
 220 1504 l 1,2,3
 206 1490 206 1490 202 1473 c 128,-1,4
 198 1456 198 1456 198 1414 c 2,5,-1
 198 147 l 1,6,-1
 855 147 l 1,7,-1
 855 0 l 1,8,-1
 32 0 l 1,9,-1
 32 1521 l 1,0,-1
EndSplineSet
EndChar

StartChar: uni01C7
Encoding: 455 455 100
Width: 859
VWidth: 2380
GlyphClass: 1
Flags: HW
LayerCount: 2
Fore
SplineSet
32 98 m 1,0,-1
 32 1521 l 1,1,-1
 208 1521 l 1,2,3
 208 1505 208 1505 203 1501.5 c 128,-1,4
 198 1498 198 1498 192.5 1489 c 128,-1,5
 187 1480 187 1480 187 1443 c 2,6,-1
 187 236 l 1,7,-1
 527 236 l 1,8,-1
 527 98 l 1,9,-1
 32 98 l 1,0,-1
486 -246 m 0,10,11
 303 -246 303 -246 180 -98 c 1,12,-1
 281 33 l 1,13,14
 301 17 301 17 301 0 c 128,-1,15
 301 -17 301 -17 322 -41 c 0,16,17
 338 -61 338 -61 380 -82.5 c 128,-1,18
 422 -104 422 -104 481 -104 c 0,19,20
 577 -104 577 -104 626 -24.5 c 128,-1,21
 675 55 675 55 675 253 c 2,22,-1
 675 1388 l 1,23,-1
 418 1388 l 1,24,-1
 418 1521 l 1,25,-1
 827 1521 l 1,26,-1
 827 256 l 1,27,28
 827.316831683 241.504950495 827.316831683 241.504950495 827.316831683 227.464758357 c 0,0,0
 827.316831683 64.2475247525 827.316831683 64.2475247525 784.5 -37.5 c 128,-1,29
 738 -148 738 -148 657.5 -197 c 128,-1,30
 577 -246 577 -246 486 -246 c 0,10,11
EndSplineSet
EndChar

StartChar: Lcaron
Encoding: 317 317 102
Width: 887
VWidth: 2441
GlyphClass: 2
Flags: HW
AnchorPoint: "Anchor-4" 123 762 basechar 0
AnchorPoint: "Anchor-2" 437 0 basechar 0
AnchorPoint: "Anchor-1" 284 1116 basechar 0
AnchorPoint: "Anchor-0" 328 1521 basechar 0
LayerCount: 2
Fore
SplineSet
32 1521 m 1,0,-1
 220 1521 l 1,1,-1
 220 1504 l 1,2,3
 206 1490 206 1490 202 1473 c 128,-1,4
 198 1456 198 1456 198 1414 c 2,5,-1
 198 147 l 1,6,-1
 855 147 l 1,7,-1
 855 0 l 1,8,-1
 32 0 l 1,9,-1
 32 1521 l 1,0,-1
633 1006 m 1,10,-1
 568 1062 l 1,11,12
 619 1113 619 1113 651.5 1169 c 128,-1,13
 684 1225 684 1225 684 1262 c 0,14,15
 684 1289 684 1289 661 1309.5 c 128,-1,16
 638 1330 638 1330 615.5 1354.5 c 128,-1,17
 593 1379 593 1379 593 1414 c 0,18,19
 593 1463 593 1463 623.5 1494.5 c 128,-1,20
 654 1526 654 1526 701 1526 c 0,21,22
 747 1526 747 1526 783.5 1484 c 128,-1,23
 820.005291005 1441.99391172 820.005291005 1441.99391172 820.005291005 1368.38985471 c 0,24,25
 820.005291005 1216.87830688 820.005291005 1216.87830688 633 1006 c 1,10,-1
EndSplineSet
EndChar

StartChar: uni01C8
Encoding: 456 456 106
Width: 809
VWidth: 2365
GlyphClass: 1
Flags: HW
LayerCount: 2
Fore
SplineSet
397 -246 m 0,0,1
 306 -246 306 -246 236 -210.5 c 128,-1,2
 166 -175 166 -175 112 -106 c 1,3,-1
 212 34 l 1,4,5
 225 19 225 19 228.5 1 c 128,-1,6
 232 -17 232 -17 247.5 -38 c 128,-1,7
 263 -59 263 -59 312 -86 c 0,8,9
 354 -108 354 -108 408 -108 c 0,10,11
 495 -108 495 -108 554.5 -45 c 128,-1,12
 614 18 614 18 614 181 c 2,13,-1
 614 1029 l 1,14,-1
 334 1029 l 1,15,-1
 334 1158 l 1,16,-1
 767 1158 l 1,17,-1
 767 190 l 2,18,19
 767 35 767 35 718 -60 c 128,-1,20
 669 -155 669 -155 585 -198.5 c 128,-1,21
 501 -242 501 -242 397 -246 c 0,0,1
32 141 m 1,22,-1
 32 1528 l 1,23,-1
 203 1528 l 1,24,25
 203 1506 203 1506 194 1489 c 128,-1,26
 185 1472 185 1472 185 1451 c 2,27,-1
 185 277 l 1,28,-1
 501 277 l 1,29,-1
 501 141 l 1,30,-1
 32 141 l 1,22,-1
671 1374 m 0,31,32
 629 1374 629 1374 597.5 1406 c 128,-1,33
 566 1438 566 1438 566 1483 c 0,34,35
 566 1530 566 1530 596 1562 c 128,-1,36
 626 1594 626 1594 671 1594 c 128,-1,37
 716 1594 716 1594 746.5 1561 c 128,-1,38
 777 1528 777 1528 777 1483 c 128,-1,39
 777 1438 777 1438 746.5 1406 c 128,-1,40
 716 1374 716 1374 671 1374 c 0,31,32
EndSplineSet
EndChar

StartChar: Lslash
Encoding: 321 321 108
Width: 922
VWidth: 2441
GlyphClass: 1
Flags: HW
LayerCount: 2
Fore
SplineSet
137 0 m 1,0,-1
 137 594 l 1,1,-1
 32 552 l 1,2,-1
 32 701 l 1,3,-1
 137 745 l 1,4,-1
 137 1521 l 1,5,-1
 306 1521 l 2,6,7
 313 1521 313 1521 312 1516 c 0,8,9
 312 1506 312 1506 303 1494 c 128,-1,10
 294 1482 294 1482 289 1438 c 1,11,-1
 289 801 l 1,12,-1
 621 932 l 2,13,14
 636 939 636 939 649.5 945.5 c 128,-1,15
 663 952 663 952 671 957 c 1,16,-1
 671 801 l 1,17,-1
 289 652 l 1,18,-1
 289 147 l 1,19,-1
 890 147 l 1,20,-1
 890 0 l 1,21,-1
 137 0 l 1,0,-1
EndSplineSet
EndChar

StartChar: M
Encoding: 77 77 109
Width: 922
VWidth: 2441
GlyphClass: 2
Flags: HW
AnchorPoint: "Anchor-2" 459 0 basechar 0
AnchorPoint: "Anchor-0" 459 1521 basechar 0
LayerCount: 2
Fore
SplineSet
32 0 m 1,0,-1
 32 1521 l 1,1,-1
 150 1521 l 1,2,-1
 459 792 l 1,3,-1
 774 1523 l 1,4,-1
 890 1523 l 1,5,-1
 890 0 l 1,6,-1
 749 0 l 1,7,-1
 749 1132 l 1,8,-1
 477 535 l 1,9,-1
 422 535 l 1,10,-1
 171 1125 l 1,11,-1
 171 0 l 1,12,-1
 32 0 l 1,0,-1
EndSplineSet
EndChar

StartChar: N
Encoding: 78 78 111
Width: 922
VWidth: 2441
GlyphClass: 2
Flags: HW
AnchorPoint: "Anchor-2" 453 0 basechar 0
AnchorPoint: "Anchor-0" 453 1521 basechar 0
LayerCount: 2
Fore
SplineSet
32 1521 m 1,0,-1
 179 1521 l 1,1,-1
 721 408 l 1,2,-1
 721 1521 l 1,3,-1
 890 1521 l 1,4,-1
 890 1504 l 1,5,6
 876 1490 876 1490 872 1473 c 128,-1,7
 868 1456 868 1456 868 1414 c 2,8,-1
 868 0 l 1,9,-1
 747 0 l 1,10,-1
 177 1181 l 1,11,-1
 177 0 l 1,12,-1
 32 0 l 1,13,-1
 32 1521 l 1,0,-1
EndSplineSet
EndChar

StartChar: Eng
Encoding: 330 330 117
Width: 863
VWidth: 2344
GlyphClass: 2
Flags: HW
AnchorPoint: "Anchor-2" 426 159 basechar 0
AnchorPoint: "Anchor-0" 426 1521 basechar 0
LayerCount: 2
Fore
SplineSet
679 1521 m 1,0,-1
 831 1521 l 1,1,2
 831 1508 831 1508 824 1497 c 128,-1,3
 817 1486 817 1486 817 1462 c 2,4,-1
 817 159 l 2,5,6
 817 -49 817 -49 734 -147.5 c 128,-1,7
 651 -246 651 -246 516 -246 c 0,8,9
 422 -246 422 -246 343 -192 c 1,10,-1
 413 -56 l 1,11,12
 430 -62 430 -62 437.5 -74 c 128,-1,13
 445 -86 445 -86 461.5 -97 c 128,-1,14
 478 -108 478 -108 520 -108 c 0,15,16
 612 -108 612 -108 644.5 -31.5 c 128,-1,17
 677 45 677 45 679 207 c 1,18,-1
 168 1217 l 1,19,-1
 168 159 l 1,20,-1
 32 159 l 1,21,-1
 32 1521 l 1,22,-1
 172 1521 l 1,23,-1
 679 524 l 1,24,-1
 679 1521 l 1,0,-1
EndSplineSet
EndChar

StartChar: O
Encoding: 79 79 120
Width: 922
VWidth: 2441
GlyphClass: 2
Flags: HW
AnchorPoint: "Anchor-4" 462 762 basechar 0
AnchorPoint: "Anchor-3" 531 24 basechar 0
AnchorPoint: "Anchor-2" 462 0 basechar 0
AnchorPoint: "Anchor-1" 709 1426 basechar 0
AnchorPoint: "Anchor-0" 462 1521 basechar 0
LayerCount: 2
Fore
SplineSet
462 119 m 128,-1,1
 594 119 594 119 669.5 274 c 128,-1,2
 745 429 745 429 745 752 c 0,3,4
 745 1057 745 1057 669.5 1220.5 c 128,-1,5
 594 1384 594 1384 462 1384 c 128,-1,6
 330 1384 330 1384 253.5 1220.5 c 128,-1,7
 177 1057 177 1057 177 752 c 0,8,9
 177 430 177 430 253.5 274.5 c 128,-1,0
 330 119 330 119 462 119 c 128,-1,1
462 -27 m 0,10,11
 255 -27 255 -27 143.5 168.5 c 128,-1,12
 32 364 32 364 32 752 c 0,13,14
 32 1128 32 1128 143 1329.5 c 128,-1,15
 254 1531 254 1531 462 1531 c 0,16,17
 667 1531 667 1531 778.5 1329.5 c 128,-1,18
 890 1128 890 1128 890 752 c 0,19,20
 890 363 890 363 778.5 168 c 128,-1,21
 667 -27 667 -27 462 -27 c 0,10,11
EndSplineSet
Substitution2: "Single Substitution lookup 29 subtable" ordmasculine
Substitution2: "'aalt' Access All Alternates in Latin lookup 0 subtable" ordmasculine
EndChar

StartChar: Oslash
Encoding: 216 216 148
Width: 922
VWidth: 2441
GlyphClass: 2
Flags: HW
AnchorPoint: "Anchor-4" 462 762 basechar 0
AnchorPoint: "Anchor-3" 531 24 basechar 0
AnchorPoint: "Anchor-2" 462 0 basechar 0
AnchorPoint: "Anchor-1" 709 1426 basechar 0
AnchorPoint: "Anchor-0" 462 1521 basechar 0
LayerCount: 2
Fore
SplineSet
462 119 m 0,0,1
 594 119 594 119 669.5 274 c 128,-1,2
 745 429 745 429 745 752 c 0,3,4
 745 1025 745 1025 684 1186 c 1,5,-1
 282 219 l 1,6,7
 354 119 354 119 462 119 c 0,0,1
177 752 m 0,8,9
 177 498 177 498 227 345 c 1,10,-1
 623 1299 l 1,11,12
 557.75862069 1384.01149425 557.75862069 1384.01149425 464.180076628 1384.01149425 c 0,13,14
 463.091954023 1384.01149425 463.091954023 1384.01149425 462 1384 c 0,15,16
 330 1384 330 1384 253.5 1220.5 c 128,-1,17
 177 1057 177 1057 177 752 c 0,8,9
150 -103 m 1,18,-1
 60 -56 l 1,19,-1
 150 159 l 1,20,21
 32 357 32 357 32 752 c 0,22,23
 32 1128 32 1128 143 1329.5 c 128,-1,24
 254 1531 254 1531 462 1531 c 0,25,26
 592 1531 592 1531 686 1447 c 1,27,-1
 775 1665 l 1,28,-1
 861 1614 l 1,29,-1
 758 1365 l 1,30,31
 890 1162 890 1162 890 752 c 0,32,33
 890 363 890 363 778 168 c 128,-1,34
 666 -27 666 -27 462 -27 c 0,35,36
 317 -27 317 -27 220 68 c 1,37,-1
 150 -103 l 1,18,-1
EndSplineSet
EndChar

StartChar: OE
Encoding: 338 338 154
Width: 894
VWidth: 2441
GlyphClass: 1
Flags: HW
LayerCount: 2
Fore
SplineSet
317 132 m 0,0,1
 363 132 363 132 398.5 183.5 c 128,-1,2
 434 235 434 235 445 315 c 1,3,-1
 445 1184 l 1,4,5
 425 1270 425 1270 392 1336 c 128,-1,6
 359 1402 359 1402 303 1402 c 0,7,8
 257 1402 257 1402 218.5 1345.5 c 128,-1,9
 180 1289 180 1289 157 1150 c 128,-1,10
 134 1011 134 1011 134 764 c 0,11,12
 134 464 134 464 181.5 298 c 128,-1,13
 229 132 229 132 317 132 c 0,0,1
301 -17 m 0,14,15
 169 -17 169 -17 89.5 165 c 128,-1,16
 10 347 10 347 10 762 c 0,17,18
 10 1163 10 1163 87.5 1353 c 128,-1,19
 165 1543 165 1543 303 1543 c 0,20,21
 341 1543 341 1543 378 1523.5 c 128,-1,22
 415 1504 415 1504 447 1456 c 1,23,-1
 447 1523 l 1,24,-1
 868 1523 l 1,25,-1
 868 1374 l 1,26,-1
 568 1374 l 1,27,-1
 568 869 l 1,28,-1
 822 869 l 1,29,-1
 822 718 l 1,30,-1
 568 718 l 1,31,-1
 568 149 l 1,32,-1
 864 149 l 1,33,-1
 864 0 l 1,34,-1
 445 0 l 1,35,-1
 445 73 l 1,36,37
 413 24 413 24 378 3.5 c 128,-1,38
 343 -17 343 -17 301 -17 c 0,14,15
EndSplineSet
EndChar

StartChar: P
Encoding: 80 80 155
Width: 922
VWidth: 2441
GlyphClass: 2
Flags: HW
AnchorPoint: "Anchor-2" 109 0 basechar 0
AnchorPoint: "Anchor-0" 446 1521 basechar 0
LayerCount: 2
Fore
SplineSet
195 820 m 1,0,-1
 453 820 l 2,1,2
 599 820 599 820 664.5 893.5 c 128,-1,3
 730 967 730 967 730 1088 c 0,4,5
 730 1207 730 1207 664.5 1286 c 128,-1,6
 599 1365 599 1365 455 1365 c 2,7,-1
 195 1365 l 1,8,-1
 195 820 l 1,0,-1
32 0 m 1,9,-1
 32 1521 l 1,10,-1
 460 1521 l 2,11,12
 687 1521 687 1521 788.5 1399 c 128,-1,13
 890 1277 890 1277 890 1094 c 0,14,15
 890 908 890 908 788.5 789.5 c 128,-1,16
 687 671 687 671 471 671 c 2,17,-1
 195 671 l 1,18,-1
 195 0 l 1,19,-1
 32 0 l 1,9,-1
EndSplineSet
EndChar

StartChar: Thorn
Encoding: 222 222 156
Width: 922
VWidth: 2441
GlyphClass: 1
Flags: HW
LayerCount: 2
Fore
SplineSet
190 532 m 1,0,-1
 469 532 l 2,1,2
 609 532 609 532 669 610.5 c 128,-1,3
 729 689 729 689 729 801 c 128,-1,4
 729 913 729 913 664.5 994.5 c 128,-1,5
 600 1076 600 1076 455 1076 c 2,6,-1
 190 1076 l 1,7,-1
 190 532 l 1,0,-1
32 0 m 1,8,-1
 32 1521 l 1,9,-1
 208 1521 l 1,10,11
 213 1516 213 1516 213 1514 c 0,12,13
 213 1507 213 1507 203.5 1491 c 128,-1,14
 194 1475 194 1475 190 1453 c 1,15,-1
 190 1233 l 1,16,-1
 464 1233 l 2,17,18
 611 1233 611 1233 705.5 1175.5 c 128,-1,19
 800 1118 800 1118 845 1020.5 c 128,-1,20
 890 923 890 923 890 806 c 128,-1,21
 890 689 890 689 846 595 c 128,-1,22
 802 501 802 501 709 445 c 128,-1,23
 616 389 616 389 469 389 c 2,24,-1
 190 389 l 1,25,-1
 190 0 l 1,26,-1
 32 0 l 1,8,-1
EndSplineSet
EndChar

StartChar: Q
Encoding: 81 81 157
Width: 922
VWidth: 2388
GlyphClass: 2
Flags: HW
AnchorPoint: "Anchor-2" 461 87 basechar 0
AnchorPoint: "Anchor-0" 461 1522 basechar 0
LayerCount: 2
Fore
SplineSet
472 212 m 0,0,1
 538 212 538 212 603 266 c 128,-1,2
 668 320 668 320 711 441 c 128,-1,3
 754 562 754 562 754 764 c 0,4,5
 754 955 754 955 726 1078.5 c 128,-1,6
 698 1202 698 1202 654 1272 c 128,-1,7
 610 1342 610 1342 559.5 1370.5 c 128,-1,8
 509 1399 509 1399 463 1399 c 0,9,10
 366 1399 366 1399 301.5 1323.5 c 128,-1,11
 237 1248 237 1248 204.5 1119 c 128,-1,12
 172 990 172 990 172 832 c 0,13,14
 172 542 172 542 252 377 c 128,-1,15
 332 212 332 212 472 212 c 0,0,1
754 -245 m 1,16,17
 729.441860465 -246.406976744 729.441860465 -246.406976744 706.79786371 -246.406976744 c 0,18,19
 552.406976744 -246.406976744 552.406976744 -246.406976744 487 -181 c 0,20,21
 412 -106 412 -106 412 71 c 1,22,23
 313 89 313 89 226.5 170.5 c 128,-1,24
 140 252 140 252 86 407 c 128,-1,25
 32 562 32 562 32 797 c 0,26,27
 32 1014 32 1014 72 1156 c 128,-1,28
 112 1298 112 1298 178 1382.5 c 128,-1,29
 244 1467 244 1467 318 1502.5 c 128,-1,30
 392 1538 392 1538 463 1538 c 0,31,32
 572 1538 572 1538 672 1464 c 128,-1,33
 772 1390 772 1390 833 1229 c 0,34,35
 890.246153846 1077.90769231 890.246153846 1077.90769231 890.246153846 835.221538462 c 0,36,37
 890.246153846 819.307692308 890.246153846 819.307692308 890 803 c 1,38,39
 890 474 890 474 800.5 296 c 128,-1,40
 711 118 711 118 536 71 c 1,41,42
 540 -5 540 -5 567.5 -53.5 c 128,-1,43
 595 -102 595 -102 677 -102 c 1,44,-1
 834 -93 l 1,45,-1
 830 -245 l 1,46,-1
 754 -245 l 1,16,17
EndSplineSet
EndChar

StartChar: R
Encoding: 82 82 158
Width: 922
VWidth: 2441
GlyphClass: 2
Flags: HW
AnchorPoint: "Anchor-2" 441 0 basechar 0
AnchorPoint: "Anchor-0" 441 1521 basechar 0
LayerCount: 2
Fore
SplineSet
189 820 m 1,0,-1
 434 820 l 2,1,2
 569 820 569 820 633 893.5 c 128,-1,3
 697 967 697 967 697 1088 c 0,4,5
 697 1210 697 1210 632.5 1287.5 c 128,-1,6
 568 1365 568 1365 434 1365 c 2,7,-1
 189 1365 l 1,8,-1
 189 820 l 1,0,-1
32 0 m 1,9,-1
 32 1521 l 1,10,-1
 417 1521 l 2,11,12
 648 1521 648 1521 750 1402.5 c 128,-1,13
 852 1284 852 1284 852 1088 c 0,14,15
 852 997 852 997 820 912 c 128,-1,16
 788 827 788 827 728.5 765 c 128,-1,17
 669 703 669 703 587 681 c 1,18,-1
 890 0 l 1,19,-1
 720 0 l 1,20,-1
 427 674 l 1,21,-1
 189 674 l 1,22,-1
 189 0 l 1,23,-1
 32 0 l 1,9,-1
EndSplineSet
EndChar

StartChar: S
Encoding: 83 83 166
Width: 922
VWidth: 2441
GlyphClass: 2
Flags: HW
AnchorPoint: "Anchor-2" 447 0 basechar 0
AnchorPoint: "Anchor-0" 477 1521 basechar 0
LayerCount: 2
Fore
SplineSet
447 -24 m 0,0,1
 189 -24 189 -24 32 163 c 1,2,-1
 108 322 l 1,3,-1
 118 345 l 1,4,-1
 134 337 l 1,5,6
 141 318 141 318 145 295.5 c 128,-1,7
 149 273 149 273 174 242 c 1,8,9
 226 191 226 191 299.5 158.5 c 128,-1,10
 373 126 373 126 466 126 c 0,11,12
 584 126 584 126 661.5 200.5 c 128,-1,13
 739 275 739 275 739 391 c 0,14,15
 739 459 739 459 716 508 c 128,-1,16
 693 557 693 557 628 604.5 c 128,-1,17
 563 652 563 652 440 713 c 1,18,19
 232 806 232 806 153.5 920.5 c 128,-1,20
 75 1035 75 1035 75 1165 c 0,21,22
 75 1340 75 1340 182.5 1440 c 128,-1,23
 290 1540 290 1540 480 1540 c 0,24,25
 589 1540 589 1540 683.5 1491 c 128,-1,26
 778 1442 778 1442 847 1355 c 1,27,-1
 764 1223 l 1,28,-1
 752 1204 l 1,29,-1
 739 1211 l 1,30,31
 734 1230 734 1230 728.5 1252 c 128,-1,32
 723 1274 723 1274 700 1304 c 1,33,34
 648 1358 648 1358 591 1379 c 128,-1,35
 534 1400 534 1400 456 1400 c 0,36,37
 352 1400 352 1400 292.5 1337 c 128,-1,38
 233 1274 233 1274 233 1177 c 0,39,40
 233 1109 233 1109 259 1055 c 128,-1,41
 285 1001 285 1001 354 950 c 128,-1,42
 423 899 423 899 556 840 c 0,43,44
 687 779 687 779 759.5 715.5 c 128,-1,45
 832 652 832 652 861 580 c 128,-1,46
 890 508 890 508 890 415 c 0,47,48
 890 305 890 305 845 204 c 128,-1,49
 800 103 800 103 701.5 39.5 c 128,-1,50
 603 -24 603 -24 447 -24 c 0,0,1
EndSplineSet
EndChar

StartChar: uni1E9E
Encoding: 7838 7838 177
Width: 922
VWidth: 2441
GlyphClass: 1
Flags: HW
LayerCount: 2
Fore
SplineSet
511 -24 m 0,0,1
 383 -24 383 -24 288 49 c 1,2,-1
 337 186 l 1,3,4
 374 156 374 156 416 141 c 128,-1,5
 458 126 458 126 497 126 c 0,6,7
 599 126 599 126 671.5 213 c 128,-1,8
 744 300 744 300 744 464 c 0,9,10
 744 545 744 545 719.5 619.5 c 128,-1,11
 695 694 695 694 627.5 741.5 c 128,-1,12
 560 789 560 789 430 789 c 2,13,-1
 367 789 l 1,14,-1
 367 927 l 1,15,-1
 651 1223 l 1,16,17
 651 1293 651 1293 631 1354.5 c 128,-1,18
 611 1416 611 1416 563 1455 c 128,-1,19
 515 1494 515 1494 435 1494 c 0,20,21
 370 1494 370 1494 313 1462.5 c 128,-1,22
 256 1431 256 1431 218.5 1357.5 c 128,-1,23
 181 1284 181 1284 181 1160 c 2,24,-1
 181 0 l 1,25,-1
 32 0 l 1,26,-1
 32 1128 l 2,27,28
 32 1321 32 1321 91.5 1430.5 c 128,-1,29
 151 1540 151 1540 243 1586.5 c 128,-1,30
 335 1633 335 1633 435 1633 c 0,31,32
 559 1633 559 1633 640 1574.5 c 128,-1,33
 721 1516 721 1516 761 1418.5 c 128,-1,34
 801 1321 801 1321 801 1204 c 1,35,-1
 518 920 l 1,36,37
 697 899 697 899 793.5 780.5 c 128,-1,38
 890 662 890 662 890 442 c 0,39,40
 890 279 890 279 839 174.5 c 128,-1,41
 788 70 788 70 700.5 23 c 128,-1,42
 613 -24 613 -24 511 -24 c 0,0,1
EndSplineSet
EndChar

StartChar: T
Encoding: 84 84 179
Width: 922
VWidth: 2441
GlyphClass: 2
Flags: HW
AnchorPoint: "Anchor-4" 456 762 basechar 0
AnchorPoint: "Anchor-2" 467 0 basechar 0
AnchorPoint: "Anchor-0" 467 1521 basechar 0
LayerCount: 2
Fore
SplineSet
381 0 m 1,0,-1
 381 1372 l 1,1,-1
 32 1372 l 1,2,-1
 32 1523 l 1,3,-1
 890 1523 l 1,4,-1
 890 1372 l 1,5,-1
 528 1372 l 1,6,-1
 528 0 l 1,7,-1
 381 0 l 1,0,-1
EndSplineSet
EndChar

StartChar: Tbar
Encoding: 358 358 180
Width: 922
VWidth: 2441
GlyphClass: 2
Flags: HW
AnchorPoint: "Anchor-4" 456 762 basechar 0
AnchorPoint: "Anchor-2" 467 0 basechar 0
AnchorPoint: "Anchor-0" 467 1521 basechar 0
LayerCount: 2
Fore
SplineSet
381 0 m 1,0,-1
 381 691 l 1,1,-1
 145 691 l 1,2,-1
 145 830 l 1,3,-1
 381 830 l 1,4,-1
 381 1372 l 1,5,-1
 32 1372 l 1,6,-1
 32 1523 l 1,7,-1
 890 1523 l 1,8,-1
 890 1372 l 1,9,-1
 528 1372 l 1,10,-1
 528 830 l 1,11,-1
 789 830 l 1,12,-1
 789 691 l 1,13,-1
 528 691 l 1,14,-1
 528 0 l 1,15,-1
 381 0 l 1,0,-1
EndSplineSet
EndChar

StartChar: U
Encoding: 85 85 186
Width: 922
VWidth: 2441
GlyphClass: 2
Flags: HW
AnchorPoint: "Anchor-3" 567 24 basechar 0
AnchorPoint: "Anchor-2" 456 0 basechar 0
AnchorPoint: "Anchor-1" 890 1521 basechar 0
AnchorPoint: "Anchor-0" 456 1521 basechar 0
LayerCount: 2
Fore
SplineSet
459 -27 m 0,0,1
 243 -27 243 -27 137.5 113.5 c 128,-1,2
 32 254 32 254 32 515 c 2,3,-1
 32 1521 l 1,4,-1
 207 1521 l 1,5,-1
 207 1504 l 1,6,7
 193 1490 193 1490 189 1473 c 128,-1,8
 185 1456 185 1456 185 1414 c 2,9,-1
 185 513 l 2,10,11
 185 327 185 327 246.5 220.5 c 128,-1,12
 308 114 308 114 461 114 c 0,13,14
 616 114 616 114 677.5 223.5 c 128,-1,15
 739 333 739 333 739 520 c 2,16,-1
 739 1521 l 1,17,-1
 890 1521 l 1,18,-1
 890 522 l 2,19,20
 890 234 890 234 774.5 103.5 c 128,-1,21
 659 -27 659 -27 459 -27 c 0,0,1
EndSplineSet
EndChar

StartChar: V
Encoding: 86 86 209
Width: 922
VWidth: 2441
GlyphClass: 2
Flags: HW
AnchorPoint: "Anchor-2" 458 0 basechar 0
AnchorPoint: "Anchor-0" 458 1521 basechar 0
LayerCount: 2
Fore
SplineSet
430 -10 m 1,0,-1
 32 1523 l 1,1,-1
 175 1523 l 1,2,-1
 472 373 l 1,3,-1
 753 1521 l 1,4,-1
 890 1521 l 1,5,-1
 498 -10 l 1,6,-1
 430 -10 l 1,0,-1
EndSplineSet
EndChar

StartChar: W
Encoding: 87 87 210
Width: 897
VWidth: 2441
GlyphClass: 2
Flags: HW
AnchorPoint: "Anchor-2" 452 0 basechar 0
AnchorPoint: "Anchor-0" 462 1521 basechar 0
LayerCount: 2
Fore
SplineSet
201 0 m 1,0,-1
 19 1521 l 1,1,-1
 143 1521 l 1,2,-1
 261 517 l 1,3,-1
 440 1409 l 1,4,-1
 485 1409 l 1,5,-1
 664 513 l 1,6,-1
 765 1521 l 1,7,-1
 877 1521 l 1,8,-1
 697 0 l 1,9,-1
 645 0 l 1,10,-1
 454 979 l 1,11,-1
 257 0 l 1,12,-1
 201 0 l 1,0,-1
EndSplineSet
EndChar

StartChar: X
Encoding: 88 88 215
Width: 922
VWidth: 2441
GlyphClass: 2
Flags: HW
AnchorPoint: "Anchor-2" 452 0 basechar 0
AnchorPoint: "Anchor-0" 452 1521 basechar 0
LayerCount: 2
Fore
SplineSet
32 0 m 1,0,-1
 369 776 l 1,1,-1
 39 1523 l 1,2,-1
 195 1523 l 1,3,-1
 452 955 l 1,4,-1
 707 1523 l 1,5,-1
 852 1523 l 1,6,-1
 540 778 l 1,7,-1
 890 0 l 1,8,-1
 727 0 l 1,9,-1
 454 594 l 1,10,-1
 188 0 l 1,11,-1
 32 0 l 1,0,-1
EndSplineSet
EndChar

StartChar: Y
Encoding: 89 89 216
Width: 922
VWidth: 2441
GlyphClass: 2
Flags: HW
AnchorPoint: "Anchor-2" 475 0 basechar 0
AnchorPoint: "Anchor-0" 460 1521 basechar 0
LayerCount: 2
Fore
SplineSet
400 0 m 1,0,-1
 400 596 l 1,1,-1
 32 1521 l 1,2,-1
 193 1521 l 1,3,-1
 481 794 l 1,4,-1
 743 1521 l 1,5,-1
 890 1521 l 1,6,-1
 552 596 l 1,7,-1
 552 0 l 1,8,-1
 400 0 l 1,0,-1
EndSplineSet
EndChar

StartChar: Z
Encoding: 90 90 226
Width: 922
VWidth: 2441
GlyphClass: 2
Flags: HW
AnchorPoint: "Anchor-2" 489 0 basechar 0
AnchorPoint: "Anchor-0" 468 1521 basechar 0
LayerCount: 2
Fore
SplineSet
32 117 m 1,0,-1
 681 1370 l 1,1,-1
 58 1370 l 1,2,-1
 58 1521 l 1,3,-1
 855 1521 l 1,4,-1
 855 1404 l 1,5,-1
 219 149 l 1,6,-1
 789 149 l 2,7,8
 826 149 826 149 843 154 c 128,-1,9
 860 159 860 159 874 173 c 1,10,-1
 890 173 l 1,11,-1
 890 0 l 1,12,-1
 32 0 l 1,13,-1
 32 117 l 1,0,-1
EndSplineSet
EndChar

StartChar: a
Encoding: 97 97 232
Width: 922
VWidth: 2441
GlyphClass: 2
Flags: HW
AnchorPoint: "Anchor-3" 768 0 basechar 0
AnchorPoint: "Anchor-2" 462 0 basechar 0
AnchorPoint: "Anchor-0" 469 1111 basechar 0
LayerCount: 2
Fore
SplineSet
191 293 m 0,0,1
 191 190 191 190 250.5 148.5 c 128,-1,2
 310 107 310 107 398 107 c 0,3,4
 555 107 555 107 646.5 214.5 c 128,-1,5
 738 322 738 322 748 522 c 1,6,7
 697 529 697 529 644 534.5 c 128,-1,8
 591 540 591 540 543 540 c 0,9,10
 386 540 386 540 288.5 482.5 c 128,-1,11
 191 425 191 425 191 293 c 0,0,1
384 -27 m 0,12,13
 213 -27 213 -27 122.5 61 c 128,-1,14
 32 149 32 149 32 284 c 0,15,16
 32 410 32 410 98.5 496.5 c 128,-1,17
 165 583 165 583 278 627 c 128,-1,18
 391 671 391 671 531 671 c 0,19,20
 579 671 579 671 633.5 667.5 c 128,-1,21
 688 664 688 664 748 657 c 1,22,23
 736 853 736 853 662.5 925 c 128,-1,24
 589 997 589 997 444 997 c 0,25,26
 295 997 295 997 179 879 c 1,27,-1
 103 991 l 1,28,29
 243 1140 243 1140 455 1140 c 0,30,31
 590 1140 590 1140 687 1091 c 128,-1,32
 784 1042 784 1042 837 924 c 128,-1,33
 890 806 890 806 890 594 c 2,34,-1
 890 0 l 1,35,-1
 719 0 l 1,36,-1
 719 170 l 1,37,38
 683 89 683 89 625.5 47 c 128,-1,39
 568 5 568 5 505 -11 c 128,-1,40
 442 -27 442 -27 384 -27 c 0,12,13
EndSplineSet
Substitution2: "Single Substitution lookup 29 subtable" ordfeminine
Substitution2: "'aalt' Access All Alternates in Latin lookup 0 subtable" ordfeminine
EndChar

StartChar: ae
Encoding: 230 230 257
Width: 860
VWidth: 2441
GlyphClass: 1
Flags: HW
LayerCount: 2
Fore
SplineSet
234 119 m 0,0,1
 295 119 295 119 322.5 175.5 c 128,-1,2
 350 232 350 232 357 327 c 128,-1,3
 364 422 364 422 364 535 c 1,4,5
 227 525 227 525 171.5 476 c 128,-1,6
 116 427 116 427 116 298 c 0,7,8
 116 195 116 195 146.5 157 c 128,-1,9
 177 119 177 119 234 119 c 0,0,1
480 681 m 1,10,-1
 734 694 l 1,11,12
 734 848 734 848 706.5 926 c 128,-1,13
 679 1004 679 1004 617 1004 c 0,14,15
 552 1004 552 1004 516 920.5 c 128,-1,16
 480 837 480 837 480 681 c 1,10,-1
228 -27 m 0,17,18
 102 -27 102 -27 48 68 c 128,-1,19
 -6 163 -6 163 -6 300 c 0,20,21
 -6 656 -6 656 364 678 c 1,22,23
 364 837 364 837 333.5 920.5 c 128,-1,24
 303 1004 303 1004 228 1004 c 0,25,26
 149 1004 149 1004 95 904 c 1,27,-1
 31 1011 l 1,28,29
 107.41221374 1140.00763359 107.41221374 1140.00763359 234.048773382 1140.00763359 c 0,30,31
 235.022900763 1140.00763359 235.022900763 1140.00763359 236 1140 c 0,32,33
 301 1140 301 1140 353 1100 c 128,-1,34
 405 1060 405 1060 433 991 c 1,35,36
 463 1059 463 1059 514 1099.5 c 128,-1,37
 565 1140 565 1140 619 1140 c 0,38,39
 739 1140 739 1140 791.5 1014 c 128,-1,40
 844 888 844 888 844 654 c 2,41,-1
 844 561 l 1,42,-1
 480 547 l 1,43,-1
 480 427 l 2,44,45
 480 285 480 285 527.5 198.5 c 128,-1,46
 575 112 575 112 660 112 c 0,47,48
 741 112 741 112 788 200 c 1,49,-1
 852 98 l 1,50,51
 773 -26 773 -26 649 -27 c 0,52,53
 582 -27 582 -27 521.5 15.5 c 128,-1,54
 461 58 461 58 427 135 c 1,55,56
 397 60 397 60 344 16.5 c 128,-1,57
 291 -27 291 -27 228 -27 c 0,17,18
EndSplineSet
EndChar

StartChar: b
Encoding: 98 98 259
Width: 922
VWidth: 2441
GlyphClass: 2
Flags: HW
AnchorPoint: "Anchor-2" 500 0 basechar 0
AnchorPoint: "Anchor-0" 500 1116 basechar 0
LayerCount: 2
Fore
SplineSet
457 126 m 0,0,1
 526 126 526 126 587 164.5 c 128,-1,2
 648 203 648 203 686.5 297 c 128,-1,3
 725 391 725 391 725 559 c 0,4,5
 725 791 725 791 652 892.5 c 128,-1,6
 579 994 579 994 464 994 c 0,7,8
 345 994 345 994 269.5 878 c 128,-1,9
 194 762 194 762 194 554 c 0,10,11
 194 354 194 354 253.5 240 c 128,-1,12
 313 126 313 126 457 126 c 0,0,1
479 -27 m 0,13,14
 388 -27 388 -27 312.5 19.5 c 128,-1,15
 237 66 237 66 190 147 c 1,16,-1
 139 0 l 1,17,-1
 32 0 l 1,18,-1
 32 1624 l 1,19,-1
 213 1624 l 1,20,-1
 213 1607 l 1,21,22
 201 1593 201 1593 197.5 1575.5 c 128,-1,23
 194 1558 194 1558 194 1516 c 2,24,-1
 194 945 l 1,25,26
 240 1038 240 1038 323.5 1090 c 128,-1,27
 407 1142 407 1142 488 1142 c 0,28,29
 668 1142 668 1142 779 1005.5 c 128,-1,30
 890 869 890 869 890 569 c 0,31,32
 890 359 890 359 830 228.5 c 128,-1,33
 770 98 770 98 676 35.5 c 128,-1,34
 582 -27 582 -27 479 -27 c 0,13,14
EndSplineSet
EndChar

StartChar: c
Encoding: 99 99 261
Width: 922
VWidth: 2441
GlyphClass: 2
Flags: HW
AnchorPoint: "Anchor-2" 524 0 basechar 0
AnchorPoint: "Anchor-0" 524 1116 basechar 0
LayerCount: 2
Fore
SplineSet
521 -27 m 0,0,1
 376 -27 376 -27 266 46 c 128,-1,2
 156 119 156 119 94 251.5 c 128,-1,3
 32 384 32 384 32 557 c 0,4,5
 32 736 32 736 96.5 866.5 c 128,-1,6
 161 997 161 997 271 1067 c 128,-1,7
 381 1137 381 1137 519 1137 c 0,8,9
 640 1137 640 1137 736.5 1084.5 c 128,-1,10
 833 1032 833 1032 890 939 c 1,11,-1
 793 832 l 1,12,-1
 778 813 l 1,13,-1
 766 825 l 1,14,15
 764 844 764 844 757 862.5 c 128,-1,16
 750 881 750 881 723 913 c 1,17,18
 678 957 678 957 625.5 975.5 c 128,-1,19
 573 994 573 994 505 994 c 0,20,21
 424 994 424 994 354 945 c 128,-1,22
 284 896 284 896 240.5 801 c 128,-1,23
 197 706 197 706 197 566 c 0,24,25
 197 363 197 363 290.5 244.5 c 128,-1,26
 384 126 384 126 531 126 c 0,27,28
 681 126 681 126 786 259 c 1,29,-1
 875 137 l 1,30,31
 732 -27 732 -27 521 -27 c 0,0,1
EndSplineSet
EndChar

StartChar: d
Encoding: 100 100 268
Width: 922
VWidth: 2441
GlyphClass: 2
Flags: HW
AnchorPoint: "Anchor-4" 702 1340 basechar 0
AnchorPoint: "Anchor-2" 468 0 basechar 0
AnchorPoint: "Anchor-1" 935 1116 basechar 0
AnchorPoint: "Anchor-0" 468 1116 basechar 0
LayerCount: 2
Fore
SplineSet
457 126 m 0,0,1
 592 126 592 126 649.5 246 c 128,-1,2
 707 366 707 366 707 564 c 128,-1,3
 707 762 707 762 643 881.5 c 128,-1,4
 579 1001 579 1001 444 1001 c 0,5,6
 316 1001 316 1001 250.5 897.5 c 128,-1,7
 185 794 185 794 185 596 c 0,8,9
 185 364 185 364 256 245 c 128,-1,10
 327 126 327 126 457 126 c 0,0,1
430 -24 m 0,11,12
 331 -24 331 -24 240 37 c 128,-1,13
 149 98 149 98 90.5 228.5 c 128,-1,14
 32 359 32 359 32 569 c 128,-1,15
 32 779 32 779 92 905.5 c 128,-1,16
 152 1032 152 1032 246.5 1089 c 128,-1,17
 341 1146 341 1146 440 1146 c 0,18,19
 541 1146 541 1146 612 1094 c 128,-1,20
 683 1042 683 1042 718 955 c 1,21,-1
 718 1624 l 1,22,-1
 888 1624 l 1,23,-1
 888 1607 l 1,24,25
 874 1593 874 1593 870.5 1575.5 c 128,-1,26
 867 1558 867 1558 867 1516 c 2,27,-1
 869 173 l 2,28,29
 869 129 869 129 871.5 86.5 c 128,-1,30
 874 44 874 44 890 0 c 1,31,-1
 735 0 l 1,32,33
 719 42 719 42 715 83 c 128,-1,34
 711 124 711 124 711 168 c 1,35,36
 666 82 666 82 595 29 c 128,-1,37
 524 -24 524 -24 430 -24 c 0,11,12
EndSplineSet
EndChar

StartChar: eth
Encoding: 240 240 269
Width: 922
VWidth: 2441
GlyphClass: 1
Flags: HW
LayerCount: 2
Fore
SplineSet
472 117 m 0,0,1
 542 117 542 117 602.5 161 c 128,-1,2
 663 205 663 205 700.5 304 c 128,-1,3
 738 403 738 403 738 566 c 0,4,5
 738 725 738 725 697 819 c 128,-1,6
 656 913 656 913 593.5 955 c 128,-1,7
 531 997 531 997 468 997 c 0,8,9
 400 997 400 997 336.5 950.5 c 128,-1,10
 273 904 273 904 233 808.5 c 128,-1,11
 193 713 193 713 193 566 c 0,12,13
 193 351 193 351 275 234 c 128,-1,14
 357 117 357 117 472 117 c 0,0,1
472 -30 m 0,15,16
 354 -30 354 -30 254 40 c 128,-1,17
 154 110 154 110 93 239 c 128,-1,18
 32 368 32 368 32 545 c 0,19,20
 32 720 32 720 91 854 c 128,-1,21
 150 988 150 988 244 1064 c 128,-1,22
 338 1140 338 1140 444 1140 c 0,23,24
 605 1140 605 1140 699 1020 c 1,25,26
 667 1111 667 1111 625 1192.5 c 128,-1,27
 583 1274 583 1274 526 1347 c 1,28,-1
 270 1262 l 1,29,-1
 229 1377 l 1,30,-1
 440 1445 l 1,31,32
 395 1491 395 1491 342.5 1530.5 c 128,-1,33
 290 1570 290 1570 232 1601 c 1,34,-1
 402 1640 l 1,35,36
 447 1608 447 1608 491 1571.5 c 128,-1,37
 535 1535 535 1535 579 1489 c 1,38,-1
 799 1560 l 1,39,-1
 836 1453 l 1,40,-1
 661 1394 l 1,41,42
 776 1238 776 1238 833 1047.5 c 128,-1,43
 890 857 890 857 890 617 c 0,44,45
 890 305 890 305 783 137.5 c 128,-1,46
 676 -30 676 -30 472 -30 c 0,15,16
EndSplineSet
EndChar

StartChar: dcaron
Encoding: 271 271 270
Width: 922
VWidth: 2441
GlyphClass: 1
Flags: HW
LayerCount: 2
Fore
SplineSet
341 124 m 0,0,1
 512.005780347 124 512.005780347 124 512.005780347 558.927996258 c 0,0,0
 512.005780347 561.456647399 512.005780347 561.456647399 512 564 c 0,2,3
 512 999 512 999 336 999 c 0,4,5
 248 999 248 999 202.5 907 c 128,-1,6
 157 815 157 815 157 596 c 0,7,8
 157 417 157 417 180.5 314.5 c 128,-1,9
 204 212 204 212 245 168 c 128,-1,10
 286 124 286 124 341 124 c 0,0,1
316 -24 m 0,11,12
 243 -24 243 -24 178.5 29.5 c 128,-1,13
 114 83 114 83 73 212.5 c 128,-1,14
 32 342 32 342 32 569 c 0,15,16
 32 791 32 791 73 916.5 c 128,-1,17
 114 1042 114 1042 181.5 1094 c 128,-1,18
 249 1146 249 1146 326 1146 c 0,19,20
 476 1146 476 1146 519 964 c 1,21,-1
 519 1624 l 1,22,-1
 665 1624 l 1,23,-1
 665 1607 l 1,24,25
 652 1593 652 1593 648.5 1575.5 c 128,-1,26
 645 1558 645 1558 645 1516 c 2,27,-1
 645 173 l 2,28,29
 645 129 645 129 647 86.5 c 128,-1,30
 649 44 649 44 661 0 c 1,31,-1
 534 0 l 1,32,33
 524 37 524 37 519 74.5 c 128,-1,34
 514 112 514 112 514 156 c 1,35,36
 484 77 484 77 434.5 26.5 c 128,-1,37
 385 -24 385 -24 316 -24 c 0,11,12
804 1631 m 0,38,39
 839 1631 839 1631 864.5 1595.5 c 128,-1,40
 890 1560 890 1560 890 1504 c 0,41,42
 890 1429 890 1429 849 1327 c 128,-1,43
 808 1225 808 1225 757 1140 c 1,44,-1
 699 1189 l 1,45,46
 727 1231 727 1231 752.5 1280.5 c 128,-1,47
 778 1330 778 1330 778 1382 c 0,48,49
 778 1406 778 1406 762 1424 c 128,-1,50
 746 1442 746 1442 730 1466.5 c 128,-1,51
 714 1491 714 1491 714 1533 c 0,52,53
 714 1570 714 1570 737.5 1600.5 c 128,-1,54
 761 1631 761 1631 804 1631 c 0,38,39
EndSplineSet
EndChar

StartChar: e
Encoding: 101 101 274
Width: 922
VWidth: 2441
GlyphClass: 2
Flags: HW
AnchorPoint: "Anchor-3" 618 21 basechar 0
AnchorPoint: "Anchor-2" 536 0 basechar 0
AnchorPoint: "Anchor-0" 487 1116 basechar 0
LayerCount: 2
Fore
SplineSet
193 669 m 1,0,-1
 726 669 l 1,1,2
 726 830 726 830 659.5 920.5 c 128,-1,3
 593 1011 593 1011 476 1011 c 0,4,5
 372 1011 372 1011 293 932 c 128,-1,6
 214 853 214 853 193 669 c 1,0,-1
517 -24 m 0,7,8
 296 -24 296 -24 164 121 c 128,-1,9
 32 266 32 266 32 554 c 0,10,11
 32 750 32 750 92.5 880.5 c 128,-1,12
 153 1011 153 1011 255.5 1076.5 c 128,-1,13
 358 1142 358 1142 487 1142 c 0,14,15
 602 1142 602 1142 693 1087 c 128,-1,16
 784 1032 784 1032 837 916.5 c 128,-1,17
 890 801 890 801 890 613 c 0,18,19
 890 592 890 592 889 573 c 128,-1,20
 888 554 888 554 885 532 c 1,21,-1
 189 532 l 1,22,23
 196 310 196 310 290 212 c 128,-1,24
 384 114 384 114 519 114 c 0,25,26
 673 114 673 114 772 235 c 1,27,-1
 864 142 l 1,28,29
 734 -24 734 -24 517 -24 c 0,7,8
EndSplineSet
EndChar

StartChar: uni029A
Encoding: 666 666 296
Width: 922
VWidth: 2441
GlyphClass: 1
Flags: HW
LayerCount: 2
Fore
SplineSet
435 124 m 0,0,1
 568 124 568 124 647 233 c 128,-1,2
 726 342 726 342 726 561 c 0,3,4
 726 766 726 766 650.5 881.5 c 128,-1,5
 575 997 575 997 444 997 c 0,6,7
 348 997 348 997 303 950.5 c 128,-1,8
 258 904 258 904 258 827 c 0,9,10
 258 759 258 759 300 716.5 c 128,-1,11
 342 674 342 674 444 674 c 0,12,13
 458 674 458 674 469.5 674 c 128,-1,14
 481 674 481 674 495 676 c 1,15,-1
 495 517 l 1,16,17
 475 519 475 519 457 522 c 128,-1,18
 439 525 439 525 419 525 c 0,19,20
 326 525 326 525 262.5 477 c 128,-1,21
 199 429 199 429 199 335 c 0,22,23
 199 237 199 237 266 180.5 c 128,-1,24
 333 124 333 124 435 124 c 0,0,1
435 -19 m 0,25,26
 317 -17 317 -17 225.5 32 c 128,-1,27
 134 81 134 81 83 164 c 128,-1,28
 32 247 32 247 32 349 c 0,29,30
 32 452 32 452 83 523 c 128,-1,31
 134 594 134 594 219 615 c 1,32,33
 90 698 90 698 90 840 c 0,34,35
 90 977 90 977 193.5 1058.5 c 128,-1,36
 297 1140 297 1140 452 1140 c 0,37,38
 655 1140 655 1140 772.5 982.5 c 128,-1,39
 890 825 890 825 890 559 c 0,40,41
 890 384 890 384 833.5 253 c 128,-1,42
 777 122 777 122 675 51.5 c 128,-1,43
 573 -19 573 -19 435 -19 c 0,25,26
EndSplineSet
EndChar

StartChar: f
Encoding: 102 102 300
Width: 922
VWidth: 2441
GlyphClass: 1
Flags: HW
LayerCount: 2
Fore
SplineSet
235 981 m 1,0,-1
 32 981 l 1,1,-1
 32 1116 l 1,2,-1
 235 1116 l 1,3,-1
 235 1209 l 2,4,5
 235 1433 235 1433 335.5 1535.5 c 128,-1,6
 436 1638 436 1638 588 1638 c 0,7,8
 678 1638 678 1638 758.5 1600.5 c 128,-1,9
 839 1563 839 1563 890 1484 c 1,10,-1
 810 1360 l 1,11,-1
 795 1340 l 1,12,-1
 782 1351 l 1,13,14
 777 1370 777 1370 772.5 1390.5 c 128,-1,15
 768 1411 768 1411 745 1440 c 1,16,17
 710 1475 710 1475 676.5 1488.5 c 128,-1,18
 643 1502 643 1502 592 1502 c 0,19,20
 502 1502 502 1502 442.5 1434.5 c 128,-1,21
 383 1367 383 1367 383 1209 c 2,22,-1
 383 1116 l 1,23,-1
 692 1116 l 1,24,-1
 692 981 l 1,25,-1
 383 981 l 1,26,-1
 383 0 l 1,27,-1
 235 0 l 1,28,-1
 235 981 l 1,0,-1
EndSplineSet
EndChar

StartChar: g
Encoding: 103 103 301
Width: 920
VWidth: 2298
GlyphClass: 2
Flags: HW
AnchorPoint: "Anchor-2" 429 -225 basechar 0
AnchorPoint: "Anchor-0" 399 1120 basechar 0
LayerCount: 2
Fore
SplineSet
169 28 m 0,0,1
 169 -46 169 -46 241.5 -86.5 c 128,-1,2
 314 -127 314 -127 443 -127 c 0,3,4
 576 -127 576 -127 634 -83.5 c 128,-1,5
 692 -40 692 -40 692 30 c 0,6,7
 692 78 692 78 677 109 c 128,-1,8
 662 140 662 140 614 154.5 c 128,-1,9
 566 169 566 169 470 169 c 0,10,11
 333 169 333 169 248 194 c 1,12,13
 205 161 205 161 187 126 c 128,-1,14
 169 91 169 91 169 28 c 0,0,1
399 592 m 0,15,16
 486 592 486 592 537 655 c 128,-1,17
 588 718 588 718 588 812 c 0,18,19
 588 905 588 905 537 968 c 128,-1,20
 486 1031 486 1031 399 1031 c 0,21,22
 314 1031 314 1031 262 968 c 128,-1,23
 210 905 210 905 210 812 c 128,-1,24
 210 719 210 719 262 655.5 c 128,-1,25
 314 592 314 592 399 592 c 0,15,16
399 464 m 0,26,27
 325 464 325 464 264 492 c 1,28,29
 229 446 229 446 229 403 c 0,30,31
 229 351 229 351 286 328.5 c 128,-1,32
 343 306 343 306 499 306 c 0,33,34
 636 306 636 306 706.5 273 c 128,-1,35
 777 240 777 240 803 183.5 c 128,-1,36
 829 127 829 127 829 53 c 0,37,38
 829 -23 829 -23 791 -92 c 128,-1,39
 753 -161 753 -161 668.5 -203.5 c 128,-1,40
 584 -246 584 -246 440 -246 c 0,41,42
 253 -246 253 -246 142.5 -182 c 128,-1,43
 32 -118 32 -118 32 10 c 0,44,45
 32 91 32 91 73.5 148.5 c 128,-1,46
 115 206 115 206 171 231 c 1,47,48
 106 279 106 279 105 366 c 0,49,50
 105 414 105 414 127 459.5 c 128,-1,51
 149 505 149 505 186 546 c 1,52,53
 86 644 86 644 86 812 c 0,54,55
 86 959 86 959 171 1058.5 c 128,-1,56
 256 1158 256 1158 399 1158 c 0,57,58
 473 1158 473 1158 531.5 1130.5 c 128,-1,59
 590 1103 590 1103 629 1058 c 1,60,61
 681 1108 681 1108 736.5 1130.5 c 0,62,63
 780.315789474 1148.26315789 780.315789474 1148.26315789 836.908587258 1148.26315789 c 0,64,65
 852 1148.26315789 852 1148.26315789 868 1147 c 1,66,-1
 888 1019 l 1,67,68
 864.8 1021.4 864.8 1021.4 842.48 1021.4 c 0,69,70
 809 1021.4 809 1021.4 777.5 1016 c 0,71,72
 725 1007 725 1007 681 975 c 1,73,74
 712 901 712 901 712 812 c 0,75,76
 712 665 712 665 628 564.5 c 128,-1,77
 544 464 544 464 399 464 c 0,26,27
EndSplineSet
EndChar

StartChar: h
Encoding: 104 104 308
Width: 858
VWidth: 2441
GlyphClass: 2
Flags: HW
AnchorPoint: "Anchor-4" 160 1340 basechar 0
AnchorPoint: "Anchor-2" 423 0 basechar 0
AnchorPoint: "Anchor-0" 132 1624 basechar 0
LayerCount: 2
Fore
SplineSet
32 1624 m 1,0,-1
 213 1624 l 1,1,-1
 213 1607 l 1,2,3
 199 1593 199 1593 195 1575.5 c 128,-1,4
 191 1558 191 1558 191 1516 c 2,5,-1
 191 923 l 1,6,7
 249 1026 249 1026 337 1084 c 128,-1,8
 425 1142 425 1142 518 1142 c 0,9,10
 657 1142 657 1142 741.5 1037 c 128,-1,11
 826 932 826 932 826 676 c 2,12,-1
 826 0 l 1,13,-1
 667 0 l 1,14,-1
 667 671 l 2,15,16
 667 846 667 846 614.5 920 c 128,-1,17
 562 994 562 994 484 994 c 0,18,19
 418 994 418 994 349.5 951 c 128,-1,20
 281 908 281 908 236 830 c 128,-1,21
 191 752 191 752 191 643 c 2,22,-1
 191 0 l 1,23,-1
 32 0 l 1,24,-1
 32 1624 l 1,0,-1
EndSplineSet
EndChar

StartChar: i
Encoding: 105 105 313
Width: 721
VWidth: 2441
GlyphClass: 2
Flags: HW
AnchorPoint: "Anchor-3" 577 0 basechar 0
AnchorPoint: "Anchor-2" 365 0 basechar 0
AnchorPoint: "Anchor-0" 365 1477 basechar 0
LayerCount: 2
Fore
SplineSet
32 0 m 1,0,-1
 32 139 l 1,1,-1
 291 139 l 1,2,-1
 291 976 l 1,3,-1
 47 976 l 1,4,-1
 47 1116 l 1,5,-1
 453 1116 l 1,6,-1
 453 139 l 1,7,-1
 689 139 l 1,8,-1
 689 0 l 1,9,-1
 32 0 l 1,0,-1
362 1355 m 0,10,11
 316 1355 316 1355 281.5 1390.5 c 128,-1,12
 247 1426 247 1426 247 1475 c 0,13,14
 247 1526 247 1526 280 1561 c 128,-1,15
 313 1596 313 1596 362 1596 c 128,-1,16
 411 1596 411 1596 445 1559.5 c 128,-1,17
 479 1523 479 1523 479 1475 c 0,18,19
 479 1426 479 1426 445 1390.5 c 128,-1,20
 411 1355 411 1355 362 1355 c 0,10,11
EndSplineSet
Substitution2: "'locl' Localized Forms in Latin lookup 18 subtable" i.loclTRK
Substitution2: "'locl' Localized Forms in Latin lookup 17 subtable" i.loclTRK
Substitution2: "'locl' Localized Forms in Latin lookup 16 subtable" i.loclTRK
Substitution2: "'locl' Localized Forms in Latin lookup 15 subtable" i.loclTRK
Substitution2: "'locl' Localized Forms in Latin lookup 14 subtable" i.loclTRK
Substitution2: "Single Substitution lookup 4 subtable" dotlessi
Substitution2: "Single Substitution lookup 3 subtable" dotlessi
AlternateSubs2: "'aalt' Access All Alternates in Latin lookup 1 subtable" dotlessi i.loclTRK
EndChar

StartChar: dotlessi
Encoding: 305 305 314
Width: 721
VWidth: 2441
GlyphClass: 2
Flags: HW
AnchorPoint: "Anchor-3" 577 0 basechar 0
AnchorPoint: "Anchor-2" 365 0 basechar 0
AnchorPoint: "Anchor-0" 365 1116 basechar 0
LayerCount: 2
Fore
SplineSet
32 0 m 1,0,-1
 32 139 l 1,1,-1
 291 139 l 1,2,-1
 291 976 l 1,3,-1
 47 976 l 1,4,-1
 47 1116 l 1,5,-1
 453 1116 l 1,6,-1
 453 139 l 1,7,-1
 689 139 l 1,8,-1
 689 0 l 1,9,-1
 32 0 l 1,0,-1
EndSplineSet
EndChar

StartChar: j
Encoding: 106 106 329
Width: 739
VWidth: 2365
GlyphClass: 2
Flags: HW
AnchorPoint: "Anchor-2" 446 -282 basechar 0
AnchorPoint: "Anchor-0" 602 1488 basechar 0
LayerCount: 2
Fore
SplineSet
328 -246 m 0,0,1
 241 -246 241 -246 163 -213 c 128,-1,2
 85 -180 85 -180 32 -112 c 1,3,-1
 117 7 l 1,4,-1
 128 26 l 1,5,-1
 141 18 l 1,6,7
 145 -2 145 -2 152 -18.5 c 128,-1,8
 159 -35 159 -35 183 -63 c 1,9,10
 210 -85 210 -85 245.5 -98.5 c 128,-1,11
 281 -112 281 -112 328 -112 c 0,12,13
 417 -112 417 -112 474 -42 c 128,-1,14
 531 28 531 28 531 181 c 2,15,-1
 531 1029 l 1,16,-1
 187 1029 l 1,17,-1
 187 1158 l 1,18,-1
 682 1158 l 1,19,-1
 682 190 l 2,20,21
 682 32 682 32 634 -63.5 c 128,-1,22
 586 -159 586 -159 507 -202.5 c 128,-1,23
 428 -246 428 -246 328 -246 c 0,0,1
599 1377 m 0,24,25
 557 1377 557 1377 526 1409 c 128,-1,26
 495 1441 495 1441 495 1485 c 0,27,28
 495 1532 495 1532 525 1564 c 128,-1,29
 555 1596 555 1596 599 1596 c 0,30,31
 644 1596 644 1596 675.5 1563 c 128,-1,32
 707 1530 707 1530 707 1485 c 128,-1,33
 707 1440 707 1440 675.5 1408.5 c 128,-1,34
 644 1377 644 1377 599 1377 c 0,24,25
EndSplineSet
Substitution2: "Single Substitution lookup 4 subtable" uni0237
Substitution2: "Single Substitution lookup 3 subtable" uni0237
Substitution2: "'aalt' Access All Alternates in Latin lookup 0 subtable" uni0237
EndChar

StartChar: uni0237
Encoding: 567 567 330
Width: 694
VWidth: 2286
GlyphClass: 2
Flags: HW
AnchorPoint: "Anchor-2" 434 -281 basechar 0
AnchorPoint: "Anchor-0" 584 1116 basechar 0
LayerCount: 2
Fore
SplineSet
319 -246 m 0,0,1
 235 -246 235 -246 159.5 -214 c 128,-1,2
 84 -182 84 -182 32 -116 c 1,3,-1
 114 -0 l 1,4,-1
 125 18 l 1,5,-1
 137 10 l 1,6,7
 141 -9 141 -9 148 -25.5 c 128,-1,8
 155 -42 155 -42 179 -69 c 1,9,10
 205 -90 205 -90 239 -103 c 128,-1,11
 273 -116 273 -116 319 -116 c 0,12,13
 405 -116 405 -116 460.5 -48 c 128,-1,14
 516 20 516 20 516 168 c 2,15,-1
 516 990 l 1,16,-1
 183 990 l 1,17,-1
 183 1116 l 1,18,-1
 662 1116 l 1,19,-1
 662 177 l 2,20,21
 662 24 662 24 616 -69 c 128,-1,22
 570 -162 570 -162 493 -204 c 128,-1,23
 416 -246 416 -246 319 -246 c 0,0,1
EndSplineSet
EndChar

StartChar: k
Encoding: 107 107 332
Width: 922
VWidth: 2441
GlyphClass: 2
Flags: HW
AnchorPoint: "Anchor-2" 414 0 basechar 0
AnchorPoint: "Anchor-0" 112 1624 basechar 0
LayerCount: 2
Fore
SplineSet
311 554 m 1,0,-1
 188 417 l 1,1,-1
 186 0 l 1,2,-1
 32 0 l 1,3,-1
 32 1624 l 1,4,-1
 206 1624 l 1,5,-1
 206 1607 l 1,6,7
 193 1593 193 1593 189.5 1575.5 c 128,-1,8
 186 1558 186 1558 186 1516 c 2,9,-1
 186 603 l 1,10,-1
 655 1121 l 1,11,12
 708 1109 708 1109 768 1109 c 2,13,-1
 823 1109 l 1,14,-1
 425 662 l 1,15,-1
 890 0 l 1,16,-1
 697 -10 l 1,17,-1
 311 554 l 1,0,-1
EndSplineSet
EndChar

StartChar: kgreenlandic
Encoding: 312 312 334
Width: 922
VWidth: 2441
GlyphClass: 2
Flags: HW
AnchorPoint: "Anchor-2" 416 0 basechar 0
AnchorPoint: "Anchor-0" 115 1116 basechar 0
LayerCount: 2
Fore
SplineSet
311 554 m 1,0,-1
 188 417 l 1,1,-1
 186 0 l 1,2,-1
 32 0 l 1,3,-1
 32 1116 l 1,4,-1
 206 1116 l 1,5,-1
 206 1099 l 1,6,7
 193 1085 193 1085 189.5 1067.5 c 128,-1,8
 186 1050 186 1050 186 1009 c 2,9,-1
 186 603 l 1,10,-1
 655 1121 l 1,11,12
 708 1109 708 1109 768 1109 c 2,13,-1
 823 1109 l 1,14,-1
 425 662 l 1,15,-1
 890 0 l 1,16,-1
 697 -10 l 1,17,-1
 311 554 l 1,0,-1
EndSplineSet
EndChar

StartChar: l
Encoding: 108 108 335
Width: 816
VWidth: 2441
GlyphClass: 2
Flags: HW
AnchorPoint: "Anchor-4" 409 559 basechar 0
AnchorPoint: "Anchor-2" 409 0 basechar 0
AnchorPoint: "Anchor-1" 914 1116 basechar 0
AnchorPoint: "Anchor-0" 409 1624 basechar 0
LayerCount: 2
Fore
SplineSet
32 0 m 1,0,-1
 32 139 l 1,1,-1
 328 139 l 1,2,-1
 328 1484 l 1,3,-1
 47 1484 l 1,4,-1
 47 1624 l 1,5,-1
 491 1624 l 1,6,-1
 491 139 l 1,7,-1
 784 139 l 1,8,-1
 784 0 l 1,9,-1
 32 0 l 1,0,-1
EndSplineSet
EndChar

StartChar: ldot
Encoding: 320 320 339
Width: 901
VWidth: 2441
GlyphClass: 1
Flags: HW
LayerCount: 2
Fore
SplineSet
735 676 m 0,0,1
 679 676 679 676 640 714 c 128,-1,2
 601 752 601 752 601 808 c 128,-1,3
 601 864 601 864 641.5 903.5 c 128,-1,4
 682 943 682 943 735 943 c 0,5,6
 786 943 786 943 827.5 903.5 c 128,-1,7
 869 864 869 864 869 808 c 0,8,9
 869 754 869 754 829 715 c 128,-1,10
 789 676 789 676 735 676 c 0,0,1
32 0 m 1,11,-1
 32 139 l 1,12,-1
 286 139 l 1,13,-1
 286 1484 l 1,14,-1
 46 1484 l 1,15,-1
 46 1624 l 1,16,-1
 449 1624 l 1,17,-1
 449 139 l 1,18,-1
 784 139 l 1,19,-1
 784 0 l 1,20,-1
 32 0 l 1,11,-1
EndSplineSet
EndChar

StartChar: uni01C9
Encoding: 457 457 341
Width: 900
VWidth: 2368
GlyphClass: 1
Flags: HW
LayerCount: 2
Fore
SplineSet
491 -246 m 1,0,1
 317 -246 317 -246 210 -112 c 1,2,-1
 306 26 l 1,3,4
 319 11 319 11 322.5 -6.5 c 128,-1,5
 326 -24 326 -24 341.5 -42.5 c 128,-1,6
 357 -61 357 -61 406 -88 c 0,7,8
 453 -110 453 -110 502 -110 c 0,9,10
 593 -110 593 -110 650 -42 c 128,-1,11
 707 26 707 26 707 182 c 2,12,-1
 707 1031 l 1,13,-1
 426 1031 l 1,14,-1
 426 1160 l 1,15,-1
 859 1160 l 1,16,-1
 859 190 l 2,17,18
 859 32 859 32 810 -61.5 c 128,-1,19
 761 -155 761 -155 678 -198.5 c 128,-1,20
 595 -242 595 -242 491 -246 c 1,0,1
761 1379 m 0,21,22
 719 1379 719 1379 687.5 1411 c 128,-1,23
 656 1443 656 1443 656 1488 c 0,24,25
 656 1535 656 1535 686.5 1567 c 128,-1,26
 717 1599 717 1599 761 1599 c 0,27,28
 806 1599 806 1599 837 1565.5 c 128,-1,29
 868 1532 868 1532 868 1488 c 0,30,31
 868 1443 868 1443 837 1411 c 128,-1,32
 806 1379 806 1379 761 1379 c 0,21,22
32 141 m 1,33,-1
 32 269 l 1,34,-1
 162 269 l 1,35,-1
 162 1496 l 1,36,-1
 45 1496 l 1,37,-1
 45 1624 l 1,38,-1
 311 1624 l 1,39,-1
 311 269 l 1,40,-1
 558 269 l 1,41,-1
 558 141 l 1,42,-1
 32 141 l 1,33,-1
EndSplineSet
EndChar

StartChar: lslash
Encoding: 322 322 343
Width: 816
VWidth: 2441
GlyphClass: 1
Flags: HW
LayerCount: 2
Fore
SplineSet
32 0 m 1,0,-1
 32 139 l 1,1,-1
 328 139 l 1,2,-1
 328 681 l 1,3,-1
 157 615 l 1,4,-1
 157 776 l 1,5,-1
 328 843 l 1,6,-1
 328 1484 l 1,7,-1
 47 1484 l 1,8,-1
 47 1624 l 1,9,-1
 491 1624 l 1,10,-1
 491 904 l 1,11,-1
 689 983 l 1,12,-1
 689 815 l 1,13,-1
 491 740 l 1,14,-1
 491 139 l 1,15,-1
 784 139 l 1,16,-1
 784 0 l 1,17,-1
 32 0 l 1,0,-1
EndSplineSet
EndChar

StartChar: m
Encoding: 109 109 344
Width: 922
VWidth: 2441
GlyphClass: 2
Flags: HW
AnchorPoint: "Anchor-2" 455 0 basechar 0
AnchorPoint: "Anchor-0" 508 1116 basechar 0
LayerCount: 2
Fore
SplineSet
32 0 m 1,0,-1
 32 1116 l 1,1,-1
 169 1116 l 1,2,-1
 169 1006 l 1,3,4
 200 1067 200 1067 248 1104.5 c 128,-1,5
 296 1142 296 1142 350 1142 c 0,6,7
 409 1142 409 1142 453 1096 c 128,-1,8
 497 1050 497 1050 510 979 c 1,9,10
 535 1052 535 1052 591 1097 c 128,-1,11
 647 1142 647 1142 713 1142 c 0,12,13
 806 1142 806 1142 850 1061.5 c 0,14,15
 890.333333333 987.708333333 890.333333333 987.708333333 890.333333333 877.364583333 c 0,16,17
 890.333333333 867.333333333 890.333333333 867.333333333 890 857 c 1,18,-1
 890 0 l 1,19,-1
 753 0 l 1,20,-1
 753 792 l 2,21,22
 753 895 753 895 742 940.5 c 128,-1,23
 731 986 731 986 713.5 1001 c 128,-1,24
 696 1016 696 1016 672 1016 c 0,25,26
 634 1016 634 1016 602 973 c 128,-1,27
 570 930 570 930 550 865.5 c 128,-1,28
 530 801 530 801 530 737 c 2,29,-1
 530 0 l 1,30,-1
 391 0 l 1,31,-1
 391 776 l 2,32,33
 391 915 391 915 371.5 963 c 128,-1,34
 352 1011 352 1011 296 1011 c 0,35,36
 256 1011 256 1011 212.5 940 c 128,-1,37
 169 869 169 869 169 745 c 2,38,-1
 169 0 l 1,39,-1
 32 0 l 1,0,-1
EndSplineSet
EndChar

StartChar: n
Encoding: 110 110 346
Width: 858
VWidth: 2441
GlyphClass: 2
Flags: HW
AnchorPoint: "Anchor-2" 447 0 basechar 0
AnchorPoint: "Anchor-0" 459 1116 basechar 0
LayerCount: 2
Fore
SplineSet
32 0 m 1,0,-1
 32 1116 l 1,1,-1
 191 1116 l 1,2,-1
 191 923 l 1,3,4
 249 1026 249 1026 338.5 1084 c 128,-1,5
 428 1142 428 1142 528 1142 c 0,6,7
 614 1142 614 1142 680.5 1098.5 c 128,-1,8
 747 1055 747 1055 786.5 953.5 c 128,-1,9
 826 852 826 852 826 681 c 2,10,-1
 826 0 l 1,11,-1
 667 0 l 1,12,-1
 667 676 l 2,13,14
 667 851 667 851 616 922.5 c 128,-1,15
 565 994 565 994 484 994 c 0,16,17
 418 994 418 994 349.5 951 c 128,-1,18
 281 908 281 908 236 831.5 c 128,-1,19
 191 755 191 755 191 647 c 2,20,-1
 191 0 l 1,21,-1
 32 0 l 1,0,-1
EndSplineSet
EndChar

StartChar: eng
Encoding: 331 331 352
Width: 776
VWidth: 2288
GlyphClass: 1
Flags: HW
LayerCount: 2
Fore
SplineSet
411 -246 m 0,0,1
 306 -246 306 -246 224 -175 c 1,2,-1
 289 -35 l 1,3,4
 297 -37 297 -37 305.5 -55.5 c 128,-1,5
 314 -74 314 -74 337 -90 c 128,-1,6
 360 -106 360 -106 415 -106 c 0,7,8
 600 -106 600 -106 602 230 c 2,9,-1
 602 726 l 2,10,11
 602 888 602 888 555 949.5 c 128,-1,12
 508 1011 508 1011 440 1011 c 0,13,14
 380 1011 380 1011 319 972 c 128,-1,15
 258 933 258 933 219 864.5 c 128,-1,16
 180 796 180 796 180 701 c 2,17,-1
 180 133 l 1,18,-1
 32 133 l 1,19,-1
 32 1119 l 1,20,-1
 180 1119 l 1,21,-1
 180 948 l 1,22,23
 229 1039 229 1039 306.5 1090.5 c 128,-1,24
 384 1142 384 1142 468 1142 c 0,25,26
 546 1142 546 1142 608 1103.5 c 128,-1,27
 670 1065 670 1065 707 974.5 c 128,-1,28
 744 884 744 884 744 730 c 2,29,-1
 744 254 l 2,30,31
 744 -13 744 -13 648.5 -129.5 c 128,-1,32
 553 -246 553 -246 411 -246 c 0,0,1
EndSplineSet
EndChar

StartChar: o
Encoding: 111 111 355
Width: 922
VWidth: 2441
GlyphClass: 2
Flags: HW
AnchorPoint: "Anchor-4" 461 559 basechar 0
AnchorPoint: "Anchor-3" 535 24 basechar 0
AnchorPoint: "Anchor-2" 461 0 basechar 0
AnchorPoint: "Anchor-1" 683 1065 basechar 0
AnchorPoint: "Anchor-0" 461 1116 basechar 0
LayerCount: 2
Fore
SplineSet
461 124 m 128,-1,1
 581 124 581 124 656.5 241.5 c 128,-1,2
 732 359 732 359 732 561 c 0,3,4
 732 764 732 764 656 880.5 c 128,-1,5
 580 997 580 997 461 997 c 0,6,7
 344 997 344 997 268 880.5 c 128,-1,8
 192 764 192 764 192 561 c 128,-1,9
 192 358 192 358 266.5 241 c 128,-1,0
 341 124 341 124 461 124 c 128,-1,1
461 -19 m 128,-1,11
 334 -19 334 -19 238 51.5 c 128,-1,12
 142 122 142 122 87 251 c 128,-1,13
 32 380 32 380 32 559 c 128,-1,14
 32 738 32 738 87 868.5 c 128,-1,15
 142 999 142 999 238 1069.5 c 128,-1,16
 334 1140 334 1140 461 1140 c 128,-1,17
 588 1140 588 1140 685 1069.5 c 128,-1,18
 782 999 782 999 836 868 c 128,-1,19
 890 737 890 737 890 559 c 0,20,21
 890 380 890 380 836 251 c 128,-1,22
 782 122 782 122 685 51.5 c 128,-1,10
 588 -19 588 -19 461 -19 c 128,-1,11
EndSplineSet
Substitution2: "Single Substitution lookup 29 subtable" ordmasculine
Substitution2: "'aalt' Access All Alternates in Latin lookup 0 subtable" ordmasculine
EndChar

StartChar: oslash
Encoding: 248 248 383
Width: 922
VWidth: 2441
GlyphClass: 2
Flags: HW
AnchorPoint: "Anchor-4" 461 559 basechar 0
AnchorPoint: "Anchor-3" 535 24 basechar 0
AnchorPoint: "Anchor-2" 461 0 basechar 0
AnchorPoint: "Anchor-1" 683 1065 basechar 0
AnchorPoint: "Anchor-0" 461 1116 basechar 0
LayerCount: 2
Fore
SplineSet
461 124 m 0,0,1
 581 124 581 124 656.5 241.5 c 128,-1,2
 732 359 732 359 732 561 c 0,3,4
 732 749 732 749 664 864 c 1,5,-1
 341 161 l 1,6,7
 396 124 396 124 461 124 c 0,0,1
192 561 m 0,8,9
 192 380 192 380 253 263 c 1,10,-1
 573 964 l 1,11,12
 521 996 521 996 461 997 c 0,13,14
 344 997 344 997 268 880.5 c 128,-1,15
 192 764 192 764 192 561 c 0,8,9
199 -147 m 1,16,-1
 93 -88 l 1,17,-1
 181 103 l 1,18,19
 112 178 112 178 72 294 c 128,-1,20
 32 410 32 410 32 559 c 0,21,22
 32 738 32 738 87 868.5 c 128,-1,23
 142 999 142 999 238 1069.5 c 128,-1,24
 334 1140 334 1140 461 1140 c 0,25,26
 556 1140 556 1140 634 1099 c 1,27,-1
 709 1265 l 1,28,-1
 819 1204 l 1,29,-1
 737 1023 l 1,30,31
 810 948 810 948 850 829 c 128,-1,32
 890 710 890 710 890 559 c 0,33,34
 890 380 890 380 836 251 c 128,-1,35
 782 122 782 122 684.5 51.5 c 128,-1,36
 587 -19 587 -19 461 -19 c 0,37,38
 362 -19 362 -19 278 27 c 1,39,-1
 199 -147 l 1,16,-1
EndSplineSet
EndChar

StartChar: oe
Encoding: 339 339 389
Width: 852
VWidth: 2441
GlyphClass: 1
Flags: HW
LayerCount: 2
Fore
SplineSet
263 119 m 0,0,1
 298 119 298 119 323.5 146 c 128,-1,2
 349 173 349 173 349 217 c 0,3,4
 349 224 349 224 343 273 c 0,5,6
 333 359 333 359 329.5 437 c 128,-1,7
 326 515 326 515 326 581 c 0,8,9
 326 723 326 723 333.5 795 c 128,-1,10
 341 867 341 867 341 883 c 0,11,12
 341 929 341 929 318 961.5 c 128,-1,13
 295 994 295 994 259 994 c 0,14,15
 220 994 220 994 183 955 c 128,-1,16
 146 916 146 916 122.5 825 c 128,-1,17
 99 734 99 734 99 583 c 0,18,19
 99 341 99 341 143 230 c 128,-1,20
 187 119 187 119 263 119 c 0,0,1
442 678 m 1,21,-1
 727 678 l 1,22,23
 727 851 727 851 696 928.5 c 128,-1,24
 665 1006 665 1006 589 1006 c 0,25,26
 520 1006 520 1006 481 921.5 c 128,-1,27
 442 837 442 837 442 678 c 1,21,-1
630 -30 m 0,28,29
 507 -30 507 -30 421 68 c 1,30,31
 345 -27 345 -27 248 -27 c 0,32,33
 203 -27 203 -27 158 -1.5 c 128,-1,34
 113 24 113 24 74 87.5 c 128,-1,35
 35 151 35 151 10.5 264.5 c 128,-1,36
 -14 378 -14 378 -14 557 c 0,37,38
 -14 774 -14 774 25 901 c 128,-1,39
 64 1028 64 1028 125.5 1082.5 c 128,-1,40
 187 1137 187 1137 259 1137 c 0,41,42
 365 1137 365 1137 425 1028 c 1,43,44
 491.396396396 1137.00900901 491.396396396 1137.00900901 598.057381706 1137.00900901 c 0,0,0
 599.027027027 1137.00900901 599.027027027 1137.00900901 600 1137 c 0,45,46
 711 1137 711 1137 773.5 1028.5 c 128,-1,47
 836 920 836 920 836 691 c 2,48,-1
 836 540 l 1,49,-1
 440 540 l 1,50,51
 442 367 442 367 462.5 274 c 128,-1,52
 483 181 483 181 521 146.5 c 128,-1,53
 559 112 559 112 615 112 c 0,54,55
 721 112 721 112 782 207 c 1,56,-1
 844 103 l 1,57,58
 751 -30 751 -30 630 -30 c 0,28,29
EndSplineSet
EndChar

StartChar: p
Encoding: 112 112 390
Width: 857
VWidth: 2304
GlyphClass: 2
Flags: HW
AnchorPoint: "Anchor-2" 445 119 basechar 0
AnchorPoint: "Anchor-0" 445 1118 basechar 0
LayerCount: 2
Fore
SplineSet
423 228 m 0,0,1
 486 228 486 228 544 261 c 128,-1,2
 602 294 602 294 638.5 379.5 c 128,-1,3
 675 465 675 465 675 620 c 0,4,5
 675 812 675 812 614.5 907 c 128,-1,6
 554 1002 554 1002 443 1006 c 0,7,8
 438.72 1006.16 438.72 1006.16 434.4848 1006.16 c 0,9,10
 332.84 1006.16 332.84 1006.16 257 914 c 0,11,12
 178 818 178 818 178 585 c 1,13,14
 182 401 182 401 248 314.5 c 128,-1,15
 314 228 314 228 423 228 c 0,0,1
32 -246 m 1,16,-1
 32 1118 l 1,17,-1
 178 1118 l 1,18,-1
 178 930 l 1,19,20
 209 1035 209 1035 283.5 1087.5 c 128,-1,21
 358 1140 358 1140 452 1140 c 0,22,23
 552 1140 552 1140 637.5 1088.5 c 128,-1,24
 723 1037 723 1037 774 923.5 c 128,-1,25
 825 810 825 810 825 626 c 128,-1,26
 825 442 825 442 771.5 324.5 c 128,-1,27
 718 207 718 207 631.5 149.5 c 128,-1,28
 545 92 545 92 447 92 c 0,29,30
 364 92 364 92 294 134 c 128,-1,31
 224 176 224 176 180 250 c 1,32,-1
 180 -246 l 1,33,-1
 32 -246 l 1,16,-1
EndSplineSet
EndChar

StartChar: thorn
Encoding: 254 254 391
Width: 879
VWidth: 2374
GlyphClass: 1
Flags: HW
LayerCount: 2
Fore
SplineSet
434 241 m 0,0,1
 499 241 499 241 558.5 275 c 128,-1,2
 618 309 618 309 655.5 397 c 128,-1,3
 693 485 693 485 693 644 c 0,4,5
 693 841 693 841 631 939 c 128,-1,6
 569 1037 569 1037 454 1041 c 0,7,8
 449.707317073 1041.15609756 449.707317073 1041.15609756 445.458798334 1041.15609756 c 0,0,0
 340.83902439 1041.15609756 340.83902439 1041.15609756 263 946.5 c 128,-1,9
 182 848 182 848 182 608 c 1,10,11
 186 419 186 419 254 330 c 128,-1,12
 322 241 322 241 434 241 c 0,0,1
32 1624 m 1,13,-1
 202 1624 l 1,14,-1
 202 1608 l 1,15,16
 189 1595 189 1595 185.5 1579 c 128,-1,17
 182 1563 182 1563 182 1525 c 2,18,-1
 182 963 l 1,19,20
 214 1071 214 1071 290.5 1124.5 c 128,-1,21
 367 1178 367 1178 463 1178 c 0,22,23
 566 1178 566 1178 654 1125.5 c 128,-1,24
 742 1073 742 1073 794.5 956 c 128,-1,25
 847 839 847 839 847 650 c 128,-1,26
 847 461 847 461 792 340 c 128,-1,27
 737 219 737 219 648.5 160.5 c 128,-1,28
 560 102 560 102 459 102 c 0,29,30
 373 102 373 102 301 144.5 c 128,-1,31
 229 187 229 187 185 264 c 1,32,-1
 185 -246 l 1,33,-1
 32 -246 l 1,34,-1
 32 1624 l 1,13,-1
EndSplineSet
EndChar

StartChar: q
Encoding: 113 113 392
Width: 855
VWidth: 2305
GlyphClass: 1
Flags: HW
LayerCount: 2
Fore
SplineSet
430 232 m 0,0,1
 530 232 530 232 601.5 330 c 128,-1,2
 673 428 673 428 673 647 c 0,3,4
 673 853 673 853 608.5 936 c 128,-1,5
 544 1019 544 1019 445 1019 c 0,6,7
 332 1019 332 1019 256 926 c 128,-1,8
 180 833 180 833 180 629 c 0,9,10
 180 441 180 441 247 336.5 c 128,-1,11
 314 232 314 232 430 232 c 0,0,1
677 -246 m 1,12,-1
 677 272 l 1,13,14
 635 189 635 189 564 143.5 c 128,-1,15
 493 98 493 98 404 98 c 0,16,17
 297 98 297 98 213.5 162 c 128,-1,18
 130 226 130 226 81 344.5 c 128,-1,19
 32 463 32 463 32 622 c 0,20,21
 32 799 32 799 86.5 915 c 128,-1,22
 141 1031 141 1031 230.5 1088.5 c 128,-1,23
 320 1146 320 1146 427 1146 c 0,24,25
 523 1146 523 1146 586.5 1098.5 c 128,-1,26
 650 1051 650 1051 683 970 c 1,27,-1
 683 1119 l 1,28,-1
 823 1119 l 1,29,-1
 823 -246 l 1,30,-1
 677 -246 l 1,12,-1
EndSplineSet
EndChar

StartChar: r
Encoding: 114 114 393
Width: 823
VWidth: 2441
GlyphClass: 2
Flags: HW
AnchorPoint: "Anchor-2" 377 0 basechar 0
AnchorPoint: "Anchor-0" 423 1116 basechar 0
LayerCount: 2
Fore
SplineSet
32 1116 m 1,0,-1
 202 1116 l 1,1,-1
 200 913 l 1,2,3
 242 1025 242 1025 332.5 1083.5 c 128,-1,4
 423 1142 423 1142 523 1142 c 0,5,6
 684 1142 684 1142 791 1020 c 1,7,-1
 720 883 l 1,8,-1
 713 862 l 1,9,-1
 696 869 l 1,10,11
 689 888 689 888 680 907.5 c 128,-1,12
 671 927 671 927 642 955 c 1,13,14
 581 997 581 997 512 997 c 0,15,16
 439 997 439 997 367 954 c 128,-1,17
 295 911 295 911 247.5 821.5 c 128,-1,18
 200 732 200 732 200 591 c 2,19,-1
 200 -2 l 1,20,-1
 32 -2 l 1,21,-1
 32 1116 l 1,0,-1
EndSplineSet
EndChar

StartChar: uni027B
Encoding: 635 635 399
Width: 937
VWidth: 2281
GlyphClass: 1
Flags: HW
LayerCount: 2
Fore
SplineSet
719 -246 m 0,0,1
 666 -246 666 -246 610 -220.5 c 128,-1,2
 554 -195 554 -195 517 -132 c 128,-1,3
 480 -69 480 -69 480 46 c 2,4,-1
 482 310 l 1,5,6
 449 211 449 211 380 160.5 c 128,-1,7
 311 110 311 110 232 110 c 0,8,9
 173 110 173 110 126 135 c 128,-1,10
 79 160 79 160 32 214 c 1,11,-1
 87 333 l 1,12,-1
 94 353 l 1,13,-1
 107 349 l 1,14,15
 113 332 113 332 118 315 c 128,-1,16
 123 298 123 298 146 276 c 0,17,18
 183 243 183 243 240 243 c 128,-1,19
 297 243 297 243 352.5 279.5 c 128,-1,20
 408 316 408 316 444 395 c 128,-1,21
 480 474 480 474 480 596 c 2,22,-1
 480 1118 l 1,23,-1
 620 1118 l 1,24,-1
 620 46 l 2,25,26
 620 -32 620 -32 655 -73 c 128,-1,27
 690 -114 690 -114 740 -114 c 0,28,29
 758 -114 758 -114 776.5 -109 c 128,-1,30
 795 -104 795 -104 815 -90 c 0,31,32
 829 -82 829 -82 832 -68.5 c 128,-1,33
 835 -55 835 -55 845 -49 c 1,34,-1
 890 -169 l 1,35,36
 826 -246 826 -246 719 -246 c 0,0,1
EndSplineSet
EndChar

StartChar: uni024D
Encoding: 589 589 402
Width: 922
VWidth: 2441
GlyphClass: 2
Flags: HW
AnchorPoint: "Anchor-2" 507 0 basechar 0
AnchorPoint: "Anchor-0" 550 1116 basechar 0
LayerCount: 2
Fore
SplineSet
32 420 m 1,0,-1
 32 559 l 1,1,-1
 189 559 l 1,2,-1
 189 1116 l 1,3,-1
 347 1116 l 1,4,-1
 344 913 l 1,5,6
 382 1025 382 1025 466 1083.5 c 128,-1,7
 550 1142 550 1142 642 1142 c 0,8,9
 790 1142 790 1142 890 1020 c 1,10,-1
 824 883 l 1,11,-1
 817 862 l 1,12,-1
 802 869 l 1,13,14
 795 888 795 888 787 907.5 c 128,-1,15
 779 927 779 927 752 955 c 1,16,17
 696 997 696 997 633 997 c 0,18,19
 566 997 566 997 499 954 c 128,-1,20
 432 911 432 911 388 821.5 c 128,-1,21
 344 732 344 732 344 591 c 2,22,-1
 344 559 l 1,23,-1
 579 559 l 1,24,-1
 579 420 l 1,25,-1
 344 420 l 1,26,-1
 344 -2 l 1,27,-1
 189 -2 l 1,28,-1
 189 420 l 1,29,-1
 32 420 l 1,0,-1
EndSplineSet
EndChar

StartChar: s
Encoding: 115 115 403
Width: 907
VWidth: 2441
GlyphClass: 1
Flags: HW
LayerCount: 2
Fore
SplineSet
458 -24 m 0,0,1
 326 -24 326 -24 219.5 17 c 128,-1,2
 113 58 113 58 32 139 c 1,3,-1
 120 298 l 1,4,-1
 132 319 l 1,5,-1
 148 310 l 1,6,7
 153 291 153 291 158.5 270 c 128,-1,8
 164 249 164 249 192 219 c 0,9,10
 238 173 238 173 301.5 145 c 128,-1,11
 365 117 365 117 462 117 c 0,12,13
 579 117 579 117 646.5 166 c 128,-1,14
 714 215 714 215 714 300 c 0,15,16
 714 370 714 370 659 417 c 128,-1,17
 604 464 604 464 465 513 c 0,18,19
 292 571 292 571 189 652.5 c 128,-1,20
 86 734 86 734 86 859 c 0,21,22
 86 985 86 985 180 1063.5 c 128,-1,23
 274 1142 274 1142 460 1142 c 0,24,25
 602 1142 602 1142 694.5 1099.5 c 128,-1,26
 787 1057 787 1057 860 972 c 1,27,-1
 768 852 l 1,28,-1
 753 830 l 1,29,-1
 738 843 l 1,30,31
 736 862 736 862 729.5 881.5 c 128,-1,32
 723 901 723 901 696 930 c 1,33,34
 647 972 647 972 585 992.5 c 128,-1,35
 523 1013 523 1013 465 1013 c 0,36,37
 372 1013 372 1013 311 976 c 128,-1,38
 250 939 250 939 250 871 c 0,39,40
 250 810 250 810 305 760 c 128,-1,41
 360 710 360 710 530 652 c 0,42,43
 716 586 716 586 795.5 516.5 c 128,-1,44
 875 447 875 447 875 324 c 0,45,46
 875 175 875 175 770 75.5 c 128,-1,47
 665 -24 665 -24 458 -24 c 0,0,1
EndSplineSet
EndChar

StartChar: germandbls
Encoding: 223 223 414
Width: 922
VWidth: 2441
GlyphClass: 1
Flags: HW
LayerCount: 2
Fore
SplineSet
507 -24 m 0,0,1
 381 -24 381 -24 290 49 c 1,2,-1
 361 184 l 1,3,4
 423 126 423 126 514 124 c 0,5,6
 572 124 572 124 625.5 170.5 c 128,-1,7
 679 217 679 217 711.5 295 c 128,-1,8
 744 373 744 373 744 471 c 0,9,10
 744 606 744 606 670 697.5 c 128,-1,11
 596 789 596 789 429 789 c 2,12,-1
 366 789 l 1,13,-1
 366 927 l 1,14,-1
 441 927 l 2,15,16
 518 927 518 927 582.5 994.5 c 128,-1,17
 647 1062 647 1062 647 1197 c 0,18,19
 647 1321 647 1321 584 1406 c 128,-1,20
 521 1491 521 1491 421 1491 c 0,21,22
 306 1491 306 1491 243 1365.5 c 128,-1,23
 180 1240 180 1240 180 1037 c 2,24,-1
 180 0 l 1,25,-1
 32 0 l 1,26,-1
 32 1032 l 2,27,28
 32 1344 32 1344 135.5 1488.5 c 128,-1,29
 239 1633 239 1633 401 1633 c 0,30,31
 514 1633 514 1633 603.5 1576 c 128,-1,32
 693 1519 693 1519 745 1421 c 128,-1,33
 797 1323 797 1323 797 1204 c 0,34,35
 797 1099 797 1099 754 1011 c 128,-1,36
 711 923 711 923 635 876 c 1,37,38
 753 832 753 832 821.5 719 c 128,-1,39
 890 606 890 606 890 442 c 0,40,41
 890 305 890 305 842.5 200 c 128,-1,42
 795 95 795 95 708.5 35.5 c 128,-1,43
 622 -24 622 -24 507 -24 c 0,0,1
EndSplineSet
EndChar

StartChar: t
Encoding: 116 116 415
Width: 891
VWidth: 2441
GlyphClass: 2
Flags: HW
AnchorPoint: "Anchor-4" 347 762 basechar 0
AnchorPoint: "Anchor-2" 437 0 basechar 0
AnchorPoint: "Anchor-1" 559 1116 basechar 0
AnchorPoint: "Anchor-0" 396 1426 basechar 0
LayerCount: 2
Fore
SplineSet
540 -19 m 0,0,1
 410 -19 410 -19 342 44 c 128,-1,2
 274 107 274 107 252 245.5 c 0,3,4
 234.074074074 358.351851852 234.074074074 358.351851852 234.074074074 526.641289438 c 0,5,6
 234.074074074 564.888888889 234.074074074 564.888888889 235 606 c 2,7,-1
 247 967 l 1,8,-1
 32 967 l 1,9,-1
 32 1109 l 1,10,-1
 251 1109 l 1,11,-1
 261 1402 l 1,12,-1
 433 1423 l 1,13,-1
 456 1426 l 1,14,-1
 459 1409 l 1,15,16
 447 1392 447 1392 438.5 1375 c 128,-1,17
 430 1358 430 1358 425 1316 c 2,18,-1
 410 1109 l 1,19,-1
 759 1109 l 1,20,-1
 759 967 l 1,21,-1
 412 967 l 1,22,-1
 398 594 l 2,23,24
 395.772727273 535.454545455 395.772727273 535.454545455 395.772727273 485.261363636 c 0,25,26
 395.772727273 377.704545455 395.772727273 377.704545455 406 308.5 c 0,27,28
 421 207 421 207 459.5 166.5 c 128,-1,29
 498 126 498 126 564 126 c 0,30,31
 637 126 637 126 694.5 158.5 c 128,-1,32
 752 191 752 191 810 237 c 1,33,-1
 859 98 l 1,34,35
 784 37 784 37 705 9 c 128,-1,36
 626 -19 626 -19 540 -19 c 0,0,1
EndSplineSet
EndChar

StartChar: tbar
Encoding: 359 359 416
Width: 908
VWidth: 2441
GlyphClass: 2
Flags: HW
AnchorPoint: "Anchor-4" 363 762 basechar 0
AnchorPoint: "Anchor-2" 454 0 basechar 0
AnchorPoint: "Anchor-1" 576 1116 basechar 0
AnchorPoint: "Anchor-0" 412 1426 basechar 0
LayerCount: 2
Fore
SplineSet
32 538 m 1,0,-1
 32 676 l 1,1,-1
 254 676 l 1,2,-1
 263 967 l 1,3,-1
 49 967 l 1,4,-1
 49 1109 l 1,5,-1
 268 1109 l 1,6,-1
 278 1402 l 1,7,-1
 449 1423 l 1,8,-1
 473 1426 l 1,9,-1
 475 1409 l 1,10,11
 463 1392 463 1392 455 1375 c 128,-1,12
 447 1358 447 1358 442 1316 c 2,13,-1
 427 1109 l 1,14,-1
 776 1109 l 1,15,-1
 776 967 l 1,16,-1
 429 967 l 1,17,-1
 417 676 l 1,18,-1
 754 676 l 1,19,-1
 754 538 l 1,20,-1
 412 538 l 1,21,22
 411.777777778 520.111111111 411.777777778 520.111111111 411.777777778 503.104938272 c 0,23,24
 411.777777778 367.055555556 411.777777778 367.055555556 426 287.5 c 0,25,26
 442 198 442 198 481 162 c 128,-1,27
 520 126 520 126 580 126 c 0,28,29
 653 126 653 126 711 158.5 c 128,-1,30
 769 191 769 191 827 237 c 1,31,-1
 876 98 l 1,32,33
 801 37 801 37 721.5 9 c 128,-1,34
 642 -19 642 -19 557 -19 c 0,35,36
 373 -19 373 -19 310 111.5 c 0,37,38
 250.76119403 234.208955224 250.76119403 234.208955224 250.76119403 503.246602807 c 0,39,40
 250.76119403 520.328358209 250.76119403 520.328358209 251 538 c 1,41,-1
 32 538 l 1,0,-1
EndSplineSet
EndChar

StartChar: u
Encoding: 117 117 423
Width: 894
VWidth: 2441
GlyphClass: 2
Flags: HW
AnchorPoint: "Anchor-3" 720 0 basechar 0
AnchorPoint: "Anchor-2" 396 0 basechar 0
AnchorPoint: "Anchor-1" 838 1116 basechar 0
AnchorPoint: "Anchor-0" 437 1116 basechar 0
LayerCount: 2
Fore
SplineSet
377 -27 m 0,0,1
 223 -27 223 -27 126.5 92.5 c 0,2,3
 31.9593908629 209.573604061 31.9593908629 209.573604061 31.9593908629 482.61521812 c 0,4,5
 31.9593908629 488.274111675 31.9593908629 488.274111675 32 494 c 2,6,-1
 34 1116 l 1,7,-1
 195 1116 l 1,8,-1
 195 494 l 2,9,10
 195 343 195 343 224.5 261 c 128,-1,11
 254 179 254 179 304 145.5 c 128,-1,12
 354 112 354 112 415 112 c 0,13,14
 520 112 520 112 599.5 206 c 128,-1,15
 679 300 679 300 679 501 c 2,16,-1
 679 1116 l 1,17,-1
 840 1116 l 1,18,-1
 840 173 l 2,19,20
 840 129 840 129 842.5 86.5 c 128,-1,21
 845 44 845 44 862 0 c 1,22,-1
 706 0 l 1,23,24
 689 42 689 42 685.5 83 c 128,-1,25
 682 124 682 124 682 166 c 1,26,27
 638 75 638 75 557.5 24 c 128,-1,28
 477 -27 477 -27 377 -27 c 0,0,1
EndSplineSet
EndChar

StartChar: v
Encoding: 118 118 446
Width: 922
VWidth: 2441
GlyphClass: 2
Flags: HW
AnchorPoint: "Anchor-2" 465 0 basechar 0
AnchorPoint: "Anchor-0" 465 1116 basechar 0
LayerCount: 2
Fore
SplineSet
404 0 m 1,0,-1
 32 1116 l 1,1,-1
 188 1116 l 1,2,-1
 472 247 l 1,3,-1
 621 654 l 2,4,5
 671 789 671 789 700 903.5 c 128,-1,6
 729 1018 729 1018 743 1116 c 1,7,-1
 890 1116 l 1,8,9
 855 916 855 916 752 627 c 2,10,-1
 527 0 l 1,11,-1
 404 0 l 1,0,-1
EndSplineSet
EndChar

StartChar: w
Encoding: 119 119 447
Width: 920
VWidth: 2441
GlyphClass: 2
Flags: HW
AnchorPoint: "Anchor-2" 461 0 basechar 0
AnchorPoint: "Anchor-0" 461 1116 basechar 0
LayerCount: 2
Fore
SplineSet
197 -2 m 1,0,-1
 29 1116 l 1,1,-1
 152 1116 l 1,2,-1
 285 232 l 1,3,-1
 422 991 l 1,4,-1
 512 991 l 1,5,-1
 684 235 l 1,6,7
 707 435 707 435 722 571.5 c 128,-1,8
 737 708 737 708 744.5 801 c 128,-1,9
 752 894 752 894 755 958.5 c 128,-1,10
 758 1023 758 1023 758 1079 c 2,11,-1
 758 1116 l 1,12,-1
 887 1116 l 1,13,14
 860 832 860 832 825.5 553.5 c 128,-1,15
 791 275 791 275 750 -2 c 1,16,-1
 614 -2 l 1,17,-1
 467 701 l 1,18,-1
 326 -2 l 1,19,-1
 197 -2 l 1,0,-1
EndSplineSet
EndChar

StartChar: x
Encoding: 120 120 452
Width: 922
VWidth: 2441
GlyphClass: 2
Flags: HW
AnchorPoint: "Anchor-2" 459 0 basechar 0
AnchorPoint: "Anchor-0" 459 1116 basechar 0
LayerCount: 2
Fore
SplineSet
32 0 m 1,0,-1
 368 566 l 1,1,-1
 39 1116 l 1,2,-1
 207 1116 l 1,3,-1
 454 708 l 1,4,-1
 692 1116 l 1,5,-1
 848 1116 l 1,6,-1
 540 573 l 1,7,-1
 890 0 l 1,8,-1
 715 0 l 1,9,-1
 454 429 l 1,10,-1
 207 0 l 1,11,-1
 32 0 l 1,0,-1
EndSplineSet
EndChar

StartChar: y
Encoding: 121 121 453
Width: 882
VWidth: 2286
GlyphClass: 2
Flags: HW
AnchorPoint: "Anchor-2" 708 129 basechar 0
AnchorPoint: "Anchor-0" 481 1116 basechar 0
LayerCount: 2
Fore
SplineSet
235 -246 m 0,0,1
 110 -246 110 -246 32 -162 c 1,2,-1
 92 -56 l 1,3,-1
 104 -37 l 1,4,-1
 116 -46 l 1,5,6
 120 -63 120 -63 130 -76 c 128,-1,7
 140 -89 140 -89 170 -110 c 1,8,9
 205 -121 205 -121 244 -122 c 0,10,11
 322 -122 322 -122 362.5 -58 c 128,-1,12
 403 6 403 6 438 127 c 1,13,-1
 77 1116 l 1,14,-1
 228 1116 l 1,15,-1
 500 339 l 1,16,-1
 613 723 l 2,17,18
 641 822 641 822 668 919.5 c 128,-1,19
 695 1017 695 1017 706 1116 c 1,20,-1
 850 1116 l 1,21,22
 837 1017 837 1017 807 915 c 128,-1,23
 777 813 777 813 747 712 c 2,24,-1
 524 18 l 2,25,26
 477 -126 477 -126 403.5 -186 c 128,-1,27
 330 -246 330 -246 235 -246 c 0,0,1
EndSplineSet
EndChar

StartChar: z
Encoding: 122 122 463
Width: 922
VWidth: 2441
GlyphClass: 2
Flags: HW
AnchorPoint: "Anchor-2" 473 0 basechar 0
AnchorPoint: "Anchor-0" 473 1116 basechar 0
LayerCount: 2
Fore
SplineSet
32 117 m 1,0,-1
 637 967 l 1,1,-1
 77 967 l 1,2,-1
 77 1116 l 1,3,-1
 838 1116 l 1,4,-1
 838 999 l 1,5,-1
 244 147 l 1,6,-1
 785 147 l 2,7,8
 826 147 826 147 843 151.5 c 128,-1,9
 860 156 860 156 874 170 c 1,10,-1
 890 170 l 1,11,-1
 890 0 l 1,12,-1
 32 0 l 1,13,-1
 32 117 l 1,0,-1
EndSplineSet
EndChar

StartChar: u.i
Encoding: 65539 -1 468
Width: 852
VWidth: 2441
GlyphClass: 2
Flags: HW
AnchorPoint: "Anchor-3" 706 0 basechar 0
AnchorPoint: "Anchor-2" 396 0 basechar 0
AnchorPoint: "Anchor-1" 781 1116 basechar 0
AnchorPoint: "Anchor-0" 410 1116 basechar 0
LayerCount: 2
Fore
SplineSet
359 -27 m 0,0,1
 212 -27 212 -27 121 92.5 c 0,2,3
 31.9569892473 209.430107527 31.9569892473 209.430107527 31.9569892473 481.946120939 c 0,4,5
 31.9569892473 487.935483871 31.9569892473 487.935483871 32 494 c 2,6,-1
 34 1116 l 1,7,-1
 188 1116 l 1,8,-1
 188 494 l 2,9,10
 188 343 188 343 216 261 c 128,-1,11
 244 179 244 179 292 145.5 c 128,-1,12
 340 112 340 112 398 112 c 0,13,14
 496 112 496 112 571.5 206 c 128,-1,15
 647 300 647 300 647 501 c 2,16,-1
 647 1116 l 1,17,-1
 801 1116 l 1,18,-1
 801 173 l 2,19,20
 801 129 801 129 803.5 86.5 c 128,-1,21
 806 44 806 44 820 0 c 1,22,-1
 671 0 l 1,23,24
 657 42 657 42 653.5 83 c 128,-1,25
 650 124 650 124 650 166 c 1,26,27
 606 75 606 75 530 24 c 128,-1,28
 454 -27 454 -27 359 -27 c 0,0,1
EndSplineSet
EndChar

StartChar: r.serif
Encoding: 65540 -1 469
Width: 922
VWidth: 2441
GlyphClass: 1
Flags: HW
LayerCount: 2
Fore
SplineSet
32 -2 m 1,0,-1
 32 132 l 1,1,-1
 166 132 l 1,2,-1
 166 976 l 1,3,-1
 37 976 l 1,4,-1
 37 1116 l 1,5,-1
 330 1116 l 1,6,-1
 323 906 l 1,7,8
 370 1013 370 1013 454 1076.5 c 128,-1,9
 538 1140 538 1140 641 1140 c 0,10,11
 786 1140 786 1140 890 1020 c 1,12,-1
 818 852 l 1,13,14
 802 857 802 857 790 879 c 128,-1,15
 778 901 778 901 760 926.5 c 128,-1,16
 742 952 742 952 708.5 971.5 c 128,-1,17
 675 991 675 991 609 991 c 0,18,19
 539 991 539 991 473 931 c 128,-1,20
 407 871 407 871 365 773.5 c 128,-1,21
 323 676 323 676 323 561 c 2,22,-1
 323 132 l 1,23,-1
 522 132 l 1,24,-1
 522 -2 l 1,25,-1
 32 -2 l 1,0,-1
EndSplineSet
EndChar

StartChar: ordfeminine
Encoding: 170 170 470
Width: 833
VWidth: 2441
GlyphClass: 1
Flags: HW
LayerCount: 2
Fore
SplineSet
32 515 m 1,0,-1
 801 515 l 1,1,-1
 801 386 l 1,2,-1
 32 386 l 1,3,-1
 32 515 l 1,0,-1
225 886 m 0,4,5
 225 811 225 811 265.5 780.5 c 128,-1,6
 306 750 306 750 365 750 c 0,7,8
 589 750 589 750 603 1055 c 1,9,10
 533 1062 533 1062 474 1062 c 0,11,12
 357 1062 357 1062 291 1020.5 c 128,-1,13
 225 979 225 979 225 886 c 0,4,5
347 629 m 0,14,15
 223 629 223 629 154.5 699 c 128,-1,16
 86 769 86 769 86 874 c 0,17,18
 86 1023 86 1023 193.5 1100 c 128,-1,19
 301 1177 301 1177 467 1177 c 0,20,21
 497 1177 497 1177 531 1175.5 c 128,-1,22
 565 1174 565 1174 601 1169 c 1,23,24
 591 1308 591 1308 542 1359.5 c 128,-1,25
 493 1411 493 1411 396 1411 c 0,26,27
 342 1411 342 1411 294.5 1390.5 c 128,-1,28
 247 1370 247 1370 204 1326 c 1,29,-1
 135 1419 l 1,30,31
 189 1477 189 1477 257 1505 c 128,-1,32
 325 1533 325 1533 406 1533 c 0,33,34
 506 1533 506 1533 579 1498 c 128,-1,35
 652 1463 652 1463 691.5 1372 c 128,-1,36
 731 1281 731 1281 731 1118 c 2,37,-1
 731 652 l 1,38,-1
 586 652 l 1,39,-1
 586 774 l 1,40,41
 544 686 544 686 477 657.5 c 128,-1,42
 410 629 410 629 347 629 c 0,14,15
EndSplineSet
EndChar

StartChar: ordmasculine
Encoding: 186 186 471
Width: 833
VWidth: 2441
GlyphClass: 1
Flags: HW
LayerCount: 2
Fore
SplineSet
32 515 m 1,0,-1
 801 515 l 1,1,-1
 801 386 l 1,2,-1
 32 386 l 1,3,-1
 32 515 l 1,0,-1
416 759 m 128,-1,5
 507 759 507 759 561.5 845.5 c 128,-1,6
 616 932 616 932 616 1086 c 0,7,8
 616 1242 616 1242 560 1326.5 c 128,-1,9
 504 1411 504 1411 416 1411 c 128,-1,10
 328 1411 328 1411 272 1326.5 c 128,-1,11
 216 1242 216 1242 216 1086 c 0,12,13
 216 932 216 932 270.5 845.5 c 128,-1,4
 325 759 325 759 416 759 c 128,-1,5
416 634 m 0,14,15
 267 634 267 634 169 752.5 c 128,-1,16
 71 871 71 871 71 1084 c 0,17,18
 71 1296 71 1296 169 1414.5 c 128,-1,19
 267 1533 267 1533 416 1533 c 0,20,21
 567 1533 567 1533 663.5 1414.5 c 128,-1,22
 760 1296 760 1296 760 1084 c 128,-1,23
 760 872 760 872 663.5 753 c 128,-1,24
 567 634 567 634 416 634 c 0,14,15
EndSplineSet
EndChar

StartChar: uni2124
Encoding: 8484 8484 473
Width: 922
VWidth: 2441
GlyphClass: 1
Flags: HW
LayerCount: 2
Fore
SplineSet
789 1416 m 1,0,-1
 667 1416 l 1,1,-1
 133 103 l 1,2,-1
 260 103 l 1,3,-1
 789 1416 l 1,0,-1
890 1521 m 1,4,-1
 890 1402 l 1,5,-1
 366 103 l 1,6,-1
 787 103 l 2,7,8
 824 103 824 103 840.5 107.5 c 128,-1,9
 857 112 857 112 872 126 c 1,10,-1
 888 126 l 1,11,-1
 888 0 l 1,12,-1
 32 0 l 1,13,-1
 32 119 l 1,14,-1
 565 1416 l 1,15,-1
 36 1416 l 1,16,-1
 36 1521 l 1,17,-1
 890 1521 l 1,4,-1
EndSplineSet
EndChar

StartChar: zero
Encoding: 48 48 474
Width: 916
VWidth: 2441
GlyphClass: 1
Flags: HW
LayerCount: 2
Fore
SplineSet
460 119 m 0,0,1
 582 119 582 119 651.5 280.5 c 128,-1,2
 721 442 721 442 721 752 c 0,3,4
 721 882 721 882 707 988 c 1,5,-1
 248 340 l 1,6,7
 316 119 316 119 460 119 c 0,0,1
199 752 m 0,8,9
 199 598 199 598 216 480 c 1,10,-1
 677 1137 l 1,11,12
 645 1256 645 1256 590 1320 c 128,-1,13
 535 1384 535 1384 460 1384 c 0,14,15
 338 1384 338 1384 268.5 1216 c 128,-1,16
 199 1048 199 1048 199 752 c 0,8,9
460 -27 m 128,-1,18
 255 -27 255 -27 143.5 172 c 128,-1,19
 32 371 32 371 32 752 c 0,20,21
 32 1120 32 1120 143.5 1325.5 c 128,-1,22
 255 1531 255 1531 460 1531 c 128,-1,23
 665 1531 665 1531 774.5 1326 c 128,-1,24
 884 1121 884 1121 884 752 c 0,25,26
 884 372 884 372 774.5 172.5 c 128,-1,17
 665 -27 665 -27 460 -27 c 128,-1,18
EndSplineSet
Substitution2: "'ss02' Style Set 2 in Latin lookup 36 subtable" zero.ss02
Substitution2: "'zero' Slashed Zero in Latin lookup 33 subtable" zero.zero
Substitution2: "'frac' Diagonal Fractions in Latin lookup 24 subtable" zero.numr
Substitution2: "'dnom' Denominators in Latin lookup 22 subtable" zero.dnom
Substitution2: "'numr' Numerators in Latin lookup 21 subtable" zero.numr
Substitution2: "'sups' Superscript in Latin lookup 20 subtable" uni2070
Substitution2: "'subs' Subscript in Latin lookup 19 subtable" uni2080
AlternateSubs2: "'aalt' Access All Alternates in Latin lookup 1 subtable" zero.zero zero.ss02 uni2080 zero.dnom zero.numr uni2070
EndChar

StartChar: one
Encoding: 49 49 475
Width: 537
VWidth: 2441
GlyphClass: 1
Flags: HW
LayerCount: 2
Fore
SplineSet
342 0 m 1,0,-1
 342 1307 l 1,1,-1
 65 1216 l 1,2,-1
 32 1316 l 1,3,-1
 393 1523 l 1,4,-1
 505 1523 l 1,5,-1
 505 0 l 1,6,-1
 342 0 l 1,0,-1
EndSplineSet
Substitution2: "'frac' Diagonal Fractions in Latin lookup 24 subtable" one.numr
Substitution2: "'dnom' Denominators in Latin lookup 22 subtable" one.dnom
Substitution2: "'numr' Numerators in Latin lookup 21 subtable" one.numr
Substitution2: "'sups' Superscript in Latin lookup 20 subtable" uni00B9
Substitution2: "'subs' Subscript in Latin lookup 19 subtable" uni2081
AlternateSubs2: "'aalt' Access All Alternates in Latin lookup 1 subtable" uni2081 one.dnom one.numr uni00B9
EndChar

StartChar: two
Encoding: 50 50 476
Width: 902
VWidth: 2441
GlyphClass: 1
Flags: HW
LayerCount: 2
Fore
SplineSet
67 135 m 1,0,1
 263 359 263 359 404.5 521 c 128,-1,2
 546 683 546 683 621.5 819 c 128,-1,3
 697 955 697 955 700 1101 c 0,4,5
 700 1260 700 1260 633.5 1322 c 128,-1,6
 567 1384 567 1384 472 1384 c 0,7,8
 393 1384 393 1384 326.5 1350 c 128,-1,9
 260 1316 260 1316 206 1240 c 1,10,11
 187 1203 187 1203 181.5 1186 c 128,-1,12
 176 1169 176 1169 181 1150 c 1,13,-1
 174 1135 l 1,14,-1
 152 1148 l 1,15,-1
 32 1233 l 1,16,17
 98 1372 98 1372 211.5 1451.5 c 128,-1,18
 325 1531 325 1531 469 1531 c 0,19,20
 648 1531 648 1531 755.5 1416.5 c 128,-1,21
 863 1302 863 1302 863 1097 c 0,22,23
 863 931 863 931 779 780 c 128,-1,24
 695 629 695 629 559 475.5 c 128,-1,25
 423 322 423 322 272 147 c 1,26,-1
 763 147 l 2,27,28
 805 147 805 147 821.5 151.5 c 128,-1,29
 838 156 838 156 853 170 c 1,30,-1
 870 170 l 1,31,-1
 870 0 l 1,32,-1
 67 0 l 1,33,-1
 67 135 l 1,0,1
EndSplineSet
Substitution2: "'frac' Diagonal Fractions in Latin lookup 24 subtable" two.numr
Substitution2: "'dnom' Denominators in Latin lookup 22 subtable" two.dnom
Substitution2: "'numr' Numerators in Latin lookup 21 subtable" two.numr
Substitution2: "'sups' Superscript in Latin lookup 20 subtable" uni00B2
Substitution2: "'subs' Subscript in Latin lookup 19 subtable" uni2082
AlternateSubs2: "'aalt' Access All Alternates in Latin lookup 1 subtable" uni2082 two.dnom two.numr uni00B2
EndChar

StartChar: three
Encoding: 51 51 477
Width: 857
VWidth: 2441
GlyphClass: 1
Flags: HW
LayerCount: 2
Fore
SplineSet
412 -27 m 0,0,1
 180 -27 180 -27 32 151 c 1,2,-1
 142 273 l 1,3,-1
 158 293 l 1,4,-1
 171 281 l 1,5,6
 173 260 173 260 179.5 241 c 128,-1,7
 186 222 186 222 210 193 c 1,8,9
 249 158 249 158 294.5 137.5 c 128,-1,10
 340 117 340 117 405 117 c 0,11,12
 535 117 535 117 597 202.5 c 128,-1,13
 659 288 659 288 659 424 c 0,14,15
 659 597 659 597 556.5 670 c 128,-1,16
 474.274725275 728.56043956 474.274725275 728.56043956 345.394155295 728.56043956 c 0,0,0
 313.615384615 728.56043956 313.615384615 728.56043956 279 725 c 1,17,-1
 279 859 l 1,18,19
 421 859 421 859 492.5 901 c 128,-1,20
 564 943 564 943 588.5 1012 c 128,-1,21
 613 1081 613 1081 613 1160 c 0,22,23
 613 1267 613 1267 560.5 1326.5 c 128,-1,24
 508 1386 508 1386 423 1386 c 0,25,26
 357 1386 357 1386 296 1359.5 c 128,-1,27
 235 1333 235 1333 179 1272 c 1,28,-1
 76 1365 l 1,29,30
 149 1453 149 1453 238.5 1492 c 128,-1,31
 328 1531 328 1531 423 1531 c 0,32,33
 589 1531 589 1531 684 1428.5 c 128,-1,34
 779 1326 779 1326 779 1153 c 0,35,36
 779 1034 779 1034 727 939.5 c 128,-1,37
 675 845 675 845 564 806 c 1,38,39
 681 764 681 764 753 668.5 c 128,-1,40
 825 573 825 573 825 417 c 0,41,42
 825 293 825 293 778 193 c 128,-1,43
 731 93 731 93 637.5 33 c 128,-1,44
 544 -27 544 -27 412 -27 c 0,0,1
EndSplineSet
Substitution2: "'frac' Diagonal Fractions in Latin lookup 24 subtable" three.numr
Substitution2: "'dnom' Denominators in Latin lookup 22 subtable" three.dnom
Substitution2: "'numr' Numerators in Latin lookup 21 subtable" three.numr
Substitution2: "'sups' Superscript in Latin lookup 20 subtable" uni00B3
Substitution2: "'subs' Subscript in Latin lookup 19 subtable" uni2083
AlternateSubs2: "'aalt' Access All Alternates in Latin lookup 1 subtable" uni2083 three.dnom three.numr uni00B3
EndChar

StartChar: four
Encoding: 52 52 478
Width: 922
VWidth: 2441
GlyphClass: 1
Flags: HW
LayerCount: 2
Fore
SplineSet
203 517 m 1,0,-1
 576 517 l 1,1,-1
 576 1193 l 1,2,-1
 203 517 l 1,0,-1
576 0 m 1,3,-1
 576 376 l 1,4,-1
 32 376 l 1,5,-1
 32 498 l 1,6,-1
 605 1523 l 1,7,-1
 731 1523 l 1,8,-1
 731 515 l 1,9,-1
 890 515 l 1,10,-1
 890 373 l 1,11,-1
 731 373 l 1,12,-1
 731 0 l 1,13,-1
 576 0 l 1,3,-1
EndSplineSet
Substitution2: "'frac' Diagonal Fractions in Latin lookup 24 subtable" four.numr
Substitution2: "'dnom' Denominators in Latin lookup 22 subtable" four.dnom
Substitution2: "'numr' Numerators in Latin lookup 21 subtable" four.numr
Substitution2: "'sups' Superscript in Latin lookup 20 subtable" uni2074
Substitution2: "'subs' Subscript in Latin lookup 19 subtable" uni2084
AlternateSubs2: "'aalt' Access All Alternates in Latin lookup 1 subtable" uni2084 four.dnom four.numr uni2074
EndChar

StartChar: five
Encoding: 53 53 479
Width: 903
VWidth: 2441
GlyphClass: 1
Flags: HW
LayerCount: 2
Fore
SplineSet
440 -27 m 0,0,1
 316 -27 316 -27 207 32 c 128,-1,2
 98 91 98 91 32 203 c 1,3,-1
 156 298 l 1,4,-1
 176 312 l 1,5,-1
 186 300 l 1,6,7
 186 281 186 281 192 264 c 128,-1,8
 198 247 198 247 222 215 c 0,9,10
 264 166 264 166 317.5 142.5 c 128,-1,11
 371 119 371 119 447 119 c 0,12,13
 552 119 552 119 630 215.5 c 128,-1,14
 708 312 708 312 708 486 c 0,15,16
 708 659 708 659 628.5 754.5 c 128,-1,17
 549 850 549 850 435 850 c 0,18,19
 286 850 286 850 181 708 c 1,20,-1
 81 747 l 1,21,-1
 125 1521 l 1,22,-1
 820 1521 l 1,23,-1
 820 1370 l 1,24,-1
 263 1370 l 1,25,-1
 242 930 l 1,26,27
 352 986 352 986 464 986 c 0,28,29
 643 986 643 986 757 852 c 128,-1,30
 871 718 871 718 871 478 c 128,-1,31
 871 238 871 238 749.5 105.5 c 128,-1,32
 628 -27 628 -27 440 -27 c 0,0,1
EndSplineSet
Substitution2: "'frac' Diagonal Fractions in Latin lookup 24 subtable" five.numr
Substitution2: "'dnom' Denominators in Latin lookup 22 subtable" five.dnom
Substitution2: "'numr' Numerators in Latin lookup 21 subtable" five.numr
Substitution2: "'sups' Superscript in Latin lookup 20 subtable" uni2075
Substitution2: "'subs' Subscript in Latin lookup 19 subtable" uni2085
AlternateSubs2: "'aalt' Access All Alternates in Latin lookup 1 subtable" uni2085 five.dnom five.numr uni2075
EndChar

StartChar: six
Encoding: 54 54 480
Width: 882
VWidth: 2441
GlyphClass: 1
Flags: HW
LayerCount: 2
Fore
SplineSet
466 124 m 0
 558 124 558 124 626 216 c 0
 694 308 694 308 694 480 c 0
 694 664 694 664 620 748 c 0
 546 832 546 832 461 832 c 0
 382 832 382 832 313 775 c 0
 244 718 244 718 200 632 c 1
 196 596.8 196 596.8 196 561.44 c 0,0,0
 196 508.4 196 508.4 205 455 c 0
 220 366 220 366 256 292 c 0
 292 218 292 218 344 170 c 0
 398 124 398 124 466 124 c 0
459 -24 m 0
 254 -24 254 -24 143 165 c 0
 32 354 32 354 32 694 c 0
 32 1110 32 1110 162 1324 c 0
 292 1538 292 1538 515 1538 c 0
 694 1538 694 1538 818 1400 c 1
 720 1277 l 1
 706 1258 l 1
 694 1270 l 1
 692 1289 692 1289 684 1306 c 0
 678 1323 678 1323 650 1351 c 1
 600.275 1389.025 600.275 1389.025 523.9325 1389.025 c 0,0,0
 521.975 1389.025 521.975 1389.025 520 1389 c 0
 476 1389 476 1389 421 1367 c 0
 366 1345 366 1345 314 1284 c 0
 262 1223 262 1223 229 1110 c 0
 195 997 195 997 193 815 c 1
 239 894 239 894 315 938 c 0
 389.311111111 981.022222222 389.311111111 981.022222222 475.094814815 981.022222222 c 0,0,0
 477.044444444 981.022222222 477.044444444 981.022222222 479 981 c 0
 582 981 582 981 666 919 c 0
 750 858 750 858 800 746 c 0
 850 634 850 634 850 484 c 0
 850 333 850 333 798 218 c 0
 746 104 746 104 659 40 c 0
 571 -24 571 -24 459 -24 c 0
EndSplineSet
Substitution2: "'frac' Diagonal Fractions in Latin lookup 24 subtable" six.numr
Substitution2: "'dnom' Denominators in Latin lookup 22 subtable" six.dnom
Substitution2: "'numr' Numerators in Latin lookup 21 subtable" six.numr
Substitution2: "'sups' Superscript in Latin lookup 20 subtable" uni2076
Substitution2: "'subs' Subscript in Latin lookup 19 subtable" uni2086
AlternateSubs2: "'aalt' Access All Alternates in Latin lookup 1 subtable" uni2086 six.dnom six.numr uni2076
EndChar

StartChar: seven
Encoding: 55 55 481
Width: 841
VWidth: 2441
GlyphClass: 1
Flags: HW
LayerCount: 2
Fore
SplineSet
197 0 m 1,0,1
 292 349 292 349 392.5 688.5 c 128,-1,2
 493 1028 493 1028 611 1365 c 1,3,-1
 32 1365 l 1,4,-1
 32 1521 l 1,5,-1
 809 1521 l 1,6,-1
 809 1428 l 1,7,8
 685 1076 685 1076 576 721 c 128,-1,9
 467 366 467 366 377 0 c 1,10,-1
 197 0 l 1,0,1
EndSplineSet
Substitution2: "'frac' Diagonal Fractions in Latin lookup 24 subtable" seven.numr
Substitution2: "'dnom' Denominators in Latin lookup 22 subtable" seven.dnom
Substitution2: "'numr' Numerators in Latin lookup 21 subtable" seven.numr
Substitution2: "'sups' Superscript in Latin lookup 20 subtable" uni2077
Substitution2: "'subs' Subscript in Latin lookup 19 subtable" uni2087
AlternateSubs2: "'aalt' Access All Alternates in Latin lookup 1 subtable" uni2087 seven.dnom seven.numr uni2077
EndChar

StartChar: eight
Encoding: 56 56 482
Width: 901
VWidth: 2441
GlyphClass: 1
Flags: HW
LayerCount: 2
Fore
SplineSet
454 124 m 0,0,1
 576 124 576 124 641 202.5 c 128,-1,2
 706 281 706 281 706 393 c 0,3,4
 706 507 706 507 630 599 c 128,-1,5
 554 691 554 691 424 740 c 1,6,7
 324 694 324 694 261 604.5 c 128,-1,8
 198 515 198 515 198 401 c 0,9,10
 198 289 198 289 266.5 206.5 c 128,-1,11
 335 124 335 124 454 124 c 0,0,1
486 879 m 1,12,13
 567 928 567 928 616.5 1008 c 128,-1,14
 666 1088 666 1088 666 1174 c 0,15,16
 666 1265 666 1265 613.5 1332.5 c 128,-1,17
 561 1400 561 1400 456 1400 c 128,-1,18
 351 1400 351 1400 301 1333.5 c 128,-1,19
 251 1267 251 1267 251 1181 c 0,20,21
 251 1069 251 1069 317 1004.5 c 128,-1,22
 383 940 383 940 486 879 c 1,12,13
449 -24 m 0,23,24
 319 -24 319 -24 225.5 29.5 c 128,-1,25
 132 83 132 83 82 175.5 c 128,-1,26
 32 268 32 268 32 384 c 0,27,28
 32 521 32 521 104.5 634 c 128,-1,29
 177 747 177 747 305 811 c 1,30,31
 210 865 210 865 154 960 c 128,-1,32
 98 1055 98 1055 98 1165 c 0,33,34
 98 1324 98 1324 188 1432 c 128,-1,35
 278 1540 278 1540 461 1540 c 0,36,37
 649 1540 649 1540 735.5 1435 c 128,-1,38
 822 1330 822 1330 822 1179 c 0,39,40
 822 1069 822 1069 765 970 c 128,-1,41
 708 871 708 871 608 813 c 1,42,43
 727 752 727 752 798 640.5 c 128,-1,44
 869 529 869 529 869 393 c 0,45,46
 869 212 869 212 755.5 94 c 128,-1,47
 642 -24 642 -24 449 -24 c 0,23,24
EndSplineSet
Substitution2: "'frac' Diagonal Fractions in Latin lookup 24 subtable" eight.numr
Substitution2: "'dnom' Denominators in Latin lookup 22 subtable" eight.dnom
Substitution2: "'numr' Numerators in Latin lookup 21 subtable" eight.numr
Substitution2: "'sups' Superscript in Latin lookup 20 subtable" uni2078
Substitution2: "'subs' Subscript in Latin lookup 19 subtable" uni2088
AlternateSubs2: "'aalt' Access All Alternates in Latin lookup 1 subtable" uni2088 eight.dnom eight.numr uni2078
EndChar

StartChar: nine
Encoding: 57 57 483
Width: 879
VWidth: 2441
GlyphClass: 1
Flags: HW
LayerCount: 2
Fore
SplineSet
188 1037 m 0,0,1
 188 893 188 893 261.5 807.5 c 128,-1,2
 335 722 335 722 433 722 c 0,3,4
 524 722 524 722 584.5 750 c 128,-1,5
 645 778 645 778 694 843 c 1,6,7
 687 1121 687 1121 624 1252.5 c 128,-1,8
 561 1384 561 1384 433 1384 c 0,9,10
 326 1384 326 1384 257 1294.5 c 128,-1,11
 188 1205 188 1205 188 1037 c 0,0,1
384 -24 m 1,12,13
 184 -24 184 -24 56 112 c 1,14,-1
 149 230 l 1,15,-1
 167 252 l 1,16,-1
 179 240 l 1,17,18
 181 221 181 221 189.5 203.5 c 128,-1,19
 198 186 198 186 228 156 c 1,20,21
 286 119 286 119 372 119 c 0,22,23
 477 119 477 119 543.5 198.5 c 128,-1,24
 610 278 610 278 646 406.5 c 128,-1,25
 682 535 682 535 691 678 c 1,26,27
 640 632 640 632 577.5 605 c 128,-1,28
 515 578 515 578 430 578 c 0,29,30
 318 578 318 578 227.5 636 c 128,-1,31
 137 694 137 694 84.5 797.5 c 128,-1,32
 32 901 32 901 32 1035 c 0,33,34
 32 1184 32 1184 85.5 1295.5 c 128,-1,35
 139 1407 139 1407 228.5 1469 c 128,-1,36
 318 1531 318 1531 425 1531 c 0,37,38
 623 1531 623 1531 735 1355 c 128,-1,39
 847 1179 847 1179 847 886 c 0,40,41
 847 420 847 420 726.5 200.5 c 128,-1,42
 606 -19 606 -19 384 -24 c 1,12,13
EndSplineSet
Substitution2: "'frac' Diagonal Fractions in Latin lookup 24 subtable" nine.numr
Substitution2: "'dnom' Denominators in Latin lookup 22 subtable" nine.dnom
Substitution2: "'numr' Numerators in Latin lookup 21 subtable" nine.numr
Substitution2: "'sups' Superscript in Latin lookup 20 subtable" uni2079
Substitution2: "'subs' Subscript in Latin lookup 19 subtable" uni2089
AlternateSubs2: "'aalt' Access All Alternates in Latin lookup 1 subtable" uni2089 nine.dnom nine.numr uni2079
EndChar

StartChar: zero.zero
Encoding: 65541 -1 484
Width: 916
VWidth: 2441
GlyphClass: 1
Flags: HW
LayerCount: 2
Fore
SplineSet
460 634 m 0,0,1
 404 634 404 634 367 672 c 128,-1,2
 330 710 330 710 330 764 c 128,-1,3
 330 818 330 818 369.5 856 c 128,-1,4
 409 894 409 894 460 894 c 0,5,6
 509 894 509 894 550 856 c 128,-1,7
 591 818 591 818 591 764 c 0,8,9
 591 713 591 713 552.5 673.5 c 128,-1,10
 514 634 514 634 460 634 c 0,0,1
460 119 m 128,-1,12
 582 119 582 119 651.5 280.5 c 128,-1,13
 721 442 721 442 721 752 c 0,14,15
 721 1048 721 1048 651.5 1216 c 128,-1,16
 582 1384 582 1384 460 1384 c 128,-1,17
 338 1384 338 1384 268.5 1216 c 128,-1,18
 199 1048 199 1048 199 752 c 0,19,20
 199 442 199 442 268.5 280.5 c 128,-1,11
 338 119 338 119 460 119 c 128,-1,12
460 -27 m 128,-1,22
 255 -27 255 -27 143.5 172 c 128,-1,23
 32 371 32 371 32 752 c 0,24,25
 32 1120 32 1120 143.5 1325.5 c 128,-1,26
 255 1531 255 1531 460 1531 c 128,-1,27
 665 1531 665 1531 774.5 1326 c 128,-1,28
 884 1121 884 1121 884 752 c 0,29,30
 884 372 884 372 774.5 172.5 c 128,-1,21
 665 -27 665 -27 460 -27 c 128,-1,22
EndSplineSet
EndChar

StartChar: zero.ss02
Encoding: 65542 -1 485
Width: 916
VWidth: 2441
GlyphClass: 1
Flags: HW
LayerCount: 2
Fore
SplineSet
460 119 m 128,-1,1
 582 119 582 119 651.5 280.5 c 128,-1,2
 721 442 721 442 721 752 c 0,3,4
 721 1048 721 1048 651.5 1216 c 128,-1,5
 582 1384 582 1384 460 1384 c 128,-1,6
 338 1384 338 1384 268.5 1216 c 128,-1,7
 199 1048 199 1048 199 752 c 0,8,9
 199 442 199 442 268.5 280.5 c 128,-1,0
 338 119 338 119 460 119 c 128,-1,1
460 -27 m 128,-1,11
 255 -27 255 -27 143.5 172 c 128,-1,12
 32 371 32 371 32 752 c 0,13,14
 32 1120 32 1120 143.5 1325.5 c 128,-1,15
 255 1531 255 1531 460 1531 c 128,-1,16
 665 1531 665 1531 774.5 1326 c 128,-1,17
 884 1121 884 1121 884 752 c 0,18,19
 884 372 884 372 774.5 172.5 c 128,-1,10
 665 -27 665 -27 460 -27 c 128,-1,11
EndSplineSet
EndChar

StartChar: uni2070
Encoding: 8304 8304 516
Width: 665
VWidth: 2441
GlyphClass: 1
Flags: HW
LayerCount: 2
Fore
SplineSet
332 691 m 0,0,1
 415 691 415 691 461.5 787 c 128,-1,2
 508 883 508 883 508 1067 c 0,3,4
 508 1140 508 1140 500 1204 c 1,5,-1
 191 818 l 1,6,7
 234 691 234 691 332 691 c 0,0,1
156 1067 m 0,8,9
 156 981 156 981 167 916 c 1,10,-1
 477 1307 l 1,11,12
 431.661870504 1442.02877698 431.661870504 1442.02877698 334.837948346 1442.02877698 c 0,13,14
 333.424460432 1442.02877698 333.424460432 1442.02877698 332 1442 c 0,15,16
 249 1442 249 1442 202.5 1342 c 128,-1,17
 156 1242 156 1242 156 1067 c 0,8,9
332 583 m 128,-1,19
 190 583 190 583 111 706.5 c 128,-1,20
 32 830 32 830 32 1067 c 0,21,22
 32 1297 32 1297 111.5 1425 c 128,-1,23
 191 1553 191 1553 332 1553 c 0,24,25
 474 1553 474 1553 553.5 1424.5 c 128,-1,26
 633 1296 633 1296 633 1067 c 0,27,28
 633 830 633 830 553.5 706.5 c 128,-1,18
 474 583 474 583 332 583 c 128,-1,19
EndSplineSet
Substitution2: "'ss02' Style Set 2 in Latin lookup 36 subtable" uni2070.ss02
Substitution2: "'zero' Slashed Zero in Latin lookup 33 subtable" uni2070.zero
AlternateSubs2: "'aalt' Access All Alternates in Latin lookup 1 subtable" uni2070.ss02 uni2070.zero
EndChar

StartChar: uni00B9
Encoding: 185 185 517
Width: 400
VWidth: 2441
GlyphClass: 1
Flags: HW
LayerCount: 2
Fore
SplineSet
242 601 m 1,0,-1
 242 1389 l 1,1,-1
 61 1333 l 1,2,-1
 32 1414 l 1,3,-1
 276 1545 l 1,4,-1
 368 1545 l 1,5,-1
 368 601 l 1,6,-1
 242 601 l 1,0,-1
EndSplineSet
EndChar

StartChar: uni00B2
Encoding: 178 178 518
Width: 649
VWidth: 2441
GlyphClass: 1
Flags: HW
LayerCount: 2
Fore
SplineSet
56 699 m 1,0,1
 193 838 193 838 289.5 935 c 128,-1,2
 386 1032 386 1032 436 1112.5 c 128,-1,3
 486 1193 486 1193 489 1281 c 0,4,5
 489 1367 489 1367 446 1403.5 c 128,-1,6
 403 1440 403 1440 340 1440 c 0,7,8
 249 1440 249 1440 188 1389 c 1,9,10
 164 1357 164 1357 157.5 1340 c 128,-1,11
 151 1323 151 1323 154 1302 c 1,12,-1
 144 1289 l 1,13,-1
 125 1304 l 1,14,-1
 32 1370 l 1,15,16
 81 1456 81 1456 159 1504.5 c 128,-1,17
 237 1553 237 1553 340 1553 c 0,18,19
 459 1553 459 1553 536 1481 c 128,-1,20
 613 1409 613 1409 613 1281 c 0,21,22
 613 1178 613 1178 561.5 1091 c 128,-1,23
 510 1004 510 1004 423.5 912 c 128,-1,24
 337 820 337 820 232 710 c 1,25,-1
 510 710 l 2,26,27
 552 710 552 710 569 715 c 128,-1,28
 586 720 586 720 601 734 c 1,29,-1
 617 734 l 1,30,-1
 617 601 l 1,31,-1
 56 601 l 1,32,-1
 56 699 l 1,0,1
EndSplineSet
EndChar

StartChar: uni00B3
Encoding: 179 179 519
Width: 623
VWidth: 2441
GlyphClass: 1
Flags: HW
LayerCount: 2
Fore
SplineSet
300 583 m 0,0,1
 219 583 219 583 150 613 c 128,-1,2
 81 643 81 643 32 696 c 1,3,-1
 111 783 l 1,4,-1
 127 803 l 1,5,-1
 139 792 l 1,6,7
 139 773 139 773 150.5 756.5 c 128,-1,8
 162 740 162 740 191 713 c 1,9,10
 212 703 212 703 238 697 c 128,-1,11
 264 691 264 691 295 691 c 0,12,13
 376 691 376 691 420.5 738.5 c 128,-1,14
 465 786 465 786 465 867 c 0,15,16
 465 970 465 970 395 1010 c 0,17,18
 340.098039216 1041.37254902 340.098039216 1041.37254902 255.053825452 1041.37254902 c 0,19,20
 231.666666667 1041.37254902 231.666666667 1041.37254902 206 1039 c 1,21,-1
 206 1142 l 1,22,23
 211.245283019 1141.9245283 211.245283019 1141.9245283 216.356710573 1141.9245283 c 0,24,25
 346.698113208 1141.9245283 346.698113208 1141.9245283 390 1191 c 0,26,27
 435 1242 435 1242 435 1314 c 0,28,29
 435 1375 435 1375 397.5 1408.5 c 128,-1,30
 360 1442 360 1442 304 1442 c 0,31,32
 260 1442 260 1442 218 1426.5 c 128,-1,33
 176 1411 176 1411 139 1372 c 1,34,-1
 59 1445 l 1,35,36
 110 1501 110 1501 174.5 1527 c 128,-1,37
 239 1553 239 1553 306 1553 c 0,38,39
 423 1553 423 1553 492.5 1488 c 128,-1,40
 562 1423 562 1423 562 1316 c 0,41,42
 562 1241 562 1241 525.5 1183 c 128,-1,43
 489 1125 489 1125 421 1101 c 1,44,45
 494 1077 494 1077 542.5 1018.5 c 128,-1,46
 591 960 591 960 591 862 c 0,47,48
 591 743 591 743 515 663 c 128,-1,49
 439 583 439 583 300 583 c 0,0,1
EndSplineSet
EndChar

StartChar: uni2074
Encoding: 8308 8308 520
Width: 705
VWidth: 2441
GlyphClass: 1
Flags: HW
LayerCount: 2
Fore
SplineSet
174 935 m 1,0,-1
 428 935 l 1,1,-1
 428 1314 l 1,2,-1
 174 935 l 1,0,-1
425 601 m 1,3,-1
 425 827 l 1,4,-1
 32 827 l 1,5,-1
 32 918 l 1,6,-1
 454 1545 l 1,7,-1
 554 1545 l 1,8,-1
 554 935 l 1,9,-1
 673 935 l 1,10,-1
 673 825 l 1,11,-1
 554 825 l 1,12,-1
 554 601 l 1,13,-1
 425 601 l 1,3,-1
EndSplineSet
EndChar

StartChar: uni2075
Encoding: 8309 8309 521
Width: 651
VWidth: 2441
GlyphClass: 1
Flags: HW
LayerCount: 2
Fore
SplineSet
318 583 m 0,0,1
 230 583 230 583 154 620 c 128,-1,2
 78 657 78 657 32 727 c 1,3,-1
 125 801 l 1,4,-1
 144 815 l 1,5,-1
 155 801 l 1,6,7
 153 782 153 782 163.5 767 c 128,-1,8
 174 752 174 752 204 722 c 1,9,10
 247.125 693.875 247.125 693.875 311.34375 693.875 c 0,11,12
 315.625 693.875 315.625 693.875 320 694 c 0,13,14
 390 694 390 694 441.5 748.5 c 128,-1,15
 493 803 493 803 493 901 c 0,16,17
 493 1004 493 1004 440.5 1057.5 c 128,-1,18
 388 1111 388 1111 313 1111 c 0,19,20
 213 1111 213 1111 146 1030 c 1,21,-1
 67 1057 l 1,22,-1
 98 1543 l 1,23,-1
 582 1543 l 1,24,-1
 582 1433 l 1,25,-1
 208 1433 l 1,26,-1
 193 1181 l 1,27,28
 259 1218 259 1218 342 1218 c 0,29,30
 464 1218 464 1218 541.5 1135.5 c 128,-1,31
 619 1053 619 1053 619 904 c 0,32,33
 619 753 619 753 534.5 668 c 128,-1,34
 450 583 450 583 318 583 c 0,0,1
EndSplineSet
EndChar

StartChar: uni2076
Encoding: 8310 8310 522
Width: 636
VWidth: 2441
GlyphClass: 1
Flags: HW
LayerCount: 2
Fore
SplineSet
332 696 m 0,0,1
 393 696 393 696 437 749.5 c 128,-1,2
 481 803 481 803 481 904 c 0,3,4
 481 1009 481 1009 432.5 1056.5 c 128,-1,5
 384 1104 384 1104 330 1104 c 0,6,7
 281 1104 281 1104 234.5 1071.5 c 128,-1,8
 188 1039 188 1039 160 991 c 1,9,10
 158.958333333 975.375 158.958333333 975.375 158.958333333 960.075520833 c 0,11,12
 158.958333333 901.9375 158.958333333 901.9375 174 848.5 c 0,13,14
 193 781 193 781 234.5 738.5 c 128,-1,15
 276 696 276 696 332 696 c 0,0,1
328 587 m 0,16,17
 186 587 186 587 109 705 c 128,-1,18
 32 823 32 823 32 1030 c 0,19,20
 32 1286 32 1286 124 1421 c 128,-1,21
 216 1556 216 1556 369 1556 c 0,22,23
 495 1556 495 1556 584 1467 c 1,24,-1
 514 1379 l 1,25,-1
 496 1363 l 1,26,-1
 484 1372 l 1,27,28
 482 1391 482 1391 471 1403.5 c 128,-1,29
 460 1416 460 1416 428 1435 c 1,30,31
 401 1442 401 1442 374 1442 c 0,32,33
 335 1442 335 1442 285 1419 c 128,-1,34
 235 1396 235 1396 198.5 1327 c 128,-1,35
 162 1258 162 1258 157 1121 c 1,36,37
 189 1165 189 1165 240 1189.5 c 128,-1,38
 291 1214 291 1214 347 1214 c 0,39,40
 454 1214 454 1214 529 1132 c 128,-1,41
 604 1050 604 1050 604 906 c 0,42,43
 604 764 604 764 525.5 675.5 c 128,-1,44
 447 587 447 587 328 587 c 0,16,17
EndSplineSet
EndChar

StartChar: uni2077
Encoding: 8311 8311 523
Width: 605
VWidth: 2441
GlyphClass: 1
Flags: HW
LayerCount: 2
Fore
SplineSet
139 601 m 1,0,1
 205 813 205 813 274.5 1018 c 128,-1,2
 344 1223 344 1223 422 1428 c 1,3,-1
 32 1428 l 1,4,-1
 32 1543 l 1,5,-1
 573 1543 l 1,6,-1
 573 1472 l 1,7,8
 487 1257 487 1257 413.5 1041 c 128,-1,9
 340 825 340 825 275 601 c 1,10,-1
 139 601 l 1,0,1
EndSplineSet
EndChar

StartChar: uni2078
Encoding: 8312 8312 524
Width: 653
VWidth: 2441
GlyphClass: 1
Flags: HW
LayerCount: 2
Fore
SplineSet
328 699 m 0,0,1
 409 699 409 699 451 740 c 128,-1,2
 493 781 493 781 493 850 c 0,3,4
 493 918 493 918 442 969 c 128,-1,5
 391 1020 391 1020 305 1050 c 1,6,7
 242 1020 242 1020 201 970 c 128,-1,8
 160 920 160 920 160 855 c 0,9,10
 160 787 160 787 206.5 743 c 128,-1,11
 253 699 253 699 328 699 c 0,0,1
349 1148 m 1,12,13
 400 1180 400 1180 433.5 1226 c 128,-1,14
 467 1272 467 1272 467 1323 c 128,-1,15
 467 1374 467 1374 431.5 1410.5 c 128,-1,16
 396 1447 396 1447 330 1447 c 128,-1,17
 264 1447 264 1447 229.5 1412 c 128,-1,18
 195 1377 195 1377 195 1328 c 0,19,20
 195 1260 195 1260 240.5 1221.5 c 128,-1,21
 286 1183 286 1183 349 1148 c 1,12,13
325 587 m 0,22,23
 190 587 190 587 111 658.5 c 128,-1,24
 32 730 32 730 32 840 c 0,25,26
 32 928 32 928 81 996.5 c 128,-1,27
 130 1065 130 1065 213 1106 c 1,28,29
 150 1138 150 1138 113 1195.5 c 128,-1,30
 76 1253 76 1253 76 1318 c 0,31,32
 76 1421 76 1421 141.5 1489.5 c 128,-1,33
 207 1558 207 1558 335 1558 c 0,34,35
 461 1558 461 1558 525 1492 c 128,-1,36
 589 1426 589 1426 589 1328 c 0,37,38
 589 1258 589 1258 552.5 1197.5 c 128,-1,39
 516 1137 516 1137 452 1101 c 1,40,41
 531 1064 531 1064 576 997 c 128,-1,42
 621 930 621 930 621 848 c 0,43,44
 621 734 621 734 541.5 660.5 c 128,-1,45
 462 587 462 587 325 587 c 0,22,23
EndSplineSet
EndChar

StartChar: uni2079
Encoding: 8313 8313 525
Width: 635
VWidth: 2441
GlyphClass: 1
Flags: HW
LayerCount: 2
Fore
SplineSet
155 1237 m 0,0,1
 155 1154 155 1154 202.5 1105.5 c 128,-1,2
 250 1057 250 1057 316 1057 c 0,3,4
 426 1057 426 1057 484 1128 c 1,5,6
 479 1294 479 1294 437.5 1368 c 128,-1,7
 396 1442 396 1442 313 1442 c 0,8,9
 243 1442 243 1442 199 1391 c 128,-1,10
 155 1340 155 1340 155 1237 c 0,0,1
281 587 m 0,11,12
 211 587 211 587 150.5 607 c 128,-1,13
 90 627 90 627 44 671 c 1,14,-1
 115 762 l 1,15,-1
 132 781 l 1,16,-1
 144 771 l 1,17,18
 146 752 146 752 158.5 738.5 c 128,-1,19
 171 725 171 725 206 703 c 1,20,21
 235.090909091 693.909090909 235.090909091 693.909090909 265.834710744 693.909090909 c 0,22,23
 268.909090909 693.909090909 268.909090909 693.909090909 272 694 c 0,24,25
 370 694 370 694 421 786.5 c 128,-1,26
 472 879 472 879 481 1009 c 1,27,28
 446 982 446 982 405.5 966 c 128,-1,29
 365 950 365 950 311 950 c 0,30,31
 192 950 192 950 112 1029.5 c 128,-1,32
 32 1109 32 1109 32 1240 c 0,33,34
 32 1379 32 1379 113.5 1466 c 128,-1,35
 195 1553 195 1553 313 1553 c 0,36,37
 455 1553 455 1553 529 1443 c 128,-1,38
 603 1333 603 1333 603 1142 c 0,39,40
 603 858 603 858 519 723.5 c 128,-1,41
 435 589 435 589 281 587 c 0,11,12
EndSplineSet
EndChar

StartChar: fraction
Encoding: 8260 8260 526
Width: 863
VWidth: 2441
GlyphClass: 1
Flags: HW
LayerCount: 2
Fore
SplineSet
139 -103 m 1,0,-1
 32 -44 l 1,1,-1
 723 1624 l 1,2,-1
 831 1563 l 1,3,-1
 139 -103 l 1,0,-1
EndSplineSet
EndChar

StartChar: onehalf
Encoding: 189 189 527
Width: 907
VWidth: 2441
GlyphClass: 1
Flags: HW
LayerCount: 2
Fore
SplineSet
506 -170 m 1,0,-1
 506 -86 l 1,1,2
 598 26 598 26 660 102.5 c 128,-1,3
 722 179 722 179 754.5 239.5 c 128,-1,4
 787 300 787 300 789 368 c 0,5,6
 789 429 789 429 763 456.5 c 128,-1,7
 737 484 737 484 694 484 c 128,-1,8
 651 484 651 484 616 460.5 c 128,-1,9
 581 437 581 437 557 380 c 1,10,-1
 492 437 l 1,11,12
 523 505 523 505 574.5 544 c 128,-1,13
 626 583 626 583 694 583 c 0,14,15
 776 583 776 583 828.5 525.5 c 128,-1,16
 881 468 881 468 881 368 c 0,17,18
 881 287 881 287 848 219 c 128,-1,19
 815 151 815 151 760.5 81.5 c 128,-1,20
 706 12 706 12 636 -73 c 1,21,-1
 883 -73 l 1,22,-1
 883 -170 l 1,23,-1
 506 -170 l 1,0,-1
218 -103 m 1,24,-1
 129 -44 l 1,25,-1
 706 1624 l 1,26,-1
 795 1563 l 1,27,-1
 218 -103 l 1,24,-1
161 927 m 1,28,-1
 161 1543 l 1,29,-1
 45 1494 l 1,30,-1
 25 1570 l 1,31,-1
 186 1675 l 1,32,-1
 257 1675 l 1,33,-1
 257 927 l 1,34,-1
 161 927 l 1,28,-1
EndSplineSet
EndChar

StartChar: onequarter
Encoding: 188 188 528
Width: 887
VWidth: 2441
GlyphClass: 1
Flags: HW
LayerCount: 2
Fore
SplineSet
551 100 m 1,0,-1
 704 100 l 1,1,-1
 704 376 l 1,2,-1
 551 100 l 1,0,-1
702 -170 m 1,3,-1
 702 7 l 1,4,-1
 450 7 l 1,5,-1
 450 86 l 1,6,-1
 722 576 l 1,7,-1
 794 576 l 1,8,-1
 794 100 l 1,9,-1
 873 100 l 1,10,-1
 873 5 l 1,11,-1
 794 5 l 1,12,-1
 794 -170 l 1,13,-1
 702 -170 l 1,3,-1
206 -103 m 1,14,-1
 117 -44 l 1,15,-1
 688 1624 l 1,16,-1
 777 1563 l 1,17,-1
 206 -103 l 1,14,-1
150 927 m 1,18,-1
 150 1543 l 1,19,-1
 35 1494 l 1,20,-1
 15 1570 l 1,21,-1
 174 1675 l 1,22,-1
 244 1675 l 1,23,-1
 244 927 l 1,24,-1
 150 927 l 1,18,-1
EndSplineSet
EndChar

StartChar: threequarters
Encoding: 190 190 529
Width: 862
VWidth: 2441
GlyphClass: 1
Flags: HW
LayerCount: 2
Fore
SplineSet
683 100 m 1,0,-1
 683 376 l 1,1,-1
 535 100 l 1,2,-1
 683 100 l 1,0,-1
682 7 m 1,3,-1
 437 7 l 1,4,-1
 437 86 l 1,5,-1
 702 576 l 1,6,-1
 771 576 l 1,7,-1
 771 100 l 1,8,-1
 848 100 l 1,9,-1
 848 5 l 1,10,-1
 771 5 l 1,11,-1
 771 -170 l 1,12,-1
 682 -170 l 1,13,-1
 682 7 l 1,3,-1
199 -103 m 1,14,-1
 113 -44 l 1,15,-1
 668 1624 l 1,16,-1
 754 1563 l 1,17,-1
 199 -103 l 1,14,-1
164 913 m 0,18,19
 111 913 111 913 66.5 936.5 c 128,-1,20
 22 960 22 960 -10 1004 c 1,21,-1
 43 1081 l 1,22,-1
 57 1101 l 1,23,-1
 65 1091 l 1,24,25
 65 1072 65 1072 73.5 1058.5 c 128,-1,26
 82 1045 82 1045 104 1023 c 1,27,28
 126 1009 126 1009 160 1009 c 0,29,30
 209 1009 209 1009 236 1042.5 c 128,-1,31
 263 1076 263 1076 263 1137 c 0,32,33
 263 1218 263 1218 220.5 1248.5 c 128,-1,34
 187.683544304 1272.05063291 187.683544304 1272.05063291 134.893767025 1272.05063291 c 0,0,0
 119.316455696 1272.05063291 119.316455696 1272.05063291 102 1270 c 1,35,-1
 102 1360 l 1,36,37
 106.455696203 1359.89873418 106.455696203 1359.89873418 110.757570902 1359.89873418 c 0,0,0
 191.417721519 1359.89873418 191.417721519 1359.89873418 218 1395.5 c 128,-1,38
 246 1433 246 1433 246 1484 c 0,39,40
 246 1533 246 1533 222.5 1558.5 c 128,-1,41
 199 1584 199 1584 164 1584 c 0,42,43
 136 1584 136 1584 110 1572 c 128,-1,44
 84 1560 84 1560 61 1528 c 1,45,-1
 6 1594 l 1,46,47
 39 1640 39 1640 81 1661 c 128,-1,48
 123 1682 123 1682 167 1682 c 0,49,50
 244 1682 244 1682 289.5 1629.5 c 128,-1,51
 335 1577 335 1577 335 1491 c 0,52,53
 335 1430 335 1430 310.5 1386 c 128,-1,54
 286 1342 286 1342 246 1323 c 1,55,56
 289 1304 289 1304 321 1259 c 128,-1,57
 353 1214 353 1214 353 1132 c 0,58,59
 353 1037 353 1037 303.5 975 c 128,-1,60
 254 913 254 913 164 913 c 0,18,19
EndSplineSet
EndChar

StartChar: uni2070.ss02
Encoding: 65566 -1 533
Width: 665
VWidth: 2441
GlyphClass: 1
Flags: HW
LayerCount: 2
Fore
SplineSet
332 691 m 128,-1,1
 415 691 415 691 461.5 787 c 128,-1,2
 508 883 508 883 508 1067 c 0,3,4
 508 1242 508 1242 461.5 1342 c 128,-1,5
 415 1442 415 1442 332 1442 c 128,-1,6
 249 1442 249 1442 202.5 1342 c 128,-1,7
 156 1242 156 1242 156 1067 c 0,8,9
 156 883 156 883 202.5 787 c 128,-1,0
 249 691 249 691 332 691 c 128,-1,1
332 583 m 128,-1,11
 190 583 190 583 111 706.5 c 128,-1,12
 32 830 32 830 32 1067 c 0,13,14
 32 1297 32 1297 111.5 1425 c 128,-1,15
 191 1553 191 1553 332 1553 c 0,16,17
 474 1553 474 1553 553.5 1424.5 c 128,-1,18
 633 1296 633 1296 633 1067 c 0,19,20
 633 830 633 830 553.5 706.5 c 128,-1,10
 474 583 474 583 332 583 c 128,-1,11
EndSplineSet
EndChar

StartChar: uni2070.zero
Encoding: 65570 -1 537
Width: 665
VWidth: 2441
GlyphClass: 1
Flags: HW
LayerCount: 2
Fore
SplineSet
340 1020 m 0,0,1
 305 1020 305 1020 283 1042.5 c 128,-1,2
 261 1065 261 1065 261 1099 c 0,3,4
 261 1131 261 1131 284 1152.5 c 128,-1,5
 307 1174 307 1174 340 1174 c 0,6,7
 370 1174 370 1174 393.5 1152 c 128,-1,8
 417 1130 417 1130 417 1099 c 0,9,10
 417 1067 417 1067 394.5 1043.5 c 128,-1,11
 372 1020 372 1020 340 1020 c 0,0,1
332 691 m 128,-1,13
 415 691 415 691 461.5 787 c 128,-1,14
 508 883 508 883 508 1067 c 0,15,16
 508 1242 508 1242 461.5 1342 c 128,-1,17
 415 1442 415 1442 332 1442 c 128,-1,18
 249 1442 249 1442 202.5 1342 c 128,-1,19
 156 1242 156 1242 156 1067 c 0,20,21
 156 883 156 883 202.5 787 c 128,-1,12
 249 691 249 691 332 691 c 128,-1,13
332 583 m 128,-1,23
 190 583 190 583 111 706.5 c 128,-1,24
 32 830 32 830 32 1067 c 0,25,26
 32 1297 32 1297 111.5 1425 c 128,-1,27
 191 1553 191 1553 332 1553 c 0,28,29
 474 1553 474 1553 553.5 1424.5 c 128,-1,30
 633 1296 633 1296 633 1067 c 0,31,32
 633 830 633 830 553.5 706.5 c 128,-1,22
 474 583 474 583 332 583 c 128,-1,23
EndSplineSet
EndChar

StartChar: period
Encoding: 46 46 538
Width: 323
VWidth: 2607
GlyphClass: 1
Flags: HW
LayerCount: 2
Fore
SplineSet
163 139 m 0,0,1
 107 139 107 139 69.5 178 c 128,-1,2
 32 217 32 217 32 271 c 128,-1,3
 32 325 32 325 69.5 365.5 c 128,-1,4
 107 406 107 406 163 406 c 0,5,6
 214 406 214 406 252.5 365.5 c 128,-1,7
 291 325 291 325 291 271 c 128,-1,8
 291 217 291 217 252.5 178 c 128,-1,9
 214 139 214 139 163 139 c 0,0,1
EndSplineSet
EndChar

StartChar: comma
Encoding: 44 44 539
Width: 379
VWidth: 2607
GlyphClass: 1
Flags: HW
LayerCount: 2
Fore
SplineSet
111 -244 m 1,0,-1
 32 -176 l 1,1,2
 93 -113 93 -113 134.5 -42 c 128,-1,3
 176 29 176 29 176 75 c 0,4,5
 176 110 176 110 148 135.5 c 128,-1,6
 120 161 120 161 92 190.5 c 128,-1,7
 64 220 64 220 64 264 c 0,8,9
 64 325 64 325 100.5 365.5 c 128,-1,10
 137 406 137 406 195 406 c 0,11,12
 251 406 251 406 299 353.5 c 128,-1,13
 347 301 347 301 347 210 c 0,14,15
 347 112 347 112 287.5 1.5 c 128,-1,16
 228 -109 228 -109 111 -244 c 1,0,-1
EndSplineSet
EndChar

StartChar: colon
Encoding: 58 58 540
Width: 332
VWidth: 2716
GlyphClass: 1
Flags: HW
LayerCount: 2
Fore
SplineSet
166 248 m 0,0,1
 110 248 110 248 71 286 c 128,-1,2
 32 324 32 324 32 380 c 128,-1,3
 32 436 32 436 72 475.5 c 128,-1,4
 112 515 112 515 166 515 c 0,5,6
 217 515 217 515 258.5 475.5 c 128,-1,7
 300 436 300 436 300 380 c 0,8,9
 300 326 300 326 260 287 c 128,-1,10
 220 248 220 248 166 248 c 0,0,1
166 1034 m 128,-1,12
 112 1034 112 1034 72 1073 c 128,-1,13
 32 1112 32 1112 32 1167 c 0,14,15
 32 1223 32 1223 72 1261.5 c 128,-1,16
 112 1300 112 1300 166 1300 c 0,17,18
 217 1300 217 1300 258.5 1261.5 c 128,-1,19
 300 1223 300 1223 300 1167 c 0,20,21
 300 1113 300 1113 260 1073.5 c 128,-1,11
 220 1034 220 1034 166 1034 c 128,-1,12
EndSplineSet
EndChar

StartChar: semicolon
Encoding: 59 59 541
Width: 379
VWidth: 2716
GlyphClass: 1
Flags: HW
LayerCount: 2
Fore
SplineSet
111 -135 m 1,0,-1
 32 -67 l 1,1,2
 93 -4 93 -4 134.5 67 c 128,-1,3
 176 138 176 138 176 184 c 0,4,5
 176 219 176 219 148 244.5 c 128,-1,6
 120 270 120 270 92 299.5 c 128,-1,7
 64 329 64 329 64 373 c 0,8,9
 64 434 64 434 100.5 474.5 c 128,-1,10
 137 515 137 515 195 515 c 0,11,12
 251 515 251 515 299 462.5 c 128,-1,13
 347 410 347 410 347 319 c 0,14,15
 347 221 347 221 287.5 110.5 c 128,-1,16
 228 0 228 0 111 -135 c 1,0,-1
195 1034 m 128,-1,18
 141 1034 141 1034 101.5 1073 c 128,-1,19
 62 1112 62 1112 62 1167 c 0,20,21
 62 1223 62 1223 102 1261.5 c 128,-1,22
 142 1300 142 1300 195 1300 c 0,23,24
 246 1300 246 1300 288 1261.5 c 128,-1,25
 330 1223 330 1223 330 1167 c 0,26,27
 330 1113 330 1113 289.5 1073.5 c 128,-1,17
 249 1034 249 1034 195 1034 c 128,-1,18
EndSplineSet
EndChar

StartChar: ellipsis
Encoding: 8230 8230 542
Width: 918
VWidth: 2441
GlyphClass: 1
Flags: HW
LayerCount: 2
Fore
SplineSet
126 -27 m 0,0,1
 79 -27 79 -27 46.5 12 c 128,-1,2
 14 51 14 51 14 105 c 128,-1,3
 14 159 14 159 46.5 199.5 c 128,-1,4
 79 240 79 240 126 240 c 0,5,6
 169 240 169 240 201 199.5 c 128,-1,7
 233 159 233 159 233 105 c 128,-1,8
 233 51 233 51 201 12 c 128,-1,9
 169 -27 169 -27 126 -27 c 0,0,1
443 -27 m 0,10,11
 396 -27 396 -27 364 12 c 128,-1,12
 332 51 332 51 332 105 c 128,-1,13
 332 159 332 159 364 199.5 c 128,-1,14
 396 240 396 240 443 240 c 0,15,16
 486 240 486 240 518.5 199.5 c 128,-1,17
 551 159 551 159 551 105 c 128,-1,18
 551 51 551 51 518.5 12 c 128,-1,19
 486 -27 486 -27 443 -27 c 0,10,11
763 -27 m 128,-1,21
 718 -27 718 -27 686 12 c 128,-1,22
 654 51 654 51 654 105 c 128,-1,23
 654 159 654 159 686 199.5 c 128,-1,24
 718 240 718 240 763 240 c 128,-1,25
 808 240 808 240 840 199.5 c 128,-1,26
 872 159 872 159 872 105 c 128,-1,27
 872 51 872 51 840 12 c 128,-1,20
 808 -27 808 -27 763 -27 c 128,-1,21
EndSplineSet
EndChar

StartChar: exclam
Encoding: 33 33 543
Width: 332
VWidth: 2441
GlyphClass: 1
Flags: HW
LayerCount: 2
Fore
SplineSet
163 -27 m 0,0,1
 109 -27 109 -27 70.5 12 c 128,-1,2
 32 51 32 51 32 107 c 128,-1,3
 32 163 32 163 70.5 205 c 128,-1,4
 109 247 109 247 163 247 c 0,5,6
 219 247 219 247 259.5 205 c 128,-1,7
 300 163 300 163 300 107 c 0,8,9
 300 53 300 53 259.5 13 c 128,-1,10
 219 -27 219 -27 163 -27 c 0,0,1
109 473 m 1,11,-1
 53 1460 l 1,12,13
 53 1541 53 1541 83.5 1586 c 128,-1,14
 114 1631 114 1631 168 1631 c 0,15,16
 219 1631 219 1631 252.5 1585.5 c 0,17,18
 284.112676056 1542.56338028 284.112676056 1542.56338028 284.112676056 1446.6421345 c 0,19,20
 284.112676056 1440.91549296 284.112676056 1440.91549296 284 1435 c 1,21,-1
 222 473 l 1,22,-1
 109 473 l 1,11,-1
EndSplineSet
EndChar

StartChar: question
Encoding: 63 63 545
Width: 877
VWidth: 2441
GlyphClass: 1
Flags: HW
LayerCount: 2
Fore
SplineSet
464 -27 m 128,-1,1
 410 -27 410 -27 372.5 12 c 128,-1,2
 335 51 335 51 335 105 c 128,-1,3
 335 159 335 159 372.5 199.5 c 128,-1,4
 410 240 410 240 464 240 c 128,-1,5
 518 240 518 240 555.5 199.5 c 128,-1,6
 593 159 593 159 593 105 c 128,-1,7
 593 51 593 51 555.5 12 c 128,-1,0
 518 -27 518 -27 464 -27 c 128,-1,1
384 547 m 2,8,9
 384 654 384 654 414 724 c 128,-1,10
 444 794 444 794 489.5 845 c 128,-1,11
 535 896 535 896 579.5 946.5 c 128,-1,12
 624 997 624 997 656.5 1062.5 c 128,-1,13
 689 1128 689 1128 689 1230 c 0,14,15
 689 1340 689 1340 623 1408.5 c 128,-1,16
 557 1477 557 1477 449 1477 c 0,17,18
 288 1477 288 1477 195 1367 c 1,19,20
 174 1335 174 1335 168.5 1318.5 c 128,-1,21
 163 1302 163 1302 166 1281 c 1,22,-1
 156 1267 l 1,23,-1
 137 1279 l 1,24,-1
 32 1370 l 1,25,26
 102 1489 102 1489 197.5 1556.5 c 128,-1,27
 293 1624 293 1624 456 1624 c 0,28,29
 629 1624 629 1624 737 1525 c 128,-1,30
 845 1426 845 1426 845 1242 c 0,31,32
 845 1123 845 1123 813.5 1046 c 128,-1,33
 782 969 782 969 736.5 914 c 128,-1,34
 691 859 691 859 644.5 810.5 c 128,-1,35
 598 762 598 762 566.5 701 c 128,-1,36
 535 640 535 640 535 547 c 2,37,-1
 535 447 l 1,38,-1
 384 447 l 1,39,-1
 384 547 l 2,8,9
EndSplineSet
EndChar

StartChar: periodcentered
Encoding: 183 183 547
Width: 332
VWidth: 2441
GlyphClass: 1
Flags: HW
LayerCount: 2
Fore
SplineSet
166 676 m 0,0,1
 110 676 110 676 71 714 c 128,-1,2
 32 752 32 752 32 808 c 128,-1,3
 32 864 32 864 72 903.5 c 128,-1,4
 112 943 112 943 166 943 c 0,5,6
 217 943 217 943 258.5 903.5 c 128,-1,7
 300 864 300 864 300 808 c 0,8,9
 300 754 300 754 260 715 c 128,-1,10
 220 676 220 676 166 676 c 0,0,1
EndSplineSet
Substitution2: "Single Substitution lookup 11 subtable" periodcentered.loclCAT
Substitution2: "Single Substitution lookup 10 subtable" periodcentered.loclCAT
Substitution2: "'aalt' Access All Alternates in Latin lookup 0 subtable" periodcentered.loclCAT
EndChar

StartChar: bullet
Encoding: 8226 8226 548
Width: 443
VWidth: 2441
GlyphClass: 1
Flags: HW
LayerCount: 2
Fore
SplineSet
220 529 m 0,0,1
 141 529 141 529 86.5 587 c 128,-1,2
 32 645 32 645 32 720 c 0,3,4
 32 803 32 803 89 858 c 128,-1,5
 146 913 146 913 220 913 c 0,6,7
 299 913 299 913 355 857 c 128,-1,8
 411 801 411 801 411 720 c 0,9,10
 411 645 411 645 356 587 c 128,-1,11
 301 529 301 529 220 529 c 0,0,1
EndSplineSet
EndChar

StartChar: asterisk
Encoding: 42 42 549
Width: 922
VWidth: 2441
GlyphClass: 1
Flags: HW
LayerCount: 2
Fore
SplineSet
232 300 m 1,0,-1
 119 403 l 1,1,-1
 384 774 l 1,2,-1
 32 904 l 1,3,-1
 89 1055 l 1,4,-1
 417 876 l 1,5,-1
 384 1309 l 1,6,-1
 549 1309 l 1,7,-1
 512 876 l 1,8,-1
 838 1048 l 1,9,-1
 890 904 l 1,10,-1
 539 774 l 1,11,-1
 801 403 l 1,12,-1
 686 303 l 1,13,-1
 462 701 l 1,14,-1
 232 300 l 1,0,-1
EndSplineSet
Substitution2: "'ss01' Style Set 1 in Latin lookup 35 subtable" asterisk.ss01
Substitution2: "'salt' Stylistic Alternatives in Latin lookup 34 subtable" asterisk.ss01
Substitution2: "'aalt' Access All Alternates in Latin lookup 0 subtable" asterisk.ss01
EndChar

StartChar: uni2E12
Encoding: 11794 11794 550
Width: 327
VWidth: 2212
GlyphClass: 1
Flags: HW
LayerCount: 2
Fore
SplineSet
32 -246 m 1,0,-1
 32 -129 l 1,1,2
 97 -129 97 -129 136.5 -75.5 c 128,-1,3
 176 -22 176 -22 176 47 c 0,4,5
 176 117 176 117 136.5 171.5 c 128,-1,6
 97 226 97 226 32 226 c 1,7,-1
 32 340 l 1,8,9
 145 340 145 340 220 257 c 128,-1,10
 295 174 295 174 295 45 c 0,11,12
 295 -79 295 -79 221.5 -162.5 c 128,-1,13
 148 -246 148 -246 32 -246 c 1,0,-1
EndSplineSet
EndChar

StartChar: numbersign
Encoding: 35 35 551
Width: 922
VWidth: 2441
GlyphClass: 1
Flags: HW
LayerCount: 2
Fore
SplineSet
341 581 m 1,0,-1
 549 581 l 1,1,-1
 587 997 l 1,2,-1
 379 997 l 1,3,-1
 341 581 l 1,0,-1
496 24 m 1,4,-1
 539 471 l 1,5,-1
 331 471 l 1,6,-1
 290 35 l 1,7,-1
 174 32 l 1,8,-1
 214 466 l 1,9,-1
 32 466 l 1,10,-1
 38 576 l 1,11,-1
 224 576 l 1,12,-1
 263 994 l 1,13,-1
 58 994 l 1,14,-1
 64 1106 l 1,15,-1
 274 1106 l 1,16,-1
 311 1523 l 1,17,-1
 430 1528 l 1,18,-1
 392 1111 l 1,19,-1
 597 1111 l 1,20,-1
 636 1519 l 1,21,-1
 757 1521 l 1,22,-1
 718 1116 l 1,23,-1
 890 1116 l 1,24,-1
 879 1001 l 1,25,-1
 707 1001 l 1,26,-1
 668 589 l 1,27,-1
 854 589 l 1,28,-1
 846 478 l 1,29,-1
 658 478 l 1,30,-1
 616 35 l 1,31,-1
 496 24 l 1,4,-1
EndSplineSet
EndChar

StartChar: slash
Encoding: 47 47 552
Width: 891
VWidth: 2441
GlyphClass: 1
Flags: HW
LayerCount: 2
Fore
SplineSet
168 -103 m 1,0,-1
 32 -37 l 1,1,-1
 720 1624 l 1,2,-1
 859 1553 l 1,3,-1
 168 -103 l 1,0,-1
EndSplineSet
Substitution2: "'frac' Diagonal Fractions in Latin lookup 23 subtable" fraction
Substitution2: "'aalt' Access All Alternates in Latin lookup 0 subtable" fraction
EndChar

StartChar: backslash
Encoding: 92 92 553
Width: 891
VWidth: 2441
GlyphClass: 1
Flags: HW
LayerCount: 2
Fore
SplineSet
722 -103 m 1,0,-1
 32 1553 l 1,1,-1
 168 1624 l 1,2,-1
 859 -37 l 1,3,-1
 722 -103 l 1,0,-1
EndSplineSet
EndChar

StartChar: asterisk.ss01
Encoding: 65572 -1 555
Width: 922
VWidth: 2441
GlyphClass: 1
Flags: HW
LayerCount: 2
Fore
SplineSet
232 447 m 1,0,-1
 119 550 l 1,1,-1
 384 920 l 1,2,-1
 32 1050 l 1,3,-1
 89 1202 l 1,4,-1
 417 1023 l 1,5,-1
 384 1456 l 1,6,-1
 549 1456 l 1,7,-1
 512 1023 l 1,8,-1
 838 1193 l 1,9,-1
 890 1050 l 1,10,-1
 539 920 l 1,11,-1
 801 550 l 1,12,-1
 686 449 l 1,13,-1
 462 848 l 1,14,-1
 232 447 l 1,0,-1
EndSplineSet
EndChar

StartChar: parenleft
Encoding: 40 40 556
Width: 714
VWidth: 2449
GlyphClass: 1
Flags: HW
LayerCount: 2
Fore
SplineSet
635 -246 m 1,0,1
 451 -151 451 -151 316 9 c 128,-1,2
 181 169 181 169 106.5 370.5 c 128,-1,3
 32 572 32 572 32 789 c 128,-1,4
 32 1006 32 1006 105.5 1202.5 c 128,-1,5
 179 1399 179 1399 311.5 1554 c 128,-1,6
 444 1709 444 1709 623 1802 c 1,7,-1
 670 1658 l 1,8,9
 528 1572 528 1572 420.5 1436.5 c 128,-1,10
 313 1301 313 1301 253 1133 c 128,-1,11
 193 965 193 965 193 782 c 0,12,13
 193 598 193 598 254.5 429 c 128,-1,14
 316 260 316 260 425.5 120.5 c 128,-1,15
 535 -19 535 -19 682 -106 c 1,16,-1
 635 -246 l 1,0,1
EndSplineSet
EndChar

StartChar: parenright
Encoding: 41 41 557
Width: 714
VWidth: 2449
GlyphClass: 1
Flags: HW
LayerCount: 2
Fore
SplineSet
78 -246 m 1
 262 -151 262 -151 397 9 c 0
 533 169 533 169 607 370 c 0
 681 571 681 571 682 789 c 0
 682 1006 682 1006 608 1202 c 0
 535 1399 535 1399 402 1554 c 0
 268 1709 268 1709 90 1802 c 1
 44 1658 l 1
 186 1572 186 1572 293 1437 c 0
 400 1301 400 1301 460 1133 c 0
 520 965 520 965 520 782 c 0
 520 598 520 598 459 429 c 0
 398 260 398 260 288 120 c 0
 178 -19 178 -19 32 -106 c 1
 78 -246 l 1
EndSplineSet
EndChar

StartChar: braceleft
Encoding: 123 123 558
Width: 848
VWidth: 2486
GlyphClass: 1
Flags: HW
LayerCount: 2
Fore
SplineSet
733 -187 m 2,0,1
 577 -187 577 -187 469.5 -151.5 c 128,-1,2
 362 -116 362 -116 311 -23.5 c 128,-1,3
 263.709090909 62.2727272727 263.709090909 62.2727272727 263.709090909 216.40231405 c 0,0,0
 263.709090909 228.490909091 263.709090909 228.490909091 264 241 c 2,4,-1
 274 485 l 1,5,6
 274 646 274 646 221.5 702 c 128,-1,7
 169 758 169 758 76 758 c 2,8,-1
 32 758 l 1,9,-1
 32 895 l 1,10,-1
 74 895 l 2,11,12
 174 895 174 895 226.5 956 c 128,-1,13
 279 1017 279 1017 279 1156 c 2,14,-1
 274 1331 l 1,15,16
 274 1755 274 1755 677 1757 c 2,17,-1
 816 1757 l 1,18,-1
 816 1620 l 1,19,-1
 640 1620 l 2,20,21
 435 1620 435 1620 435 1359 c 1,22,-1
 440 1187 l 1,23,24
 440 919 440 919 248 826 c 1,25,26
 436 756 436 756 435 448 c 1,27,-1
 428 243 l 1,28,29
 428 77 428 77 493 12 c 128,-1,30
 558 -53 558 -53 701 -53 c 2,31,-1
 814 -53 l 1,32,-1
 814 -187 l 1,33,-1
 733 -187 l 2,0,1
EndSplineSet
EndChar

StartChar: braceright
Encoding: 125 125 559
Width: 848
VWidth: 2486
GlyphClass: 1
Flags: HW
LayerCount: 2
Fore
SplineSet
115 -187 m 2
 271 -187 271 -187 379 -152 c 0
 486 -116 486 -116 537 -23 c 0
 584.290909091 63.2363636364 584.290909091 63.2363636364 584.290909091 216.539834711 c 0,0,0
 584.290909091 228.563636364 584.290909091 228.563636364 584 241 c 2
 574 485 l 1
 574 646 574 646 627 702 c 0
 679 758 679 758 772 758 c 2
 816 758 l 1
 816 895 l 1
 775 895 l 2
 675 895 675 895 622 956 c 0
 570 1017 570 1017 570 1156 c 2
 574 1331 l 1
 574 1755 574 1755 171 1757 c 2
 32 1757 l 1
 32 1620 l 1
 208 1620 l 2
 413 1620 413 1620 413 1359 c 1
 409 1187 l 1
 409 919 409 919 602 826 c 1
 414 756 414 756 413 448 c 1
 421 243 l 1
 421 77 421 77 356 12 c 0
 292 -52 292 -52 148 -53 c 2
 34 -53 l 1
 34 -187 l 1
 115 -187 l 2
EndSplineSet
EndChar

StartChar: bracketleft
Encoding: 91 91 560
Width: 698
VWidth: 2516
GlyphClass: 1
Flags: HW
LayerCount: 2
Fore
SplineSet
32 -142 m 1,0,-1
 32 1711 l 1,1,-1
 664 1711 l 1,2,-1
 664 1566 l 1,3,-1
 180 1566 l 1,4,-1
 180 -6 l 1,5,-1
 666 -6 l 1,6,-1
 666 -142 l 1,7,-1
 32 -142 l 1,0,-1
EndSplineSet
EndChar

StartChar: bracketright
Encoding: 93 93 561
Width: 699
VWidth: 2516
GlyphClass: 1
Flags: HW
LayerCount: 2
Fore
SplineSet
667 -142 m 1
 667 1711 l 1
 34 1711 l 1
 34 1566 l 1
 518 1566 l 1
 518 -6 l 1
 32 -6 l 1
 32 -142 l 1
 667 -142 l 1
EndSplineSet
EndChar

StartChar: hyphen
Encoding: 45 45 562
Width: 679
VWidth: 2441
GlyphClass: 1
Flags: HW
LayerCount: 2
Fore
SplineSet
32 691 m 1,0,-1
 32 850 l 1,1,-1
 647 850 l 1,2,-1
 647 691 l 1,3,-1
 32 691 l 1,0,-1
EndSplineSet
EndChar

StartChar: endash
Encoding: 8211 8211 564
Width: 856
VWidth: 2441
GlyphClass: 1
Flags: HW
LayerCount: 2
Fore
SplineSet
32 691 m 1,0,-1
 32 850 l 1,1,-1
 824 850 l 1,2,-1
 824 691 l 1,3,-1
 32 691 l 1,0,-1
EndSplineSet
EndChar

StartChar: emdash
Encoding: 8212 8212 565
Width: 876
VWidth: 2441
GlyphClass: 1
Flags: HW
LayerCount: 2
Fore
SplineSet
2 691 m 1,0,-1
 2 850 l 1,1,-1
 860 850 l 1,2,-1
 860 691 l 1,3,-1
 2 691 l 1,0,-1
EndSplineSet
EndChar

StartChar: underscore
Encoding: 95 95 569
Width: 922
VWidth: 2441
GlyphClass: 1
Flags: HW
LayerCount: 2
Fore
SplineSet
32 -196 m 1,0,-1
 32 -49 l 1,1,-1
 890 -49 l 1,2,-1
 890 -196 l 1,3,-1
 32 -196 l 1,0,-1
EndSplineSet
EndChar

StartChar: quotedblleft
Encoding: 8220 8220 572
Width: 831
VWidth: 2441
GlyphClass: 1
Flags: HW
LayerCount: 2
Fore
SplineSet
269 1558 m 1,0,-1
 348 1489 l 1,1,2
 285 1426 285 1426 243 1353.5 c 128,-1,3
 201 1281 201 1281 201 1233 c 0,4,5
 201 1198 201 1198 230.5 1173 c 128,-1,6
 260 1148 260 1148 288 1119.5 c 128,-1,7
 316 1091 316 1091 316 1050 c 0,8,9
 316 989 316 989 279.5 948.5 c 128,-1,10
 243 908 243 908 183 908 c 0,11,12
 125 908 125 908 78.5 962 c 128,-1,13
 32 1016 32 1016 32 1104 c 0,14,15
 32 1292 32 1292 269 1558 c 1,0,-1
721 1558 m 1,16,-1
 799 1489 l 1,17,18
 736 1426 736 1426 694.5 1353.5 c 128,-1,19
 653 1281 653 1281 653 1233 c 0,20,21
 653 1198 653 1198 682 1173 c 128,-1,22
 711 1148 711 1148 739.5 1119.5 c 128,-1,23
 768 1091 768 1091 768 1050 c 0,24,25
 768 989 768 989 731 948.5 c 128,-1,26
 694 908 694 908 635 908 c 0,27,28
 577 908 577 908 530.5 962 c 128,-1,29
 484 1016 484 1016 484 1104 c 0,30,31
 484 1292 484 1292 721 1558 c 1,16,-1
EndSplineSet
EndChar

StartChar: quoteleft
Encoding: 8216 8216 574
Width: 379
VWidth: 2441
GlyphClass: 1
Flags: HW
LayerCount: 2
Fore
SplineSet
268 1558 m 1,0,-1
 347 1489 l 1,1,2
 284 1426 284 1426 242 1353.5 c 128,-1,3
 200 1281 200 1281 200 1233 c 0,4,5
 200 1198 200 1198 229.5 1173 c 128,-1,6
 259 1148 259 1148 287 1119.5 c 128,-1,7
 315 1091 315 1091 315 1050 c 0,8,9
 315 989 315 989 278.5 948.5 c 128,-1,10
 242 908 242 908 183 908 c 0,11,12
 125 908 125 908 78.5 962 c 128,-1,13
 31.9957983193 1016.00487937 31.9957983193 1016.00487937 31.9957983193 1105.58120895 c 0,0,0
 31.9957983193 1293.11764706 31.9957983193 1293.11764706 268 1558 c 1,0,-1
EndSplineSet
EndChar

StartChar: quoteright
Encoding: 8217 8217 575
Width: 376
VWidth: 2441
GlyphClass: 1
Flags: HW
LayerCount: 2
Fore
SplineSet
108 908 m 1,0,-1
 32 979 l 1,1,2
 93 1042 93 1042 134.5 1113 c 128,-1,3
 176 1184 176 1184 176 1233 c 0,4,5
 176 1268 176 1268 148 1293 c 128,-1,6
 120 1318 120 1318 91 1346 c 128,-1,7
 62 1374 62 1374 62 1419 c 0,8,9
 62 1477 62 1477 98.5 1517.5 c 128,-1,10
 135 1558 135 1558 193 1558 c 128,-1,11
 251 1558 251 1558 297.5 1504.5 c 128,-1,12
 344.004201681 1450.99516581 344.004201681 1450.99516581 344.004201681 1363.39363392 c 0,13,14
 344.004201681 1172.88235294 344.004201681 1172.88235294 108 908 c 1,0,-1
EndSplineSet
EndChar

StartChar: guillemotleft
Encoding: 171 171 576
Width: 901
VWidth: 2441
GlyphClass: 1
Flags: HW
LayerCount: 2
Fore
SplineSet
776 149 m 1,0,-1
 433 561 l 1,1,-1
 433 617 l 1,2,-1
 764 976 l 1,3,-1
 855 876 l 1,4,-1
 589 589 l 1,5,-1
 869 247 l 1,6,-1
 776 149 l 1,0,-1
381 149 m 1,7,-1
 32 561 l 1,8,-1
 32 617 l 1,9,-1
 366 976 l 1,10,-1
 456 876 l 1,11,-1
 191 589 l 1,12,-1
 474 247 l 1,13,-1
 381 149 l 1,7,-1
EndSplineSet
EndChar

StartChar: guilsinglleft
Encoding: 8249 8249 578
Width: 504
VWidth: 2441
GlyphClass: 1
Flags: HW
LayerCount: 2
Fore
SplineSet
379 149 m 1,0,-1
 32 561 l 1,1,-1
 32 617 l 1,2,-1
 365 976 l 1,3,-1
 455 876 l 1,4,-1
 188 589 l 1,5,-1
 472 247 l 1,6,-1
 379 149 l 1,0,-1
EndSplineSet
EndChar

StartChar: guilsinglright
Encoding: 8250 8250 579
Width: 504
VWidth: 2441
GlyphClass: 1
Flags: HW
LayerCount: 2
Fore
SplineSet
125 149 m 1,0,-1
 32 247 l 1,1,-1
 313 589 l 1,2,-1
 46 876 l 1,3,-1
 137 976 l 1,4,-1
 472 617 l 1,5,-1
 472 561 l 1,6,-1
 125 149 l 1,0,-1
EndSplineSet
EndChar

StartChar: quotedbl
Encoding: 34 34 580
Width: 581
VWidth: 2441
GlyphClass: 1
Flags: HW
LayerCount: 2
Fore
SplineSet
32 1624 m 1
 212 1624 l 1
 212 1477 212 1477 210 1389 c 0
 208 1301 208 1301 202 1241 c 0
 197 1181 197 1181 191 1127 c 0
 184 1072 184 1072 176 994 c 1
 68 994 l 1
 61 1073 61 1073 53 1127 c 0
 46 1182 46 1182 42 1240 c 0
 37 1298 37 1298 34 1388 c 0
 32 1477 32 1477 32 1624 c 1
368 1624 m 1
 549 1624 l 1
 549 1477 549 1477 547 1389 c 0
 545 1301 545 1301 540 1241 c 0
 535 1181 535 1181 527 1127 c 0
 520 1072 520 1072 512 994 c 1
 405 994 l 1
 398 1073 398 1073 391 1127 c 0
 384 1182 384 1182 379 1240 c 0
 374 1298 374 1298 371 1388 c 0
 368 1477 368 1477 368 1624 c 1
EndSplineSet
Substitution2: "'ss03' Style Set 3 in Latin lookup 37 subtable" quotedbl.ss03
Substitution2: "'aalt' Access All Alternates in Latin lookup 0 subtable" quotedbl.ss03
EndChar

StartChar: quotesingle
Encoding: 39 39 581
Width: 245
VWidth: 2441
GlyphClass: 1
Flags: HW
LayerCount: 2
Fore
SplineSet
32 1624 m 1,0,-1
 213 1624 l 1,1,2
 213 1477 213 1477 210 1389.5 c 128,-1,3
 207 1302 207 1302 202.5 1241.5 c 128,-1,4
 198 1181 198 1181 190.5 1126.5 c 128,-1,5
 183 1072 183 1072 176 994 c 1,6,-1
 69 994 l 1,7,8
 62 1073 62 1073 54 1127 c 128,-1,9
 46 1181 46 1181 41.5 1240 c 128,-1,10
 37 1299 37 1299 34.5 1388 c 128,-1,11
 32 1477 32 1477 32 1624 c 1,0,-1
EndSplineSet
Substitution2: "'ss03' Style Set 3 in Latin lookup 37 subtable" quotesingle.ss03
Substitution2: "'aalt' Access All Alternates in Latin lookup 0 subtable" quotesingle.ss03
EndChar

StartChar: quotesingle.ss03
Encoding: 65574 -1 583
Width: 313
VWidth: 2441
GlyphClass: 1
Flags: HW
LayerCount: 2
Fore
SplineSet
154 999 m 1,0,-1
 32 1030 l 1,1,2
 81 1198 81 1198 84.5 1302.5 c 128,-1,3
 88 1407 88 1407 88 1491 c 0,4,5
 88 1623 88 1623 186 1624 c 0,6,7
 281 1624 281 1624 281 1496 c 0,8,9
 281 1438 281 1438 267.5 1373.5 c 128,-1,10
 254 1309 254 1309 226 1221.5 c 128,-1,11
 198 1134 198 1134 154 999 c 1,0,-1
EndSplineSet
EndChar

StartChar: hyphen_greater.dlig
Encoding: 65575 -1 584
Width: 922
VWidth: 2441
GlyphClass: 1
Flags: HW
LayerCount: 2
Fore
SplineSet
32 708 m 1,0,-1
 32 855 l 1,1,-1
 621 855 l 1,2,-1
 621 708 l 1,3,-1
 32 708 l 1,0,-1
402 66 m 1,4,-1
 402 240 l 1,5,-1
 808 781 l 1,6,-1
 403 1311 l 1,7,-1
 403 1484 l 1,8,-1
 890 848 l 1,9,-1
 890 715 l 1,10,-1
 402 66 l 1,4,-1
EndSplineSet
Ligature2: "'dlig' Discretionary Ligatures in Latin lookup 32 subtable" hyphen greater
EndChar

StartChar: exclam_equal_equal.dlig
Encoding: 65576 -1 585
Width: 906
VWidth: 2405
GlyphClass: 1
Flags: HW
LayerCount: 2
Fore
SplineSet
22 69 m 1,0,-1
 22 213 l 1,1,-1
 384 213 l 1,2,-1
 420 518 l 1,3,-1
 125 518 l 1,4,-1
 125 661 l 1,5,-1
 437 661 l 1,6,-1
 474 969 l 1,7,-1
 22 969 l 1,8,-1
 22 1113 l 1,9,-1
 490 1113 l 1,10,-1
 528 1426 l 1,11,-1
 565 1365 l 1,12,-1
 534 1113 l 1,13,-1
 880 1113 l 1,14,-1
 880 969 l 1,15,-1
 517 969 l 1,16,-1
 481 661 l 1,17,-1
 777 661 l 1,18,-1
 777 518 l 1,19,-1
 463 518 l 1,20,-1
 427 213 l 1,21,-1
 880 213 l 1,22,-1
 880 69 l 1,23,-1
 409 69 l 1,24,-1
 372 -246 l 1,25,-1
 336 -190 l 1,26,-1
 367 69 l 1,27,-1
 22 69 l 1,0,-1
EndSplineSet
Ligature2: "'dlig' Discretionary Ligatures in Latin lookup 32 subtable" exclam equal equal
EndChar

StartChar: uni20B5
Encoding: 8373 8373 594
Width: 922
VWidth: 2441
GlyphClass: 2
Flags: HW
AnchorPoint: "Anchor-2" 511 0 basechar 0
AnchorPoint: "Anchor-0" 491 1521 basechar 0
LayerCount: 2
Fore
SplineSet
177 764 m 0,0,1
 177 512 177 512 250.5 348 c 128,-1,2
 324 184 324 184 438 137 c 1,3,-1
 438 1384 l 1,4,5
 315 1347 315 1347 246 1188.5 c 128,-1,6
 177 1030 177 1030 177 764 c 0,0,1
438 -173 m 1,7,-1
 438 -17 l 1,8,9
 323 4 323 4 231 92.5 c 128,-1,10
 139 181 139 181 85.5 344.5 c 128,-1,11
 32 508 32 508 32 752 c 0,12,13
 32 1020 32 1020 91 1183.5 c 128,-1,14
 150 1347 150 1347 242.5 1427 c 128,-1,15
 335 1507 335 1507 438 1526 c 1,16,-1
 438 1647 l 1,17,-1
 560 1647 l 1,18,-1
 560 1531 l 1,19,20
 679 1519 679 1519 763.5 1443 c 128,-1,21
 848 1367 848 1367 890 1248 c 1,22,-1
 770 1174 l 1,23,-1
 750 1162 l 1,24,-1
 743 1179 l 1,25,26
 747 1198 747 1198 743 1215.5 c 128,-1,27
 739 1233 739 1233 721 1270 c 1,28,29
 683 1328 683 1328 643 1355 c 128,-1,30
 603 1382 603 1382 560 1391 c 1,31,-1
 560 124 l 1,32,33
 692 151 692 151 766 300 c 1,34,-1
 873 212 l 1,35,36
 817 102 817 102 741 44 c 128,-1,37
 665 -14 665 -14 560 -21 c 1,38,-1
 560 -173 l 1,39,-1
 438 -173 l 1,7,-1
EndSplineSet
EndChar

StartChar: cent
Encoding: 162 162 595
Width: 922
VWidth: 2441
GlyphClass: 2
Flags: HW
AnchorPoint: "Anchor-2" 524 105 basechar 0
AnchorPoint: "Anchor-0" 524 1221 basechar 0
LayerCount: 2
Fore
SplineSet
197 671 m 0,0,1
 197 527 197 527 246.5 423 c 128,-1,2
 296 319 296 319 379 271 c 1,3,-1
 478 1097 l 1,4,5
 367 1085 367 1085 282 976 c 128,-1,6
 197 867 197 867 197 671 c 0,0,1
446 -179 m 1,7,-1
 324 -179 l 1,8,-1
 360 105 l 1,9,10
 210 159 210 159 121 306.5 c 128,-1,11
 32 454 32 454 32 662 c 0,12,13
 32 835 32 835 93 963 c 128,-1,14
 154 1091 154 1091 258 1163 c 128,-1,15
 362 1235 362 1235 496 1242 c 1,16,-1
 528 1521 l 1,17,-1
 643 1521 l 1,18,-1
 609 1235 l 1,19,20
 792 1200 792 1200 890 1045 c 1,21,-1
 793 937 l 1,22,-1
 778 918 l 1,23,-1
 766 930 l 1,24,25
 764 949 764 949 757 967.5 c 128,-1,26
 750 986 750 986 723 1018 c 1,27,28
 666 1072 666 1072 593 1088 c 1,29,-1
 493 235 l 1,30,31
 512 233 512 233 531 232 c 0,32,33
 681 232 681 232 786 364 c 1,34,-1
 875 242 l 1,35,36
 732 79 732 79 521 79 c 0,37,38
 498 79 498 79 474 81 c 1,39,-1
 446 -179 l 1,7,-1
EndSplineSet
EndChar

StartChar: colonmonetary
Encoding: 8353 8353 596
Width: 922
VWidth: 2441
GlyphClass: 2
Flags: HW
AnchorPoint: "Anchor-2" 511 0 basechar 0
AnchorPoint: "Anchor-0" 491 1521 basechar 0
LayerCount: 2
Fore
SplineSet
319 226 m 1,0,1
 344 196 344 196 373 175 c 1,2,-1
 632 1363 l 1,3,4
 605 1380 605 1380 571 1389 c 1,5,-1
 319 226 l 1,0,1
177 764 m 0,6,7
 177 627 177 627 199 515 c 128,-1,8
 221 403 221 403 262 322 c 1,9,-1
 496 1394 l 1,10,11
 349 1387 349 1387 263 1224.5 c 128,-1,12
 177 1062 177 1062 177 764 c 0,6,7
154 -173 m 1,13,-1
 215 107 l 1,14,15
 132 200 132 200 82 358.5 c 128,-1,16
 32 517 32 517 32 752 c 0,17,18
 32 978 32 978 75.5 1129.5 c 128,-1,19
 119 1281 119 1281 189.5 1369.5 c 128,-1,20
 260 1458 260 1458 345.5 1495.5 c 128,-1,21
 431 1533 431 1533 515 1533 c 0,22,23
 519 1533 519 1533 524 1533 c 1,24,-1
 551 1647 l 1,25,-1
 630 1647 l 1,26,-1
 603 1523 l 1,27,28
 635 1516 635 1516 662 1507 c 1,29,-1
 694 1647 l 1,30,-1
 772 1647 l 1,31,-1
 732 1467 l 1,32,33
 839 1392 839 1392 890 1248 c 1,34,-1
 770 1174 l 1,35,-1
 750 1162 l 1,36,-1
 743 1179 l 1,37,38
 747 1198 747 1198 743 1215.5 c 128,-1,39
 739 1233 739 1233 721 1270 c 0,40,41
 710 1287 710 1287 696 1304 c 1,42,-1
 442 135 l 1,43,44
 480 123 480 123 518 122 c 0,45,46
 592 122 592 122 659 168.5 c 128,-1,47
 726 215 726 215 766 300 c 1,48,-1
 873 212 l 1,49,50
 813 95 813 95 728 35.5 c 128,-1,51
 643 -24 643 -24 522 -24 c 0,52,53
 464 -24 464 -24 411 -10 c 1,54,-1
 375 -173 l 1,55,-1
 297 -173 l 1,56,-1
 337 17 l 1,57,58
 308 29 308 29 281 49 c 1,59,-1
 232 -173 l 1,60,-1
 154 -173 l 1,13,-1
EndSplineSet
EndChar

StartChar: currency
Encoding: 164 164 597
Width: 870
VWidth: 2441
GlyphClass: 1
Flags: HW
LayerCount: 2
Fore
SplineSet
435 598 m 0,0,1
 542 598 542 598 598 671.5 c 128,-1,2
 654 745 654 745 654 843 c 0,3,4
 654 943 654 943 598 1015.5 c 128,-1,5
 542 1088 542 1088 435 1088 c 0,6,7
 332 1088 332 1088 275 1015.5 c 128,-1,8
 218 943 218 943 218 843 c 0,9,10
 218 745 218 745 274 671.5 c 128,-1,11
 330 598 330 598 435 598 c 0,0,1
115 401 m 1,12,-1
 32 484 l 1,13,-1
 154 627 l 1,14,15
 93 725 93 725 93 843 c 0,16,17
 93 965 93 965 156 1060 c 1,18,-1
 32 1204 l 1,19,-1
 115 1286 l 1,20,-1
 235 1150 l 1,21,22
 326 1220 326 1220 437 1221 c 0,23,24
 544 1221 544 1221 635 1153 c 1,25,-1
 754 1286 l 1,26,-1
 838 1206 l 1,27,-1
 715 1067 l 1,28,29
 781 964 781 964 782 843 c 0,30,31
 782 721 782 721 717 622 c 1,32,-1
 838 484 l 1,33,-1
 754 401 l 1,34,-1
 638 535 l 1,35,36
 594 498 594 498 542.5 481 c 128,-1,37
 491 464 491 464 437 464 c 0,38,39
 325 464 325 464 232 538 c 1,40,-1
 115 401 l 1,12,-1
EndSplineSet
EndChar

StartChar: dollar
Encoding: 36 36 598
Width: 922
VWidth: 2441
GlyphClass: 1
Flags: HW
LayerCount: 2
Fore
SplineSet
537 181 m 1,0,1
 634 202 634 202 689 274.5 c 128,-1,2
 744 347 744 347 744 432 c 0,3,4
 744 520 744 520 694.5 573.5 c 128,-1,5
 645 627 645 627 537 664 c 1,6,-1
 537 181 l 1,0,1
405 883 m 1,7,-1
 405 1304 l 1,8,9
 315 1292 315 1292 268 1238 c 128,-1,10
 221 1184 221 1184 221 1109 c 0,11,12
 221 966 221 966 405 883 c 1,7,-1
405 -114 m 1,13,-1
 405 35 l 1,14,15
 176 52 176 52 32 224 c 1,16,-1
 129 371 l 1,17,18
 138 364 138 364 138.5 346.5 c 128,-1,19
 139 329 139 329 144 319 c 0,20,21
 245 195 245 195 405 175 c 1,22,-1
 405 715 l 1,23,24
 241 778 241 778 156.5 864 c 128,-1,25
 72 950 72 950 72 1088 c 0,26,27
 72 1232 72 1232 165.5 1325.5 c 128,-1,28
 259 1419 259 1419 405 1442 c 1,29,-1
 405 1589 l 1,30,-1
 548 1589 l 2,31,32
 550 1587 550 1587 551 1582 c 0,33,34
 551 1577 551 1577 544 1566.5 c 128,-1,35
 537 1556 537 1556 537 1538 c 2,36,-1
 537 1445 l 1,37,38
 737 1421 737 1421 847 1265 c 1,39,-1
 755 1132 l 1,40,41
 743 1137 743 1137 742.5 1153 c 128,-1,42
 742 1169 742 1169 732 1184 c 0,43,44
 664 1277 664 1277 537 1302 c 1,45,-1
 537 827 l 1,46,47
 719 759 719 759 804.5 678.5 c 128,-1,48
 890 598 890 598 890 442 c 0,49,50
 890 344 890 344 847.5 258.5 c 128,-1,51
 805 173 805 173 726 114.5 c 128,-1,52
 647 56 647 56 537 39 c 1,53,-1
 537 -114 l 1,54,-1
 405 -114 l 1,13,-1
EndSplineSet
EndChar

StartChar: dong
Encoding: 8363 8363 599
Width: 891
VWidth: 2441
GlyphClass: 2
Flags: HW
AnchorPoint: "Anchor-4" 586 1333 basechar 0
AnchorPoint: "Anchor-2" 393 261 basechar 0
AnchorPoint: "Anchor-1" 782 1155 basechar 0
AnchorPoint: "Anchor-0" 393 1155 basechar 0
LayerCount: 2
Fore
SplineSet
86 132 m 1,0,-1
 799 132 l 1,1,-1
 799 0 l 1,2,-1
 86 0 l 1,3,-1
 86 132 l 1,0,-1
384 361 m 0,4,5
 494 361 494 361 542.5 459 c 128,-1,6
 591 557 591 557 591 713 c 0,7,8
 591 872 591 872 538.5 967 c 128,-1,9
 486 1062 486 1062 374 1062 c 0,10,11
 159 1062 159 1062 158 737 c 0,12,13
 158 551 158 551 217.5 456 c 128,-1,14
 277 361 277 361 384 361 c 0,4,5
361 242 m 0,15,16
 280 242 280 242 205 291 c 128,-1,17
 130 340 130 340 81 443.5 c 128,-1,18
 32 547 32 547 32 715 c 128,-1,19
 32 883 32 883 82 984.5 c 128,-1,20
 132 1086 132 1086 209 1131.5 c 128,-1,21
 286 1177 286 1177 368 1177 c 0,22,23
 454 1177 454 1177 512.5 1137 c 128,-1,24
 571 1097 571 1097 601 1025 c 1,25,-1
 601 1258 l 1,26,-1
 266 1258 l 1,27,-1
 266 1389 l 1,28,-1
 601 1389 l 1,29,-1
 601 1560 l 1,30,-1
 742 1560 l 1,31,-1
 742 1545 l 1,32,33
 723 1528 723 1528 722 1475 c 2,34,-1
 722 1389 l 1,35,-1
 859 1389 l 1,36,-1
 859 1258 l 1,37,-1
 725 1258 l 1,38,-1
 725 401 l 2,39,40
 725 366 725 366 728 331 c 128,-1,41
 731 296 731 296 742 261 c 1,42,-1
 613 261 l 1,43,44
 601 293 601 293 598.5 327 c 128,-1,45
 596 361 596 361 596 396 c 1,46,47
 557 328 557 328 498.5 285 c 128,-1,48
 440 242 440 242 361 242 c 0,15,16
EndSplineSet
EndChar

StartChar: Euro
Encoding: 8364 8364 600
Width: 922
VWidth: 2441
GlyphClass: 1
Flags: HW
LayerCount: 2
Fore
SplineSet
608 -27 m 0,0,1
 434 -27 434 -27 304 111 c 128,-1,2
 174 249 174 249 143 532 c 1,3,-1
 32 532 l 1,4,-1
 57 674 l 1,5,-1
 134 674 l 1,6,7
 132.666666667 698.666666667 132.666666667 698.666666667 132.666666667 732.666666667 c 0,0,0
 132.666666667 749.666666667 132.666666667 749.666666667 133 769 c 128,-1,8
 134 827 134 827 139 869 c 1,9,-1
 32 869 l 1,10,-1
 57 1011 l 1,11,-1
 156 1011 l 1,12,13
 187 1204 187 1204 261 1318.5 c 128,-1,14
 335 1433 335 1433 429.5 1483 c 128,-1,15
 524 1533 524 1533 619 1533 c 0,16,17
 791 1533 791 1533 890 1411 c 1,18,-1
 842 1250 l 1,19,20
 820 1262 820 1262 806.5 1286.5 c 128,-1,21
 793 1311 793 1311 774 1335.5 c 128,-1,22
 755 1360 755 1360 718 1377 c 128,-1,23
 681 1394 681 1394 612 1394 c 0,24,25
 500 1394 500 1394 411 1301.5 c 128,-1,26
 322 1209 322 1209 288 1011 c 1,27,-1
 772 1011 l 1,28,-1
 730 869 l 1,29,-1
 271 869 l 1,30,31
 267 830 267 830 267 786.5 c 128,-1,32
 267 743 267 743 267 674 c 1,33,-1
 669 674 l 1,34,-1
 623 532 l 1,35,-1
 277 532 l 1,36,37
 306 329 306 329 396 224 c 128,-1,38
 486 119 486 119 614 119 c 0,39,40
 736 119 736 119 826 215 c 1,41,-1
 888 93 l 1,42,43
 829 32 829 32 758.5 2.5 c 128,-1,44
 688 -27 688 -27 608 -27 c 0,0,1
EndSplineSet
EndChar

StartChar: florin
Encoding: 402 402 601
Width: 922
VWidth: 2370
GlyphClass: 1
Flags: HW
LayerCount: 2
Fore
SplineSet
184 -246 m 0,0,1
 91 -246 91 -246 32 -173 c 1,2,-1
 106 -28 l 1,3,4
 114 -32 114 -32 120.5 -49 c 128,-1,5
 127 -66 127 -66 143.5 -81.5 c 128,-1,6
 160 -97 160 -97 199 -97 c 0,7,8
 309 -97 309 -97 327 203 c 2,9,-1
 368 870 l 1,10,-1
 147 870 l 1,11,-1
 147 996 l 1,12,-1
 376 996 l 1,13,-1
 388 1202 l 2,14,15
 402 1438 402 1438 481 1540.5 c 128,-1,16
 560 1643 560 1643 682 1643 c 0,17,18
 808 1643 808 1643 890 1532 c 1,19,-1
 828 1383 l 1,20,21
 814 1383 814 1383 811 1404 c 0,22,23
 803 1455 803 1455 766 1485.5 c 128,-1,24
 729 1516 729 1516 686 1516 c 0,25,26
 641 1516 641 1516 606.5 1487 c 128,-1,27
 572 1458 572 1458 552 1385.5 c 128,-1,28
 532 1313 532 1313 524 1179 c 2,29,-1
 514 996 l 1,30,-1
 737 996 l 1,31,-1
 737 870 l 1,32,-1
 504 870 l 1,33,-1
 459 197 l 2,34,35
 449 29 449 29 409.5 -67.5 c 128,-1,36
 370 -164 370 -164 312 -205 c 128,-1,37
 254 -246 254 -246 184 -246 c 0,0,1
EndSplineSet
EndChar

StartChar: uni20B2
Encoding: 8370 8370 603
Width: 922
VWidth: 2441
GlyphClass: 1
Flags: HW
LayerCount: 2
Fore
SplineSet
180 778 m 0,0,1
 180 515 180 515 248.5 354 c 128,-1,2
 317 193 317 193 424 147 c 1,3,-1
 424 1377 l 1,4,5
 359 1358 359 1358 302.5 1291.5 c 128,-1,6
 246 1225 246 1225 213 1100.5 c 128,-1,7
 180 976 180 976 180 778 c 0,0,1
424 -173 m 1,8,-1
 424 -14 l 1,9,10
 240 28 240 28 136 226 c 128,-1,11
 32 424 32 424 32 743 c 0,12,13
 32 960 32 960 67.5 1105 c 128,-1,14
 103 1250 103 1250 161.5 1339 c 128,-1,15
 220 1428 220 1428 289.5 1473.5 c 128,-1,16
 359 1519 359 1519 424 1531 c 1,17,-1
 424 1647 l 1,18,-1
 547 1647 l 1,19,-1
 547 1535 l 1,20,21
 693 1525 693 1525 766 1458 c 128,-1,22
 839 1391 839 1391 886 1289 c 1,23,-1
 807 1172 l 1,24,25
 794 1179 794 1179 780 1209.5 c 128,-1,26
 766 1240 766 1240 741.5 1278 c 128,-1,27
 717 1316 717 1316 671 1345 c 128,-1,28
 625 1374 625 1374 547 1384 c 1,29,-1
 547 126 l 1,30,31
 659 136 659 136 753 219 c 1,32,-1
 753 583 l 1,33,-1
 630 583 l 1,34,-1
 630 730 l 1,35,-1
 890 730 l 1,36,-1
 890 135 l 1,37,38
 724 -12 724 -12 547 -24 c 1,39,-1
 547 -173 l 1,40,-1
 424 -173 l 1,8,-1
EndSplineSet
EndChar

StartChar: uni20AD
Encoding: 8365 8365 604
Width: 881
VWidth: 2441
GlyphClass: 1
Flags: HW
LayerCount: 2
Fore
SplineSet
9 799 m 1,0,-1
 9 923 l 1,1,-1
 95 923 l 1,2,-1
 95 1521 l 1,3,-1
 252 1521 l 1,4,-1
 252 1504 l 1,5,6
 240 1490 240 1490 237.5 1473 c 128,-1,7
 235 1456 235 1456 235 1414 c 2,8,-1
 235 823 l 1,9,-1
 693 1533 l 1,10,11
 739 1521 739 1521 793 1521 c 2,12,-1
 840 1521 l 1,13,-1
 460 923 l 1,14,-1
 791 923 l 1,15,-1
 791 799 l 1,16,-1
 453 799 l 1,17,-1
 867 0 l 1,18,-1
 701 -10 l 1,19,-1
 323 755 l 1,20,-1
 235 622 l 1,21,-1
 235 0 l 1,22,-1
 95 0 l 1,23,-1
 95 799 l 1,24,-1
 9 799 l 1,0,-1
EndSplineSet
EndChar

StartChar: uni20BA
Encoding: 8378 8378 606
Width: 922
VWidth: 2441
GlyphClass: 1
Flags: HW
LayerCount: 2
Fore
SplineSet
196 0 m 1,0,-1
 196 678 l 1,1,-1
 32 610 l 1,2,-1
 32 755 l 1,3,-1
 196 825 l 1,4,-1
 196 964 l 1,5,-1
 32 896 l 1,6,-1
 32 1039 l 1,7,-1
 196 1111 l 1,8,-1
 196 1521 l 1,9,-1
 371 1521 l 1,10,11
 371 1497 371 1497 362 1484.5 c 128,-1,12
 353 1472 353 1472 353 1438 c 2,13,-1
 353 1177 l 1,14,-1
 729 1333 l 1,15,-1
 729 1189 l 1,16,-1
 353 1030 l 1,17,-1
 353 892 l 1,18,-1
 729 1048 l 1,19,-1
 729 904 l 1,20,-1
 353 745 l 1,21,-1
 353 149 l 1,22,23
 466 149 466 149 559.5 183 c 128,-1,24
 653 217 653 217 706.5 307.5 c 128,-1,25
 760 398 760 398 760 561 c 1,26,-1
 890 561 l 1,27,28
 890 263 890 263 743.5 131.5 c 128,-1,29
 597 0 597 0 347 0 c 2,30,-1
 196 0 l 1,0,-1
EndSplineSet
EndChar

StartChar: uni20BC
Encoding: 8380 8380 607
Width: 922
VWidth: 2441
GlyphClass: 1
Flags: HW
LayerCount: 2
Fore
SplineSet
383 242 m 1,0,-1
 383 1274 l 1,1,2
 271 1247 271 1247 226.5 1142 c 128,-1,3
 182 1037 182 1037 182 876 c 2,4,-1
 182 79 l 2,5,6
 182 47 182 47 190.5 30.5 c 128,-1,7
 199 14 199 14 199 0 c 1,8,-1
 32 0 l 1,9,-1
 32 874 l 2,10,11
 32 1375 32 1375 383 1421 c 1,12,-1
 383 1624 l 1,13,-1
 531 1624 l 1,14,-1
 531 1421 l 1,15,16
 695 1400 695 1400 792.5 1267.5 c 128,-1,17
 890 1135 890 1135 890 867 c 2,18,-1
 890 0 l 1,19,-1
 742 0 l 1,20,-1
 742 869 l 2,21,22
 742 1037 742 1037 695.5 1145 c 128,-1,23
 649 1253 649 1253 531 1277 c 1,24,-1
 531 242 l 1,25,-1
 383 242 l 1,0,-1
EndSplineSet
EndChar

StartChar: uni20A6
Encoding: 8358 8358 608
Width: 889
VWidth: 2441
GlyphClass: 2
Flags: HW
AnchorPoint: "Anchor-2" 437 0 basechar 0
AnchorPoint: "Anchor-0" 437 1521 basechar 0
LayerCount: 2
Fore
SplineSet
646 408 m 1,0,-1
 646 676 l 1,1,-1
 543 676 l 1,2,-1
 646 408 l 1,0,-1
224 1181 m 1,3,-1
 224 801 l 1,4,-1
 366 801 l 1,5,-1
 224 1181 l 1,3,-1
13 676 m 1,6,-1
 13 801 l 1,7,-1
 111 801 l 1,8,-1
 111 1521 l 1,9,-1
 226 1521 l 1,10,-1
 497 801 l 1,11,-1
 646 801 l 1,12,-1
 646 1521 l 1,13,-1
 775 1521 l 1,14,-1
 775 1504 l 1,15,16
 765 1490 765 1490 761.5 1473 c 128,-1,17
 758 1456 758 1456 758 1414 c 2,18,-1
 758 801 l 1,19,-1
 871 801 l 1,20,-1
 871 676 l 1,21,-1
 758 676 l 1,22,-1
 758 0 l 1,23,-1
 664 0 l 1,24,-1
 413 676 l 1,25,-1
 224 676 l 1,26,-1
 224 0 l 1,27,-1
 111 0 l 1,28,-1
 111 676 l 1,29,-1
 13 676 l 1,6,-1
EndSplineSet
EndChar

StartChar: peseta
Encoding: 8359 8359 609
Width: 990
VWidth: 2441
GlyphClass: 1
Flags: HW
LayerCount: 2
Fore
SplineSet
420 -30 m 0,0,1
 331 -30 331 -30 297 44.5 c 128,-1,2
 268.1 107.825 268.1 107.825 268.1 243.03875 c 0,0,0
 268.1 266.9 268.1 266.9 269 293 c 2,3,-1
 279 517 l 1,4,-1
 178 517 l 1,5,-1
 191 632 l 1,6,-1
 281 632 l 1,7,-1
 281 745 l 1,8,-1
 385 769 l 1,9,-1
 406 774 l 1,10,-1
 412 757 l 1,11,12
 401 740 401 740 393 721.5 c 128,-1,13
 385 703 385 703 385 662 c 2,14,-1
 385 632 l 1,15,-1
 509 632 l 1,16,-1
 493 517 l 1,17,-1
 383 517 l 1,18,-1
 376 310 l 2,19,20
 373.942857143 264.742857143 373.942857143 264.742857143 373.942857143 229.888979592 c 0,0,0
 373.942857143 163.085714286 373.942857143 163.085714286 381.5 134.5 c 128,-1,21
 393 91 393 91 433 91 c 0,22,23
 464 91 464 91 498 117 c 1,24,-1
 537 210 l 1,25,-1
 547 232 l 1,26,-1
 559 224 l 1,27,28
 565 205 565 205 568.5 183 c 128,-1,29
 572 161 572 161 592 130 c 0,30,31
 609 111 609 111 633 98.5 c 128,-1,32
 657 86 657 86 692 86 c 0,33,34
 738 86 738 86 762 108 c 128,-1,35
 786 130 786 130 786 161 c 0,36,37
 786 196 786 196 766 224 c 128,-1,38
 746 252 746 252 688 275 c 0,39,40
 605 310 605 310 561.5 354 c 128,-1,41
 518 398 518 398 518 473 c 0,42,43
 518 556 518 556 567 601.5 c 128,-1,44
 616 647 616 647 692 647 c 0,45,46
 816 647 816 647 888 538 c 1,47,-1
 827 440 l 1,48,-1
 816 420 l 1,49,-1
 803 427 l 1,50,51
 801 446 801 446 795.5 465 c 128,-1,52
 790 484 790 484 770 510 c 1,53,54
 751 524 751 524 733.5 529.5 c 128,-1,55
 716 535 716 535 696 535 c 0,56,57
 655 535 655 535 638.5 519 c 128,-1,58
 622 503 622 503 622 476 c 0,59,60
 622 446 622 446 646 427 c 128,-1,61
 670 408 670 408 727 380 c 0,62,63
 814 338 814 338 852 293.5 c 128,-1,64
 890 249 890 249 890 179 c 0,65,66
 890 84 890 84 836 24.5 c 128,-1,67
 782 -35 782 -35 692 -35 c 0,68,69
 607 -35 607 -35 541 17 c 1,70,71
 487 -30 487 -30 420 -30 c 0,0,1
176 894 m 2,72,73
 267 894 267 894 306.5 963 c 128,-1,74
 346 1032 346 1032 346 1153 c 0,75,76
 346 1246 346 1246 306.5 1316 c 128,-1,77
 267 1386 267 1386 178 1386 c 2,78,-1
 148 1386 l 1,79,-1
 148 894 l 1,80,-1
 176 894 l 2,72,73
32 1521 m 1,81,-1
 183 1521 l 2,82,83
 277 1521 277 1521 339.5 1471 c 128,-1,84
 402 1421 402 1421 433 1338 c 128,-1,85
 464 1255 464 1255 464 1158 c 0,86,87
 464 995 464 995 396.5 882 c 128,-1,88
 329 769 329 769 191 769 c 2,89,-1
 148 769 l 1,90,-1
 148 0 l 1,91,-1
 32 0 l 1,92,-1
 32 1521 l 1,81,-1
EndSplineSet
EndChar

StartChar: uni20B1
Encoding: 8369 8369 610
Width: 853
VWidth: 2441
GlyphClass: 2
Flags: HW
AnchorPoint: "Anchor-2" 135 0 basechar 0
AnchorPoint: "Anchor-0" 413 1521 basechar 0
LayerCount: 2
Fore
SplineSet
206 820 m 1,0,-1
 419 820 l 2,1,2
 498 820 498 820 546.5 851.5 c 128,-1,3
 595 883 595 883 619 939 c 1,4,-1
 206 939 l 1,5,-1
 206 820 l 1,0,-1
647 1088 m 0,6,7
 647 1112 647 1112 643 1137 c 1,8,-1
 206 1137 l 1,9,-1
 206 1039 l 1,10,-1
 643 1039 l 1,11,12
 647 1061 647 1061 647 1088 c 0,6,7
206 1365 m 1,13,-1
 206 1237 l 1,14,-1
 619 1237 l 1,15,16
 593 1295 593 1295 545 1330 c 128,-1,17
 497 1365 497 1365 421 1365 c 2,18,-1
 206 1365 l 1,13,-1
72 0 m 1,19,-1
 72 939 l 1,20,-1
 -6 939 l 1,21,-1
 -6 1039 l 1,22,-1
 72 1039 l 1,23,-1
 72 1137 l 1,24,-1
 -6 1137 l 1,25,-1
 -6 1237 l 1,26,-1
 72 1237 l 1,27,-1
 72 1521 l 1,28,-1
 424 1521 l 2,29,30
 572 1521 572 1521 655 1443 c 128,-1,31
 738 1365 738 1365 765 1237 c 1,32,-1
 852 1237 l 1,33,-1
 852 1137 l 1,34,-1
 779 1137 l 1,35,36
 779 1116 779 1116 779 1094 c 0,37,38
 779 1064 779 1064 777 1039 c 1,39,-1
 852 1039 l 1,40,-1
 852 939 l 1,41,-1
 763 939 l 1,42,43
 733 817 733 817 652.5 744 c 128,-1,44
 572 671 572 671 434 671 c 2,45,-1
 206 671 l 1,46,-1
 206 0 l 1,47,-1
 72 0 l 1,19,-1
EndSplineSet
EndChar

StartChar: uni20BD
Encoding: 8381 8381 611
Width: 922
VWidth: 2441
GlyphClass: 2
Flags: HW
AnchorPoint: "Anchor-2" 193 0 basechar 0
AnchorPoint: "Anchor-0" 494 1521 basechar 0
LayerCount: 2
Fore
SplineSet
270 820 m 1,0,-1
 500 820 l 2,1,2
 630 820 630 820 689 893.5 c 128,-1,3
 748 967 748 967 748 1088 c 0,4,5
 748 1207 748 1207 689 1286 c 128,-1,6
 630 1365 630 1365 502 1365 c 2,7,-1
 270 1365 l 1,8,-1
 270 820 l 1,0,-1
126 0 m 1,9,-1
 126 384 l 1,10,-1
 32 384 l 1,11,-1
 32 532 l 1,12,-1
 126 532 l 1,13,-1
 126 671 l 1,14,-1
 32 671 l 1,15,-1
 32 820 l 1,16,-1
 126 820 l 1,17,-1
 126 1521 l 1,18,-1
 507 1521 l 2,19,20
 710 1521 710 1521 800 1399 c 128,-1,21
 890 1277 890 1277 890 1094 c 0,22,23
 890 908 890 908 799.5 789.5 c 128,-1,24
 709 671 709 671 518 671 c 2,25,-1
 270 671 l 1,26,-1
 270 532 l 1,27,-1
 569 532 l 1,28,-1
 569 384 l 1,29,-1
 270 384 l 1,30,-1
 270 0 l 1,31,-1
 126 0 l 1,9,-1
EndSplineSet
EndChar

StartChar: uni20B9
Encoding: 8377 8377 612
Width: 922
VWidth: 2441
GlyphClass: 1
Flags: HW
LayerCount: 2
Fore
SplineSet
34 820 m 1,0,-1
 317 820 l 2,1,2
 430 820 430 820 492 870 c 128,-1,3
 554 920 554 920 572 1006 c 1,4,-1
 32 1006 l 1,5,-1
 32 1150 l 1,6,-1
 574 1150 l 1,7,8
 560 1241 560 1241 499 1302 c 128,-1,9
 438 1363 438 1363 317 1363 c 2,10,-1
 32 1363 l 1,11,-1
 32 1519 l 1,12,-1
 890 1519 l 1,13,-1
 890 1374 l 1,14,-1
 600 1374 l 1,15,16
 704 1295 704 1295 730 1150 c 1,17,-1
 890 1150 l 1,18,-1
 890 1006 l 1,19,-1
 733 1006 l 1,20,21
 717 896 717 896 646.5 804.5 c 128,-1,22
 576 713 576 713 470 683 c 1,23,-1
 772 0 l 1,24,-1
 602 0 l 1,25,-1
 315 674 l 1,26,-1
 34 674 l 1,27,-1
 34 820 l 1,0,-1
EndSplineSet
EndChar

StartChar: sterling
Encoding: 163 163 613
Width: 922
VWidth: 2441
GlyphClass: 1
Flags: HW
LayerCount: 2
Fore
SplineSet
87 -19 m 1,0,-1
 32 119 l 1,1,2
 114 168 114 168 160 221.5 c 128,-1,3
 206 275 206 275 225 351 c 128,-1,4
 244 427 244 427 244 542 c 0,5,6
 244 633 244 633 216 783 c 1,7,-1
 85 783 l 1,8,-1
 85 923 l 1,9,-1
 187 923 l 1,10,11
 174 1002 174 1002 174 1079 c 0,12,13
 174 1218 174 1218 222.5 1317 c 128,-1,14
 271 1416 271 1416 350.5 1468.5 c 128,-1,15
 430 1521 430 1521 527 1521 c 0,16,17
 677 1521 677 1521 788 1394 c 1,18,-1
 698 1265 l 1,19,20
 662 1314 662 1314 622.5 1348 c 128,-1,21
 583 1382 583 1382 494 1382 c 0,22,23
 412 1382 412 1382 363.5 1301.5 c 128,-1,24
 315 1221 315 1221 315 1081 c 0,25,26
 315 1049 315 1049 319.5 1010.5 c 128,-1,27
 324 972 324 972 330 923 c 1,28,-1
 585 923 l 1,29,-1
 585 783 l 1,30,-1
 359 783 l 1,31,32
 372 715 372 715 377.5 655.5 c 128,-1,33
 383 596 383 596 383 547 c 0,34,35
 383 454 383 454 367 371 c 128,-1,36
 351 288 351 288 315 215 c 1,37,38
 336.515151515 218.03030303 336.515151515 218.03030303 357.479338843 218.03030303 c 0,39,40
 405.696969697 218.03030303 405.696969697 218.03030303 451 202 c 0,41,42
 516 179 516 179 576 151.5 c 128,-1,43
 636 124 636 124 693 124 c 0,44,45
 773 124 773 124 839 188 c 1,46,-1
 890 58 l 1,47,48
 786 -37 786 -37 683 -37 c 0,49,50
 643 -37 643 -37 576.5 -9 c 128,-1,51
 510 19 510 19 439 46 c 128,-1,52
 368 73 368 73 313 73 c 0,53,54
 312.106382979 73.0106382979 312.106382979 73.0106382979 311.206201901 73.0106382979 c 0,55,56
 227.489361702 73.0106382979 227.489361702 73.0106382979 87 -19 c 1,0,-1
EndSplineSet
EndChar

StartChar: uni20A9
Encoding: 8361 8361 614
Width: 889
VWidth: 2441
GlyphClass: 2
Flags: HW
AnchorPoint: "Anchor-2" 439 0 basechar 0
AnchorPoint: "Anchor-0" 449 1521 basechar 0
LayerCount: 2
Fore
SplineSet
630 513 m 1,0,-1
 646 703 l 1,1,-1
 596 703 l 1,2,-1
 630 513 l 1,0,-1
268 517 m 1,3,-1
 303 703 l 1,4,-1
 248 703 l 1,5,-1
 268 517 l 1,3,-1
441 979 m 1,6,-1
 409 801 l 1,7,-1
 471 801 l 1,8,-1
 441 979 l 1,6,-1
215 0 m 1,9,-1
 140 703 l 1,10,-1
 13 703 l 1,11,-1
 13 801 l 1,12,-1
 129 801 l 1,13,-1
 53 1521 l 1,14,-1
 163 1521 l 1,15,-1
 238 801 l 1,16,-1
 318 801 l 1,17,-1
 429 1409 l 1,18,-1
 467 1409 l 1,19,-1
 577 801 l 1,20,-1
 654 801 l 1,21,-1
 718 1521 l 1,22,-1
 819 1521 l 1,23,-1
 742 801 l 1,24,-1
 871 801 l 1,25,-1
 871 703 l 1,26,-1
 733 703 l 1,27,-1
 658 0 l 1,28,-1
 612 0 l 1,29,-1
 489 703 l 1,30,-1
 391 703 l 1,31,-1
 266 0 l 1,32,-1
 215 0 l 1,9,-1
EndSplineSet
EndChar

StartChar: yen
Encoding: 165 165 615
Width: 922
VWidth: 2441
GlyphClass: 1
Flags: HW
LayerCount: 2
Fore
SplineSet
549 0 m 1
 405 0 l 1
 405 240 l 1
 130 240 l 1
 130 376 l 1
 405 376 l 1
 405 529 l 1
 130 529 l 1
 130 669 l 1
 405 669 l 1
 405 720 l 1
 32 1523 l 1
 193 1523 l 1
 477 892 l 1
 739 1521 l 1
 890 1521 l 1
 549 720 l 1
 549 669 l 1
 810 669 l 1
 810 529 l 1
 549 529 l 1
 549 376 l 1
 810 376 l 1
 810 240 l 1
 549 240 l 1
 549 0 l 1
EndSplineSet
EndChar

StartChar: asteriskmath
Encoding: 8727 8727 616
Width: 922
VWidth: 2441
GlyphClass: 1
Flags: HW
LayerCount: 2
Fore
SplineSet
232 333 m 1,0,-1
 119 435 l 1,1,-1
 384 806 l 1,2,-1
 32 935 l 1,3,-1
 89 1086 l 1,4,-1
 417 908 l 1,5,-1
 384 1340 l 1,6,-1
 549 1340 l 1,7,-1
 512 908 l 1,8,-1
 838 1079 l 1,9,-1
 890 935 l 1,10,-1
 539 806 l 1,11,-1
 801 435 l 1,12,-1
 686 335 l 1,13,-1
 462 732 l 1,14,-1
 232 333 l 1,0,-1
EndSplineSet
EndChar

StartChar: uni2215
Encoding: 8725 8725 618
Width: 861
VWidth: 2408
GlyphClass: 1
Flags: HW
LayerCount: 2
Fore
SplineSet
144 -246 m 1,0,-1
 32 -206 l 1,1,-1
 715 1897 l 1,2,-1
 829 1853 l 1,3,-1
 144 -246 l 1,0,-1
EndSplineSet
EndChar

StartChar: element
Encoding: 8712 8712 619
Width: 922
VWidth: 2441
GlyphClass: 1
Flags: HW
LayerCount: 2
Fore
SplineSet
530 10 m 2,0,1
 298 10 298 10 165 153 c 128,-1,2
 32 296 32 296 32 550 c 0,3,4
 32 720 32 720 93.5 844.5 c 128,-1,5
 155 969 155 969 266.5 1037.5 c 128,-1,6
 378 1106 378 1106 526 1106 c 2,7,-1
 890 1106 l 1,8,-1
 890 1009 l 1,9,-1
 561 1009 l 2,10,11
 362 1009 362 1009 252 904 c 128,-1,12
 142 799 142 799 130 601 c 1,13,-1
 890 601 l 1,14,-1
 890 503 l 1,15,-1
 130 503 l 1,16,17
 151 107 151 107 561 107 c 2,18,-1
 890 107 l 1,19,-1
 890 10 l 1,20,-1
 530 10 l 2,0,1
EndSplineSet
EndChar

StartChar: plus
Encoding: 43 43 621
Width: 922
VWidth: 2441
GlyphClass: 1
Flags: HW
LayerCount: 2
Fore
SplineSet
400 254 m 1,0,-1
 400 713 l 1,1,-1
 32 713 l 1,2,-1
 32 857 l 1,3,-1
 400 857 l 1,4,-1
 400 1277 l 1,5,-1
 536 1277 l 1,6,-1
 536 857 l 1,7,-1
 890 857 l 1,8,-1
 890 713 l 1,9,-1
 536 713 l 1,10,-1
 536 254 l 1,11,-1
 400 254 l 1,0,-1
EndSplineSet
EndChar

StartChar: minus
Encoding: 8722 8722 622
Width: 922
VWidth: 2441
GlyphClass: 1
Flags: HW
LayerCount: 2
Fore
SplineSet
32 713 m 1,0,-1
 32 857 l 1,1,-1
 890 857 l 1,2,-1
 890 713 l 1,3,-1
 32 713 l 1,0,-1
EndSplineSet
Substitution2: "'sups' Superscript in Latin lookup 20 subtable" uni207B
Substitution2: "'aalt' Access All Alternates in Latin lookup 0 subtable" uni207B
EndChar

StartChar: multiply
Encoding: 215 215 623
Width: 826
VWidth: 2441
GlyphClass: 1
Flags: HW
LayerCount: 2
Fore
SplineSet
680 349 m 1,0,-1
 405 676 l 1,1,-1
 132 359 l 1,2,-1
 32 466 l 1,3,-1
 307 792 l 1,4,-1
 32 1121 l 1,5,-1
 137 1233 l 1,6,-1
 408 911 l 1,7,-1
 683 1233 l 1,8,-1
 794 1125 l 1,9,-1
 508 794 l 1,10,-1
 785 461 l 1,11,-1
 680 349 l 1,0,-1
EndSplineSet
EndChar

StartChar: divide
Encoding: 247 247 624
Width: 856
VWidth: 2441
GlyphClass: 1
Flags: HW
LayerCount: 2
Fore
SplineSet
437 259 m 0,0,1
 398 259 398 259 366.5 288 c 128,-1,2
 335 317 335 317 335 361 c 0,3,4
 335 407 335 407 366.5 437.5 c 128,-1,5
 398 468 398 468 437 468 c 128,-1,6
 476 468 476 468 506.5 435.5 c 128,-1,7
 537 403 537 403 537 361 c 128,-1,8
 537 319 537 319 508 289 c 128,-1,9
 479 259 479 259 437 259 c 0,0,1
32 685 m 1,10,-1
 32 850 l 1,11,-1
 824 850 l 1,12,-1
 824 685 l 1,13,-1
 32 685 l 1,10,-1
435 1060 m 0,14,15
 396 1060 396 1060 366.5 1090.5 c 128,-1,16
 337 1121 337 1121 337 1162 c 0,17,18
 337 1206 337 1206 367.5 1238 c 128,-1,19
 398 1270 398 1270 435 1270 c 0,20,21
 479 1270 479 1270 508 1237 c 128,-1,22
 537 1204 537 1204 537 1162 c 128,-1,23
 537 1120 537 1120 508 1090 c 128,-1,24
 479 1060 479 1060 435 1060 c 0,14,15
EndSplineSet
EndChar

StartChar: equal
Encoding: 61 61 625
Width: 922
VWidth: 2441
GlyphClass: 1
Flags: HW
LayerCount: 2
Fore
SplineSet
32 445 m 1,0,-1
 32 594 l 1,1,-1
 890 594 l 1,2,-1
 890 445 l 1,3,-1
 32 445 l 1,0,-1
32 950 m 1,4,-1
 32 1099 l 1,5,-1
 890 1099 l 1,6,-1
 890 950 l 1,7,-1
 32 950 l 1,4,-1
EndSplineSet
EndChar

StartChar: notequal
Encoding: 8800 8800 626
Width: 922
VWidth: 2441
GlyphClass: 1
Flags: HW
LayerCount: 2
Fore
SplineSet
32 445 m 1,0,-1
 32 594 l 1,1,-1
 308 594 l 1,2,-1
 481 950 l 1,3,-1
 32 950 l 1,4,-1
 32 1099 l 1,5,-1
 554 1099 l 1,6,-1
 729 1458 l 1,7,-1
 827 1396 l 1,8,-1
 681 1099 l 1,9,-1
 890 1099 l 1,10,-1
 890 950 l 1,11,-1
 609 950 l 1,12,-1
 435 594 l 1,13,-1
 890 594 l 1,14,-1
 890 445 l 1,15,-1
 364 445 l 1,16,-1
 187 88 l 1,17,-1
 90 147 l 1,18,-1
 236 445 l 1,19,-1
 32 445 l 1,0,-1
EndSplineSet
EndChar

StartChar: greater
Encoding: 62 62 627
Width: 922
VWidth: 2441
GlyphClass: 1
Flags: HW
LayerCount: 2
Fore
SplineSet
32 114 m 1,0,-1
 32 300 l 1,1,-1
 734 778 l 1,2,-1
 36 1211 l 1,3,-1
 36 1384 l 1,4,-1
 890 837 l 1,5,-1
 890 725 l 1,6,-1
 32 114 l 1,0,-1
EndSplineSet
EndChar

StartChar: less
Encoding: 60 60 628
Width: 922
VWidth: 2441
GlyphClass: 1
Flags: HW
LayerCount: 2
Fore
SplineSet
890 114 m 1,0,-1
 32 725 l 1,1,-1
 32 837 l 1,2,-1
 883 1384 l 1,3,-1
 883 1211 l 1,4,-1
 189 778 l 1,5,-1
 890 300 l 1,6,-1
 890 114 l 1,0,-1
EndSplineSet
EndChar

StartChar: lessequal
Encoding: 8804 8804 630
Width: 922
VWidth: 2441
GlyphClass: 1
Flags: HW
LayerCount: 2
Fore
SplineSet
55 44 m 1,0,-1
 55 193 l 1,1,-1
 888 193 l 1,2,-1
 888 44 l 1,3,-1
 55 44 l 1,0,-1
890 261 m 1,4,-1
 32 747 l 1,5,-1
 32 864 l 1,6,-1
 890 1286 l 1,7,-1
 890 1113 l 1,8,-1
 188 803 l 1,9,-1
 890 424 l 1,10,-1
 890 261 l 1,4,-1
EndSplineSet
EndChar

StartChar: plusminus
Encoding: 177 177 631
Width: 922
VWidth: 2441
GlyphClass: 1
Flags: HW
LayerCount: 2
Fore
SplineSet
32 42 m 1,0,-1
 32 196 l 1,1,-1
 890 196 l 1,2,-1
 890 42 l 1,3,-1
 32 42 l 1,0,-1
396 378 m 1,4,-1
 396 837 l 1,5,-1
 32 837 l 1,6,-1
 32 986 l 1,7,-1
 396 986 l 1,8,-1
 396 1404 l 1,9,-1
 535 1404 l 1,10,-1
 535 986 l 1,11,-1
 888 986 l 1,12,-1
 888 837 l 1,13,-1
 535 837 l 1,14,-1
 535 378 l 1,15,-1
 396 378 l 1,4,-1
EndSplineSet
EndChar

StartChar: asciitilde
Encoding: 126 126 633
Width: 921
VWidth: 2441
GlyphClass: 1
Flags: HW
LayerCount: 2
Fore
SplineSet
640 650 m 0,0,1
 565 650 565 650 510.5 682.5 c 128,-1,2
 456 715 456 715 410.5 748 c 128,-1,3
 365 781 365 781 307 781 c 0,4,5
 258 781 258 781 219.5 756.5 c 128,-1,6
 181 732 181 732 144 666 c 1,7,-1
 32 720 l 1,8,9
 67 803 67 803 133.5 859.5 c 128,-1,10
 200 916 200 916 303 916 c 0,11,12
 378 916 378 916 429.5 883 c 128,-1,13
 481 850 481 850 526.5 815.5 c 128,-1,14
 572 781 572 781 630 781 c 0,15,16
 676 781 676 781 708 806.5 c 128,-1,17
 740 832 740 832 784 901 c 1,18,-1
 889 832 l 1,19,20
 833 729 833 729 777 689.5 c 128,-1,21
 721 650 721 650 640 650 c 0,0,1
EndSplineSet
Substitution2: "'ss01' Style Set 1 in Latin lookup 35 subtable" asciitilde.ss01
Substitution2: "'salt' Stylistic Alternatives in Latin lookup 34 subtable" asciitilde.ss01
Substitution2: "'aalt' Access All Alternates in Latin lookup 0 subtable" asciitilde.ss01
EndChar

StartChar: logicalnot
Encoding: 172 172 634
Width: 774
VWidth: 2441
GlyphClass: 1
Flags: HW
LayerCount: 2
Fore
SplineSet
591 384 m 1,0,-1
 591 694 l 1,1,-1
 32 694 l 1,2,-1
 32 848 l 1,3,-1
 742 848 l 1,4,-1
 742 384 l 1,5,-1
 591 384 l 1,0,-1
EndSplineSet
EndChar

StartChar: asciicircum
Encoding: 94 94 635
Width: 749
VWidth: 2441
GlyphClass: 1
Flags: HW
LayerCount: 2
Fore
SplineSet
146 837 m 1,0,-1
 32 892 l 1,1,-1
 369 1521 l 1,2,-1
 421 1521 l 1,3,-1
 717 894 l 1,4,-1
 596 837 l 1,5,-1
 386 1260 l 1,6,-1
 146 837 l 1,0,-1
EndSplineSet
Substitution2: "'ss01' Style Set 1 in Latin lookup 35 subtable" asciicircum.ss01
Substitution2: "'salt' Stylistic Alternatives in Latin lookup 34 subtable" asciicircum.ss01
Substitution2: "'aalt' Access All Alternates in Latin lookup 0 subtable" asciicircum.ss01
EndChar

StartChar: infinity
Encoding: 8734 8734 636
Width: 868
VWidth: 2441
GlyphClass: 1
Flags: HW
LayerCount: 2
Fore
SplineSet
746 737 m 0,0,1
 746 816 746 816 715 862 c 128,-1,2
 684 908 684 908 635 908 c 0,3,4
 590 908 590 908 555 866.5 c 128,-1,5
 520 825 520 825 488 737 c 1,6,7
 552 567 552 567 633 566 c 0,8,9
 686 566 686 566 716 615 c 128,-1,10
 746 664 746 664 746 737 c 0,0,1
366 740 m 1,11,12
 330 835 330 835 296.5 873 c 128,-1,13
 263 911 263 911 222 911 c 0,14,15
 169 911 169 911 139 863 c 128,-1,16
 109 815 109 815 109 740 c 128,-1,17
 109 665 109 665 139 617 c 128,-1,18
 169 569 169 569 222 569 c 0,19,20
 269 569 269 569 303.5 614 c 128,-1,21
 338 659 338 659 366 740 c 1,11,12
856 737 m 0,22,23
 856 605 856 605 794.5 514.5 c 128,-1,24
 733 424 733 424 639 424 c 0,25,26
 575 424 575 424 522 470.5 c 128,-1,27
 469 517 469 517 426 617 c 1,28,29
 335 424 335 424 216 424 c 0,30,31
 123 424 123 424 60.5 513.5 c 128,-1,32
 -2 603 -2 603 -2 737 c 0,33,34
 -2 874 -2 874 60.5 963.5 c 128,-1,35
 123 1053 123 1053 216 1053 c 0,36,37
 280 1053 280 1053 332 1010 c 128,-1,38
 384 967 384 967 429 859 c 1,39,40
 512 1052 512 1052 641 1053 c 0,41,42
 734 1053 734 1053 795 967 c 128,-1,43
 856 881 856 881 856 737 c 0,22,23
EndSplineSet
EndChar

StartChar: emptyset
Encoding: 8709 8709 637
Width: 887
VWidth: 2441
GlyphClass: 1
Flags: HW
LayerCount: 2
Fore
SplineSet
438 389 m 0,0,1
 520 389 520 389 587 445 c 128,-1,2
 654 501 654 501 693.5 593 c 128,-1,3
 733 685 733 685 733 796 c 0,4,5
 733 928 733 928 677 1032 c 1,6,-1
 247 489 l 1,7,8
 285 443 285 443 333.5 416 c 128,-1,9
 382 389 382 389 438 389 c 0,0,1
147 796 m 0,10,11
 147 666 147 666 201 561 c 1,12,-1
 628 1104 l 1,13,14
 590 1148 590 1148 542 1173.5 c 128,-1,15
 494 1199 494 1199 438 1199 c 0,16,17
 356 1199 356 1199 291 1143.5 c 128,-1,18
 226 1088 226 1088 186.5 997 c 128,-1,19
 147 906 147 906 147 796 c 0,10,11
63 254 m 1,20,-1
 11 319 l 1,21,-1
 125 466 l 1,22,23
 87 534 87 534 64.5 618.5 c 128,-1,24
 42 703 42 703 42 796 c 0,25,26
 42 945 42 945 95.5 1065.5 c 128,-1,27
 149 1186 149 1186 238 1258 c 128,-1,28
 327 1330 327 1330 438 1330 c 0,29,30
 514 1330 514 1330 582.5 1295 c 128,-1,31
 651 1260 651 1260 702 1197 c 1,32,-1
 819 1342 l 1,33,-1
 869 1277 l 1,34,-1
 750 1128 l 1,35,36
 790 1060 790 1060 813.5 974 c 128,-1,37
 837 888 837 888 837 796 c 0,38,39
 837 649 837 649 784 527 c 128,-1,40
 731 405 731 405 640.5 332 c 128,-1,41
 550 259 550 259 438 259 c 0,42,43
 362 259 362 259 294.5 296 c 128,-1,44
 227 333 227 333 176 396 c 1,45,-1
 63 254 l 1,20,-1
EndSplineSet
EndChar

StartChar: integral
Encoding: 8747 8747 638
Width: 749
VWidth: 2358
GlyphClass: 1
Flags: HW
LayerCount: 2
Fore
SplineSet
166 -246 m 0,0,1
 94 -246 94 -246 32 -218 c 1,2,-1
 32 -88 l 1,3,4
 58 -100 58 -100 86 -108 c 128,-1,5
 114 -116 114 -116 150 -116 c 0,6,7
 222 -116 222 -116 264.5 -56 c 128,-1,8
 307 4 307 4 307 143 c 2,9,-1
 307 1465 l 2,10,11
 307 1667 307 1667 382 1761 c 128,-1,12
 457 1855 457 1855 595 1855 c 0,13,14
 633 1855 633 1855 662.5 1848 c 128,-1,15
 692 1841 692 1841 717 1830 c 1,16,-1
 717 1702 l 1,17,18
 665 1726 665 1726 605 1726 c 0,19,20
 527 1726 527 1726 487.5 1669 c 128,-1,21
 448 1612 448 1612 448 1448 c 2,22,-1
 448 128 l 2,23,24
 448 -63 448 -63 369 -154.5 c 128,-1,25
 290 -246 290 -246 166 -246 c 0,0,1
EndSplineSet
EndChar

StartChar: uni2126
Encoding: 8486 8486 639
Width: 903
VWidth: 2441
GlyphClass: 1
Flags: HW
LayerCount: 2
Fore
SplineSet
457 1487 m 128,-1,1
 315 1487 315 1487 235 1322.5 c 128,-1,2
 155 1158 155 1158 155 840 c 0,3,4
 155 603 155 603 224.5 425 c 128,-1,5
 294 247 294 247 394 168 c 1,6,-1
 394 0 l 1,7,-1
 64 0 l 1,8,-1
 64 161 l 1,9,-1
 266 161 l 1,10,11
 164 252 164 252 94.5 431 c 128,-1,12
 25 610 25 610 25 862 c 0,13,14
 25 1263 25 1263 141 1455 c 128,-1,15
 257 1647 257 1647 457 1647 c 0,16,17
 653 1647 653 1647 768 1457 c 128,-1,18
 883 1267 883 1267 883 859 c 0,19,20
 883 615 883 615 818 433.5 c 128,-1,21
 753 252 753 252 642 161 c 1,22,-1
 846 161 l 1,23,-1
 846 0 l 1,24,-1
 512 0 l 1,25,-1
 512 168 l 1,26,27
 638 254 638 254 696.5 430 c 128,-1,28
 755 606 755 606 755 837 c 0,29,30
 755 1161 755 1161 677 1324 c 128,-1,0
 599 1487 599 1487 457 1487 c 128,-1,1
EndSplineSet
EndChar

StartChar: uni2206
Encoding: 8710 8710 640
Width: 922
VWidth: 2441
GlyphClass: 1
Flags: HW
LayerCount: 2
Fore
SplineSet
741 144 m 1,0,-1
 465 1456 l 1,1,-1
 182 144 l 1,2,-1
 741 144 l 1,0,-1
553 1624 m 1,3,-1
 890 110 l 1,4,-1
 890 2 l 1,5,-1
 32 2 l 1,6,-1
 32 112 l 1,7,-1
 375 1624 l 1,8,-1
 553 1624 l 1,3,-1
EndSplineSet
EndChar

StartChar: product
Encoding: 8719 8719 641
Width: 831
VWidth: 2339
GlyphClass: 1
Flags: HW
LayerCount: 2
Fore
SplineSet
32 -246 m 1,0,-1
 32 1521 l 1,1,-1
 799 1521 l 1,2,3
 799 1506 799 1506 795 1495 c 128,-1,4
 791 1484 791 1484 789 1473 c 2,5,-1
 789 -246 l 1,6,-1
 643 -246 l 1,7,-1
 643 1395 l 1,8,-1
 181 1395 l 1,9,-1
 181 -246 l 1,10,-1
 32 -246 l 1,0,-1
EndSplineSet
EndChar

StartChar: summation
Encoding: 8721 8721 642
Width: 914
VWidth: 2372
GlyphClass: 1
Flags: HW
LayerCount: 2
Fore
SplineSet
32 -246 m 1,0,-1
 32 -132 l 1,1,-1
 425 693 l 1,2,-1
 32 1503 l 1,3,-1
 32 1631 l 1,4,-1
 882 1631 l 1,5,-1
 882 1501 l 1,6,-1
 201 1501 l 1,7,-1
 581 698 l 1,8,-1
 190 -116 l 1,9,-1
 882 -116 l 1,10,-1
 882 -246 l 1,11,-1
 32 -246 l 1,0,-1
EndSplineSet
EndChar

StartChar: radical
Encoding: 8730 8730 643
Width: 873
VWidth: 2441
GlyphClass: 1
Flags: HW
LayerCount: 2
Fore
SplineSet
349 -17 m 1,0,-1
 157 696 l 1,1,-1
 3 696 l 1,2,-1
 3 827 l 1,3,-1
 233 827 l 1,4,-1
 398 210 l 1,5,-1
 750 1647 l 1,6,-1
 861 1647 l 1,7,-1
 449 -17 l 1,8,-1
 349 -17 l 1,0,-1
EndSplineSet
EndChar

StartChar: uni00B5
Encoding: 181 181 644
Width: 887
VWidth: 2299
GlyphClass: 1
Flags: HW
LayerCount: 2
Fore
SplineSet
21 -246 m 1,0,1
 21 -209 21 -209 24 -130.5 c 128,-1,2
 27 -52 27 -52 33 46.5 c 128,-1,3
 39 145 39 145 44.5 245 c 128,-1,4
 50 345 50 345 54 428.5 c 128,-1,5
 58 512 58 512 58 560 c 2,6,-1
 58 1116 l 1,7,-1
 183 1116 l 1,8,-1
 183 524 l 2,9,10
 183 404 183 404 206.5 335.5 c 128,-1,11
 230 267 230 267 269.5 239.5 c 128,-1,12
 309 212 309 212 354 212 c 0,13,14
 445 212 445 212 490.5 300.5 c 128,-1,15
 536 389 536 389 536 537 c 2,16,-1
 536 1116 l 1,17,-1
 660 1116 l 1,18,-1
 660 372 l 2,19,20
 660 222 660 222 729 221 c 0,21,22
 756 221 756 221 782.5 247 c 128,-1,23
 809 273 809 273 819 302 c 2,24,-1
 828 328 l 1,25,-1
 879 216 l 1,26,27
 810.570247934 96.9917355372 810.570247934 96.9917355372 720.502629602 96.9917355372 c 0,0,0
 719.752066116 96.9917355372 719.752066116 96.9917355372 719 97 c 0,28,29
 661 97 661 97 618 143 c 128,-1,30
 575 189 575 189 569 258 c 1,31,32
 538 177 538 177 475 137 c 128,-1,33
 412 97 412 97 344 97 c 0,34,35
 277 97 277 97 222.5 133 c 128,-1,36
 168 169 168 169 141 241 c 1,37,38
 141 116 141 116 141 -2.5 c 128,-1,39
 141 -121 141 -121 141 -246 c 1,40,-1
 21 -246 l 1,0,1
EndSplineSet
EndChar

StartChar: partialdiff
Encoding: 8706 8706 645
Width: 922
VWidth: 2441
GlyphClass: 1
Flags: HW
LayerCount: 2
Fore
SplineSet
411 107 m 0,0,1
 497 107 497 107 555.5 163 c 128,-1,2
 614 219 614 219 651.5 311 c 128,-1,3
 689 403 689 403 709 511.5 c 128,-1,4
 729 620 729 620 733 725 c 1,5,6
 687 849 687 849 623 908 c 128,-1,7
 559 967 559 967 477 967 c 0,8,9
 391 967 391 967 332.5 914.5 c 128,-1,10
 274 862 274 862 239.5 778 c 128,-1,11
 205 694 205 694 193.5 596 c 128,-1,12
 185.942857143 531.6 185.942857143 531.6 185.942857143 470.654693878 c 0,0,0
 185.942857143 438.857142857 185.942857143 438.857142857 188 408 c 0,13,14
 203 259 203 259 261.5 183 c 128,-1,15
 320 107 320 107 411 107 c 0,0,1
409 -27 m 0,16,17
 234 -27 234 -27 143.5 96 c 128,-1,18
 53 219 53 219 36 412 c 0,19,20
 31.8983050847 456.372881356 31.8983050847 456.372881356 31.8983050847 501.093363976 c 0,0,0
 31.8983050847 576.305084746 31.8983050847 576.305084746 43.5 652.5 c 128,-1,21
 62 774 62 774 111.5 875 c 128,-1,22
 161 976 161 976 243 1037.5 c 128,-1,23
 325 1099 325 1099 441 1099 c 0,24,25
 540 1099 540 1099 613.5 1046.5 c 128,-1,26
 687 994 687 994 738 899 c 1,27,28
 740.285714286 919 740.285714286 919 740.285714286 937.367346939 c 0,0,0
 740.285714286 951.142857143 740.285714286 951.142857143 739 964 c 128,-1,29
 736 994 736 994 733 1025 c 0,30,31
 720 1157 720 1157 687 1260 c 128,-1,32
 654 1363 654 1363 591 1421 c 128,-1,33
 528 1479 528 1479 426 1479 c 0,34,35
 371 1479 371 1479 308 1462 c 128,-1,36
 245 1445 245 1445 197 1411 c 1,37,-1
 184 1556 l 1,38,39
 243 1588 243 1588 305 1601 c 128,-1,40
 367 1614 367 1614 426 1614 c 0,41,42
 645 1614 645 1614 750.5 1459 c 128,-1,43
 856 1304 856 1304 883 1016 c 0,44,45
 889.914285714 926.742857143 889.914285714 926.742857143 889.914285714 835.707755102 c 0,0,0
 889.914285714 781.914285714 889.914285714 781.914285714 887.5 727.5 c 128,-1,46
 881 581 881 581 851.5 446.5 c 128,-1,47
 822 312 822 312 764 205 c 128,-1,48
 706 98 706 98 618.5 35.5 c 128,-1,49
 531 -27 531 -27 409 -27 c 0,16,17
EndSplineSet
EndChar

StartChar: percent
Encoding: 37 37 646
Width: 942
VWidth: 2441
GlyphClass: 1
Flags: HW
LayerCount: 2
Fore
SplineSet
682 95 m 0,0,1
 720 95 720 95 748 143 c 128,-1,2
 776 191 776 191 776 288 c 0,3,4
 776 374 776 374 751 430 c 128,-1,5
 726 486 726 486 678 486 c 0,6,7
 640 486 640 486 611 441 c 128,-1,8
 582 396 582 396 582 293 c 0,9,10
 582 188 582 188 612 141.5 c 128,-1,11
 642 95 642 95 682 95 c 0,0,1
680 -24 m 0,12,13
 592 -24 592 -24 530 65 c 128,-1,14
 468 154 468 154 468 291 c 128,-1,15
 468 428 468 428 530 518 c 128,-1,16
 592 608 592 608 680 608 c 128,-1,17
 768 608 768 608 829 517.5 c 128,-1,18
 890 427 890 427 890 291 c 0,19,20
 890 154 890 154 828 65 c 128,-1,21
 766 -24 766 -24 680 -24 c 0,12,13
244 1037 m 128,-1,23
 280 1037 280 1037 308 1081 c 128,-1,24
 336 1125 336 1125 336 1230 c 128,-1,25
 336 1335 336 1335 306 1379 c 128,-1,26
 276 1423 276 1423 240 1423 c 0,27,28
 206 1423 206 1423 178 1379 c 128,-1,29
 150 1335 150 1335 150 1230 c 0,30,31
 150 1127 150 1127 179 1082 c 128,-1,22
 208 1037 208 1037 244 1037 c 128,-1,23
66 0 m 1,32,-1
 716 1521 l 1,33,-1
 829 1521 l 1,34,-1
 172 0 l 1,35,-1
 66 0 l 1,32,-1
244 911 m 0,36,37
 156 911 156 911 94 999.5 c 128,-1,38
 32 1088 32 1088 32 1230 c 0,39,40
 32 1367 32 1367 94 1457 c 128,-1,41
 156 1547 156 1547 244 1547 c 128,-1,42
 332 1547 332 1547 394 1456 c 128,-1,43
 456 1365 456 1365 456 1228 c 0,44,45
 456 1086 456 1086 396 998.5 c 128,-1,46
 336 911 336 911 244 911 c 0,36,37
EndSplineSet
EndChar

StartChar: perthousand
Encoding: 8240 8240 647
Width: 922
VWidth: 2441
GlyphClass: 1
Flags: HW
LayerCount: 2
Fore
SplineSet
695 98 m 128,-1,1
 726 98 726 98 751 138.5 c 128,-1,2
 776 179 776 179 776 271 c 0,3,4
 776 364 776 364 749 404.5 c 128,-1,5
 722 445 722 445 691 445 c 0,6,7
 662 445 662 445 636 404.5 c 128,-1,8
 610 364 610 364 610 271 c 128,-1,9
 610 178 610 178 637 138 c 128,-1,0
 664 98 664 98 695 98 c 128,-1,1
237 98 m 128,-1,11
 268 98 268 98 292.5 138.5 c 128,-1,12
 317 179 317 179 317 271 c 0,13,14
 317 364 317 364 291.5 404.5 c 128,-1,15
 266 445 266 445 233 445 c 0,16,17
 202 445 202 445 177 404.5 c 128,-1,18
 152 364 152 364 152 271 c 128,-1,19
 152 178 152 178 179 138 c 128,-1,10
 206 98 206 98 237 98 c 128,-1,11
695 -27 m 0,20,21
 614 -27 614 -27 557 56 c 128,-1,22
 500 139 500 139 500 271 c 0,23,24
 500 395 500 395 557 480.5 c 128,-1,25
 614 566 614 566 695 566 c 0,26,27
 774 566 774 566 831 482 c 128,-1,28
 888 398 888 398 888 268 c 0,29,30
 888 136 888 136 833 54.5 c 128,-1,31
 778 -27 778 -27 695 -27 c 0,20,21
237 -27 m 0,32,33
 158 -27 158 -27 100 56 c 128,-1,34
 42 139 42 139 42 271 c 0,35,36
 42 401 42 401 100 483.5 c 128,-1,37
 158 566 158 566 237 566 c 128,-1,38
 316 566 316 566 374 479.5 c 128,-1,39
 432 393 432 393 432 268 c 0,40,41
 432 133 432 133 376 53 c 128,-1,42
 320 -27 320 -27 237 -27 c 0,32,33
32 552 m 1,43,-1
 32 689 l 1,44,-1
 890 1323 l 1,45,-1
 890 1186 l 1,46,-1
 32 552 l 1,43,-1
237 1074 m 128,-1,48
 268 1074 268 1074 292.5 1114.5 c 128,-1,49
 317 1155 317 1155 317 1248 c 128,-1,50
 317 1341 317 1341 291.5 1381 c 128,-1,51
 266 1421 266 1421 233 1421 c 0,52,53
 202 1421 202 1421 177 1380.5 c 128,-1,54
 152 1340 152 1340 152 1248 c 0,55,56
 152 1155 152 1155 179 1114.5 c 128,-1,47
 206 1074 206 1074 237 1074 c 128,-1,48
237 950 m 0,57,58
 158 950 158 950 100 1033 c 128,-1,59
 42 1116 42 1116 42 1248 c 0,60,61
 42 1378 42 1378 100 1460.5 c 128,-1,62
 158 1543 158 1543 237 1543 c 128,-1,63
 316 1543 316 1543 374 1458.5 c 128,-1,64
 432 1374 432 1374 432 1245 c 0,65,66
 432 1110 432 1110 376 1030 c 128,-1,67
 320 950 320 950 237 950 c 0,57,58
EndSplineSet
EndChar

StartChar: circleplus
Encoding: 8853 8853 648
Width: 922
VWidth: 2441
GlyphClass: 1
Flags: HW
LayerCount: 2
Fore
SplineSet
421 415 m 1,0,-1
 421 710 l 1,1,-1
 188 710 l 1,2,-1
 188 808 l 1,3,-1
 421 808 l 1,4,-1
 421 1079 l 1,5,-1
 510 1079 l 1,6,-1
 510 808 l 1,7,-1
 736 808 l 1,8,-1
 736 710 l 1,9,-1
 510 710 l 1,10,-1
 510 415 l 1,11,-1
 421 415 l 1,0,-1
460 345 m 0,12,13
 555 345 555 345 633 399.5 c 128,-1,14
 711 454 711 454 756.5 547 c 128,-1,15
 802 640 802 640 802 752 c 128,-1,16
 802 864 802 864 756.5 957 c 128,-1,17
 711 1050 711 1050 633 1104 c 128,-1,18
 555 1158 555 1158 460 1158 c 0,19,20
 367 1158 367 1158 290 1104 c 128,-1,21
 213 1050 213 1050 166.5 957 c 128,-1,22
 120 864 120 864 120 752 c 128,-1,23
 120 640 120 640 165 547 c 128,-1,24
 210 454 210 454 288.5 399.5 c 128,-1,25
 367 345 367 345 460 345 c 0,12,13
460 247 m 128,-1,27
 339 247 339 247 243 315.5 c 128,-1,28
 147 384 147 384 89.5 498.5 c 128,-1,29
 32 613 32 613 32 752 c 0,30,31
 32 894 32 894 89.5 1007.5 c 128,-1,32
 147 1121 147 1121 243 1189.5 c 128,-1,33
 339 1258 339 1258 460 1258 c 128,-1,34
 581 1258 581 1258 677.5 1189.5 c 128,-1,35
 774 1121 774 1121 832 1007.5 c 128,-1,36
 890 894 890 894 890 752 c 0,37,38
 890 613 890 613 832 498.5 c 128,-1,39
 774 384 774 384 677.5 315.5 c 128,-1,26
 581 247 581 247 460 247 c 128,-1,27
EndSplineSet
EndChar

StartChar: arrowup
Encoding: 8593 8593 651
Width: 903
VWidth: 2441
GlyphClass: 1
Flags: HW
LayerCount: 2
Fore
SplineSet
378 17 m 1,0,-1
 378 1094 l 1,1,-1
 132 762 l 1,2,-1
 32 843 l 1,3,-1
 442 1419 l 1,4,-1
 491 1419 l 1,5,-1
 871 837 l 1,6,-1
 759 762 l 1,7,-1
 531 1091 l 1,8,-1
 531 17 l 1,9,-1
 378 17 l 1,0,-1
EndSplineSet
EndChar

StartChar: uni2197
Encoding: 8599 8599 652
Width: 940
VWidth: 2441
GlyphClass: 1
Flags: HW
LayerCount: 2
Fore
SplineSet
25 368 m 1,0,-1
 646 1197 l 1,1,-1
 304 1146 l 1,2,-1
 294 1279 l 1,3,-1
 854 1367 l 1,4,-1
 883 1328 l 1,5,-1
 799 629 l 1,6,-1
 683 657 l 1,7,-1
 732 1076 l 1,8,-1
 116 263 l 1,9,-1
 25 368 l 1,0,-1
EndSplineSet
EndChar

StartChar: arrowright
Encoding: 8594 8594 653
Width: 949
VWidth: 2441
GlyphClass: 1
Flags: HW
LayerCount: 2
Fore
SplineSet
30 799 m 1,0,-1
 646 799 l 1,1,-1
 371 1088 l 1,2,-1
 444 1189 l 1,3,-1
 888 732 l 1,4,-1
 888 678 l 1,5,-1
 442 256 l 1,6,-1
 374 371 l 1,7,-1
 644 640 l 1,8,-1
 30 640 l 1,9,-1
 30 799 l 1,0,-1
EndSplineSet
EndChar

StartChar: arrowboth
Encoding: 8596 8596 659
Width: 876
VWidth: 2441
GlyphClass: 1
Flags: HW
LayerCount: 2
Fore
SplineSet
562 1191 m 1,0,-1
 860 745 l 1,1,-1
 860 691 l 1,2,-1
 558 259 l 1,3,-1
 483 376 l 1,4,-1
 655 643 l 1,5,-1
 199 643 l 1,6,-1
 380 376 l 1,7,-1
 304 259 l 1,8,-1
 2 691 l 1,9,-1
 2 745 l 1,10,-1
 301 1191 l 1,11,-1
 380 1091 l 1,12,-1
 197 801 l 1,13,-1
 657 801 l 1,14,-1
 483 1091 l 1,15,-1
 562 1191 l 1,0,-1
EndSplineSet
EndChar

StartChar: arrowupdn
Encoding: 8597 8597 660
Width: 912
VWidth: 2441
GlyphClass: 1
Flags: HW
LayerCount: 2
Fore
SplineSet
880 540 m 1,0,-1
 477 126 l 1,1,-1
 428 126 l 1,2,-1
 32 545 l 1,3,-1
 148 634 l 1,4,-1
 374 408 l 1,5,-1
 374 1048 l 1,6,-1
 148 806 l 1,7,-1
 34 904 l 1,8,-1
 428 1318 l 1,9,-1
 477 1318 l 1,10,-1
 880 908 l 1,11,-1
 779 806 l 1,12,-1
 533 1050 l 1,13,-1
 533 405 l 1,14,-1
 779 634 l 1,15,-1
 880 540 l 1,0,-1
EndSplineSet
EndChar

StartChar: uni21E7
Encoding: 8679 8679 661
Width: 922
VWidth: 2441
GlyphClass: 1
Flags: HW
LayerCount: 2
Fore
SplineSet
329 98 m 1,0,-1
 596 98 l 1,1,-1
 596 991 l 1,2,-1
 785 991 l 1,3,-1
 462 1428 l 1,4,-1
 147 991 l 1,5,-1
 329 991 l 1,6,-1
 329 98 l 1,0,-1
241 0 m 1,7,-1
 241 892 l 1,8,-1
 32 892 l 1,9,-1
 32 999 l 1,10,-1
 435 1553 l 1,11,-1
 489 1553 l 1,12,-1
 890 999 l 1,13,-1
 890 892 l 1,14,-1
 684 892 l 1,15,-1
 684 0 l 1,16,-1
 241 0 l 1,7,-1
EndSplineSet
EndChar

StartChar: uni21E8
Encoding: 8680 8680 662
Width: 876
VWidth: 2441
GlyphClass: 1
Flags: HW
LayerCount: 2
Fore
SplineSet
81 867 m 1,0,-1
 81 517 l 1,1,-1
 457 517 l 1,2,-1
 457 317 l 1,3,-1
 773 694 l 1,4,-1
 457 1072 l 1,5,-1
 457 867 l 1,6,-1
 81 867 l 1,0,-1
2 964 m 1,7,-1
 375 964 l 1,8,-1
 375 1223 l 1,9,-1
 455 1223 l 1,10,-1
 860 725 l 1,11,-1
 860 659 l 1,12,-1
 455 163 l 1,13,-1
 375 163 l 1,14,-1
 375 420 l 1,15,-1
 2 420 l 1,16,-1
 2 964 l 1,7,-1
EndSplineSet
EndChar

StartChar: uni2B06
Encoding: 11014 11014 665
Width: 922
VWidth: 2441
GlyphClass: 1
Flags: HW
LayerCount: 2
Fore
SplineSet
890 999 m 1,0,-1
 890 892 l 1,1,-1
 684 892 l 1,2,-1
 684 0 l 1,3,-1
 241 0 l 1,4,-1
 241 892 l 1,5,-1
 32 892 l 1,6,-1
 32 999 l 1,7,-1
 435 1553 l 1,8,-1
 489 1553 l 1,9,-1
 890 999 l 1,0,-1
EndSplineSet
EndChar

StartChar: uni2B05
Encoding: 11013 11013 668
Width: 876
VWidth: 2441
GlyphClass: 1
Flags: HW
LayerCount: 2
Fore
SplineSet
860 420 m 1,0,-1
 487 420 l 1,1,-1
 487 163 l 1,2,-1
 407 163 l 1,3,-1
 2 659 l 1,4,-1
 2 725 l 1,5,-1
 407 1223 l 1,6,-1
 487 1223 l 1,7,-1
 487 964 l 1,8,-1
 860 964 l 1,9,-1
 860 420 l 1,0,-1
EndSplineSet
EndChar

StartChar: dneighthblock
Encoding: 9601 9601 669
Width: -750
VWidth: 2440
GlyphClass: 1
Flags: HW
LayerCount: 2
Fore
SplineSet
0 -246 m 1,0,-1
 0 -550 l 1,1,-1
 -782 -550 l 1,2,-1
 -782 -246 l 1,3,-1
 0 -246 l 1,0,-1
EndSplineSet
EndChar

StartChar: dnquarterblock
Encoding: 9602 9602 670
Width: 126
VWidth: 250
GlyphClass: 1
Flags: HW
LayerCount: 2
Fore
SplineSet
-33 -246 m 1,0,-1
 -33 -122 l 1,1,-1
 127 -122 l 1,2,-1
 127 -246 l 1,3,-1
 -33 -246 l 1,0,-1
EndSplineSet
EndChar

StartChar: dnthreeeighthsblock
Encoding: 9603 9603 671
Width: 437
VWidth: 1223
GlyphClass: 1
Flags: HW
LayerCount: 2
Fore
SplineSet
-34 -246 m 1,0,-1
 -34 305 l 1,1,-1
 439 305 l 1,2,-1
 439 -246 l 1,3,-1
 -34 -246 l 1,0,-1
EndSplineSet
EndChar

StartChar: dnhalfblock
Encoding: 9604 9604 672
Width: 594
VWidth: 1709
GlyphClass: 1
Flags: HW
LayerCount: 2
Fore
SplineSet
-33 -246 m 1,0,-1
 -33 732 l 1,1,-1
 596 732 l 1,2,-1
 596 -246 l 1,3,-1
 -33 -246 l 1,0,-1
EndSplineSet
EndChar

StartChar: dnfiveeighthsblock
Encoding: 9605 9605 673
Width: 686
VWidth: 2002
GlyphClass: 1
Flags: HW
LayerCount: 2
Fore
SplineSet
-34 -246 m 1,0,-1
 -34 1160 l 1,1,-1
 689 1160 l 1,2,-1
 689 -246 l 1,3,-1
 -34 -246 l 1,0,-1
EndSplineSet
EndChar

StartChar: dnthreequartersblock
Encoding: 9606 9606 674
Width: 750
VWidth: 2196
GlyphClass: 1
Flags: HW
LayerCount: 2
Fore
SplineSet
-34 -246 m 1,0,-1
 -34 1587 l 1,1,-1
 752 1587 l 1,2,-1
 752 -246 l 1,3,-1
 -34 -246 l 1,0,-1
EndSplineSet
EndChar

StartChar: dnseveneighthsblock
Encoding: 9607 9607 675
Width: 795
VWidth: 2335
GlyphClass: 1
Flags: HW
LayerCount: 2
Fore
SplineSet
-34 -246 m 1,0,-1
 -34 2015 l 1,1,-1
 797 2015 l 1,2,-1
 797 -246 l 1,3,-1
 -34 -246 l 1,0,-1
EndSplineSet
EndChar

StartChar: fullblock
Encoding: 9608 9608 676
Width: 820
VWidth: 2441
GlyphClass: 1
Flags: HW
LayerCount: 2
Fore
SplineSet
-35 -246 m 1,0,-1
 -35 2441 l 1,1,-1
 823 2441 l 1,2,-1
 823 -246 l 1,3,-1
 -35 -246 l 1,0,-1
EndSplineSet
EndChar

StartChar: uphalfblock
Encoding: 9600 9600 677
Width: 822
VWidth: 2441
GlyphClass: 1
Flags: HW
LayerCount: 2
Fore
SplineSet
-34 732 m 1,0,-1
 -34 2441 l 1,1,-1
 824 2441 l 1,2,-1
 824 732 l 1,3,-1
 -34 732 l 1,0,-1
EndSplineSet
EndChar

StartChar: upeighthblock
Encoding: 9620 9620 678
Width: 822
VWidth: 2441
GlyphClass: 1
Flags: HW
LayerCount: 2
Fore
SplineSet
-34 2015 m 1,0,-1
 -34 2441 l 1,1,-1
 824 2441 l 1,2,-1
 824 2015 l 1,3,-1
 -34 2015 l 1,0,-1
EndSplineSet
EndChar

StartChar: lefteighthblock
Encoding: 9615 9615 679
Width: 142
VWidth: 2441
GlyphClass: 1
Flags: HW
LayerCount: 2
Fore
SplineSet
0 -246 m 1,0,-1
 0 2441 l 1,1,-1
 110 2441 l 1,2,-1
 110 -246 l 1,3,-1
 0 -246 l 1,0,-1
EndSplineSet
EndChar

StartChar: leftquarterblock
Encoding: 9614 9614 680
Width: 249
VWidth: 2441
GlyphClass: 1
Flags: HW
LayerCount: 2
Fore
SplineSet
0 -246 m 1,0,-1
 0 2441 l 1,1,-1
 217 2441 l 1,2,-1
 217 -246 l 1,3,-1
 0 -246 l 1,0,-1
EndSplineSet
EndChar

StartChar: leftthreeeighthsblock
Encoding: 9613 9613 681
Width: 356
VWidth: 2441
GlyphClass: 1
Flags: HW
LayerCount: 2
Fore
SplineSet
0 -246 m 1,0,-1
 0 2441 l 1,1,-1
 324 2441 l 1,2,-1
 324 -246 l 1,3,-1
 0 -246 l 1,0,-1
EndSplineSet
EndChar

StartChar: lefthalfblock
Encoding: 9612 9612 682
Width: 464
VWidth: 2441
GlyphClass: 1
Flags: HW
LayerCount: 2
Fore
SplineSet
0 -246 m 1,0,-1
 0 2441 l 1,1,-1
 432 2441 l 1,2,-1
 432 -246 l 1,3,-1
 0 -246 l 1,0,-1
EndSplineSet
EndChar

StartChar: leftfiveeighthsblock
Encoding: 9611 9611 683
Width: 574
VWidth: 2441
GlyphClass: 1
Flags: HW
LayerCount: 2
Fore
SplineSet
0 -246 m 1,0,-1
 0 2441 l 1,1,-1
 542 2441 l 1,2,-1
 542 -246 l 1,3,-1
 0 -246 l 1,0,-1
EndSplineSet
EndChar

StartChar: leftthreequartersblock
Encoding: 9610 9610 684
Width: 681
VWidth: 2441
GlyphClass: 1
Flags: HW
LayerCount: 2
Fore
SplineSet
0 -246 m 1,0,-1
 0 2441 l 1,1,-1
 649 2441 l 1,2,-1
 649 -246 l 1,3,-1
 0 -246 l 1,0,-1
EndSplineSet
EndChar

StartChar: leftseveneighthsblock
Encoding: 9609 9609 685
Width: 788
VWidth: 2441
GlyphClass: 1
Flags: HW
LayerCount: 2
Fore
SplineSet
0 -246 m 1,0,-1
 0 2441 l 1,1,-1
 756 2441 l 1,2,-1
 756 -246 l 1,3,-1
 0 -246 l 1,0,-1
EndSplineSet
EndChar

StartChar: righthalfblock
Encoding: 9616 9616 686
Width: 894
VWidth: 2441
GlyphClass: 1
Flags: HW
LayerCount: 2
Fore
SplineSet
32 -246 m 1,0,-1
 32 2441 l 1,1,-1
 464 2441 l 1,2,-1
 464 -246 l 1,3,-1
 32 -246 l 1,0,-1
EndSplineSet
EndChar

StartChar: righteighthblock
Encoding: 9621 9621 687
Width: 894
VWidth: 2441
GlyphClass: 1
Flags: HW
LayerCount: 2
Fore
SplineSet
32 -246 m 1,0,-1
 32 2441 l 1,1,-1
 140 2441 l 1,2,-1
 140 -246 l 1,3,-1
 32 -246 l 1,0,-1
EndSplineSet
EndChar

StartChar: dnleftquadrant
Encoding: 9622 9622 688
Width: 347
VWidth: 1709
GlyphClass: 1
Flags: HW
LayerCount: 2
Fore
SplineSet
0 -246 m 1,0,-1
 0 732 l 1,1,-1
 315 732 l 1,2,-1
 315 -246 l 1,3,-1
 0 -246 l 1,0,-1
EndSplineSet
EndChar

StartChar: dnrightquadrant
Encoding: 9623 9623 689
Width: 660
VWidth: 1709
GlyphClass: 1
Flags: HW
LayerCount: 2
Fore
SplineSet
32 -246 m 1,0,-1
 32 732 l 1,1,-1
 347 732 l 1,2,-1
 347 -246 l 1,3,-1
 32 -246 l 1,0,-1
EndSplineSet
EndChar

StartChar: upleftquadrant
Encoding: 9624 9624 690
Width: 582
VWidth: 2441
GlyphClass: 1
Flags: HW
LayerCount: 2
Fore
SplineSet
0 732 m 1,0,-1
 0 2441 l 1,1,-1
 550 2441 l 1,2,-1
 550 732 l 1,3,-1
 0 732 l 1,0,-1
EndSplineSet
EndChar

StartChar: upleftdnleftdnrightquadrant
Encoding: 9625 9625 691
Width: 820
VWidth: 2441
GlyphClass: 1
Flags: HW
LayerCount: 2
Fore
SplineSet
-35 -246 m 1,0,-1
 -35 2441 l 1,1,-1
 394 2441 l 1,2,-1
 394 1097 l 1,3,-1
 823 1097 l 1,4,-1
 823 -246 l 1,5,-1
 -35 -246 l 1,0,-1
EndSplineSet
EndChar

StartChar: upleftdnrightquadrant
Encoding: 9626 9626 692
Width: 820
VWidth: 2441
GlyphClass: 1
Flags: HW
LayerCount: 2
Fore
SplineSet
394 1097 m 1,0,-1
 823 1097 l 1,1,-1
 823 -246 l 1,2,-1
 394 -246 l 1,3,-1
 394 1097 l 1,0,-1
394 1097 m 1,4,-1
 -35 1097 l 1,5,-1
 -35 2441 l 1,6,-1
 394 2441 l 1,7,-1
 394 1097 l 1,4,-1
EndSplineSet
EndChar

StartChar: upleftuprightdnleftquadrant
Encoding: 9627 9627 693
Width: 820
VWidth: 2441
GlyphClass: 1
Flags: HW
LayerCount: 2
Fore
SplineSet
-35 -246 m 1,0,-1
 -35 2441 l 1,1,-1
 823 2441 l 1,2,-1
 823 1097 l 1,3,-1
 394 1097 l 1,4,-1
 394 -246 l 1,5,-1
 -35 -246 l 1,0,-1
EndSplineSet
EndChar

StartChar: upleftuprightdnrightquadrant
Encoding: 9628 9628 694
Width: 820
VWidth: 2441
GlyphClass: 1
Flags: HW
LayerCount: 2
Fore
SplineSet
394 -246 m 1,0,-1
 394 1097 l 1,1,-1
 -35 1097 l 1,2,-1
 -35 2441 l 1,3,-1
 823 2441 l 1,4,-1
 823 -246 l 1,5,-1
 394 -246 l 1,0,-1
EndSplineSet
EndChar

StartChar: uprightquadrant
Encoding: 9629 9629 695
Width: 1129
VWidth: 2441
GlyphClass: 1
Flags: HW
LayerCount: 2
Fore
SplineSet
32 732 m 1,0,-1
 32 2441 l 1,1,-1
 582 2441 l 1,2,-1
 582 732 l 1,3,-1
 32 732 l 1,0,-1
EndSplineSet
EndChar

StartChar: uprightdnleftquadrant
Encoding: 9630 9630 696
Width: 820
VWidth: 2441
GlyphClass: 1
Flags: HW
LayerCount: 2
Fore
SplineSet
-35 -246 m 1,0,-1
 -35 1097 l 1,1,-1
 394 1097 l 1,2,-1
 394 -246 l 1,3,-1
 -35 -246 l 1,0,-1
394 1097 m 1,4,-1
 394 2441 l 1,5,-1
 823 2441 l 1,6,-1
 823 1097 l 1,7,-1
 394 1097 l 1,4,-1
EndSplineSet
EndChar

StartChar: uprightdnleftdnrightquadrant
Encoding: 9631 9631 697
Width: 820
VWidth: 2441
GlyphClass: 1
Flags: HW
LayerCount: 2
Fore
SplineSet
-35 -246 m 1,0,-1
 -35 1097 l 1,1,-1
 394 1097 l 1,2,-1
 394 2441 l 1,3,-1
 823 2441 l 1,4,-1
 823 -246 l 1,5,-1
 -35 -246 l 1,0,-1
EndSplineSet
EndChar

StartChar: lightshade
Encoding: 9617 9617 698
Width: 869
VWidth: 2427
GlyphClass: 1
Flags: HW
LayerCount: 2
Fore
SplineSet
25 -246 m 1
 25 -149 l 1
 112 -149 l 1
 112 -246 l 1
 25 -246 l 1
317 -246 m 1
 317 -149 l 1
 404 -149 l 1
 404 -246 l 1
 317 -246 l 1
608 -246 m 1
 608 -149 l 1
 696 -149 l 1
 696 -246 l 1
 608 -246 l 1
170 -51 m 1
 170 46 l 1
 258 46 l 1
 258 -51 l 1
 170 -51 l 1
463 -51 m 1
 463 46 l 1
 550 46 l 1
 550 -51 l 1
 463 -51 l 1
755 -51 m 1
 755 46 l 1
 842 46 l 1
 842 -51 l 1
 755 -51 l 1
25 143 m 1
 25 240 l 1
 112 240 l 1
 112 143 l 1
 25 143 l 1
317 143 m 1
 317 240 l 1
 404 240 l 1
 404 143 l 1
 317 143 l 1
608 143 m 1
 608 240 l 1
 696 240 l 1
 696 143 l 1
 608 143 l 1
755 337 m 1
 755 435 l 1
 842 435 l 1
 842 337 l 1
 755 337 l 1
463 337 m 1
 463 435 l 1
 550 435 l 1
 550 337 l 1
 463 337 l 1
170 337 m 1
 170 435 l 1
 258 435 l 1
 258 337 l 1
 170 337 l 1
25 532 m 1
 25 630 l 1
 112 630 l 1
 112 532 l 1
 25 532 l 1
317 532 m 1
 317 630 l 1
 404 630 l 1
 404 532 l 1
 317 532 l 1
608 532 m 1
 608 630 l 1
 696 630 l 1
 696 532 l 1
 608 532 l 1
170 727 m 1
 170 824 l 1
 258 824 l 1
 258 727 l 1
 170 727 l 1
463 727 m 1
 463 824 l 1
 550 824 l 1
 550 727 l 1
 463 727 l 1
755 727 m 1
 755 824 l 1
 842 824 l 1
 842 727 l 1
 755 727 l 1
25 921 m 1
 25 1018 l 1
 112 1018 l 1
 112 921 l 1
 25 921 l 1
317 921 m 1
 317 1018 l 1
 404 1018 l 1
 404 921 l 1
 317 921 l 1
608 921 m 1
 608 1018 l 1
 696 1018 l 1
 696 921 l 1
 608 921 l 1
170 1116 m 1
 170 1213 l 1
 258 1213 l 1
 258 1116 l 1
 170 1116 l 1
463 1116 m 1
 463 1213 l 1
 550 1213 l 1
 550 1116 l 1
 463 1116 l 1
755 1116 m 1
 755 1213 l 1
 842 1213 l 1
 842 1116 l 1
 755 1116 l 1
25 1310 m 1
 25 1408 l 1
 112 1408 l 1
 112 1310 l 1
 25 1310 l 1
317 1310 m 1
 317 1408 l 1
 404 1408 l 1
 404 1310 l 1
 317 1310 l 1
608 1310 m 1
 608 1408 l 1
 696 1408 l 1
 696 1310 l 1
 608 1310 l 1
170 1505 m 1
 170 1603 l 1
 258 1603 l 1
 258 1505 l 1
 170 1505 l 1
463 1505 m 1
 463 1603 l 1
 550 1603 l 1
 550 1505 l 1
 463 1505 l 1
755 1505 m 1
 755 1603 l 1
 842 1603 l 1
 842 1505 l 1
 755 1505 l 1
608 1699 m 1
 608 1796 l 1
 696 1796 l 1
 696 1699 l 1
 608 1699 l 1
317 1699 m 1
 317 1796 l 1
 404 1796 l 1
 404 1699 l 1
 317 1699 l 1
25 1699 m 1
 25 1796 l 1
 112 1796 l 1
 112 1699 l 1
 25 1699 l 1
170 1894 m 1
 170 1991 l 1
 258 1991 l 1
 258 1894 l 1
 170 1894 l 1
463 1894 m 1
 463 1991 l 1
 550 1991 l 1
 550 1894 l 1
 463 1894 l 1
755 1894 m 1
 755 1991 l 1
 842 1991 l 1
 842 1894 l 1
 755 1894 l 1
25 2089 m 1
 25 2186 l 1
 112 2186 l 1
 112 2089 l 1
 25 2089 l 1
317 2089 m 1
 317 2186 l 1
 404 2186 l 1
 404 2089 l 1
 317 2089 l 1
608 2089 m 1
 608 2186 l 1
 696 2186 l 1
 696 2089 l 1
 608 2089 l 1
170 2283 m 1
 170 2381 l 1
 258 2381 l 1
 258 2283 l 1
 170 2283 l 1
463 2283 m 1
 463 2381 l 1
 550 2381 l 1
 550 2283 l 1
 463 2283 l 1
755 2283 m 1
 755 2381 l 1
 842 2381 l 1
 842 2283 l 1
 755 2283 l 1
EndSplineSet
EndChar

StartChar: mediumshade
Encoding: 9618 9618 699
Width: 832
VWidth: 2435
GlyphClass: 1
Flags: HW
LayerCount: 2
Fore
SplineSet
-27 -246 m 1
 -27 -91 l 1
 112 -91 l 1
 112 -246 l 1
 -27 -246 l 1
259 -246 m 1
 259 -91 l 1
 398 -91 l 1
 398 -246 l 1
 259 -246 l 1
549 -246 m 1
 549 -91 l 1
 688 -91 l 1
 688 -246 l 1
 549 -246 l 1
118 -53 m 1
 118 102 l 1
 256 102 l 1
 256 -53 l 1
 118 -53 l 1
406 -53 m 1
 406 102 l 1
 544 102 l 1
 544 -53 l 1
 406 -53 l 1
692 -53 m 1
 692 102 l 1
 831 102 l 1
 831 -53 l 1
 692 -53 l 1
-27 140 m 1
 -27 295 l 1
 112 295 l 1
 112 140 l 1
 -27 140 l 1
259 140 m 1
 259 295 l 1
 398 295 l 1
 398 140 l 1
 259 140 l 1
549 140 m 1
 549 295 l 1
 688 295 l 1
 688 140 l 1
 549 140 l 1
692 333 m 1
 692 488 l 1
 831 488 l 1
 831 333 l 1
 692 333 l 1
406 333 m 1
 406 488 l 1
 544 488 l 1
 544 333 l 1
 406 333 l 1
118 333 m 1
 118 488 l 1
 256 488 l 1
 256 333 l 1
 118 333 l 1
-27 526 m 1
 -27 680 l 1
 112 680 l 1
 112 526 l 1
 -27 526 l 1
259 526 m 1
 259 680 l 1
 398 680 l 1
 398 526 l 1
 259 526 l 1
549 526 m 1
 549 680 l 1
 688 680 l 1
 688 526 l 1
 549 526 l 1
118 719 m 1
 118 873 l 1
 256 873 l 1
 256 719 l 1
 118 719 l 1
406 719 m 1
 406 873 l 1
 544 873 l 1
 544 719 l 1
 406 719 l 1
692 719 m 1
 692 873 l 1
 831 873 l 1
 831 719 l 1
 692 719 l 1
-27 912 m 1
 -27 1066 l 1
 112 1066 l 1
 112 912 l 1
 -27 912 l 1
259 912 m 1
 259 1066 l 1
 398 1066 l 1
 398 912 l 1
 259 912 l 1
549 912 m 1
 549 1066 l 1
 688 1066 l 1
 688 912 l 1
 549 912 l 1
118 1105 m 1
 118 1260 l 1
 256 1260 l 1
 256 1105 l 1
 118 1105 l 1
406 1105 m 1
 406 1260 l 1
 544 1260 l 1
 544 1105 l 1
 406 1105 l 1
692 1105 m 1
 692 1260 l 1
 831 1260 l 1
 831 1105 l 1
 692 1105 l 1
-27 1298 m 1
 -27 1453 l 1
 112 1453 l 1
 112 1298 l 1
 -27 1298 l 1
259 1298 m 1
 259 1453 l 1
 398 1453 l 1
 398 1298 l 1
 259 1298 l 1
549 1298 m 1
 549 1453 l 1
 688 1453 l 1
 688 1298 l 1
 549 1298 l 1
118 1490 m 1
 118 1645 l 1
 256 1645 l 1
 256 1490 l 1
 118 1490 l 1
406 1490 m 1
 406 1645 l 1
 544 1645 l 1
 544 1490 l 1
 406 1490 l 1
692 1490 m 1
 692 1645 l 1
 831 1645 l 1
 831 1490 l 1
 692 1490 l 1
549 1684 m 1
 549 1838 l 1
 688 1838 l 1
 688 1684 l 1
 549 1684 l 1
259 1684 m 1
 259 1838 l 1
 398 1838 l 1
 398 1684 l 1
 259 1684 l 1
-27 1684 m 1
 -27 1838 l 1
 112 1838 l 1
 112 1684 l 1
 -27 1684 l 1
118 1877 m 1
 118 2031 l 1
 256 2031 l 1
 256 1877 l 1
 118 1877 l 1
406 1877 m 1
 406 2031 l 1
 544 2031 l 1
 544 1877 l 1
 406 1877 l 1
692 1877 m 1
 692 2031 l 1
 831 2031 l 1
 831 1877 l 1
 692 1877 l 1
-27 2070 m 1
 -27 2224 l 1
 112 2224 l 1
 112 2070 l 1
 -27 2070 l 1
259 2070 m 1
 259 2224 l 1
 398 2224 l 1
 398 2070 l 1
 259 2070 l 1
549 2070 m 1
 549 2224 l 1
 688 2224 l 1
 688 2070 l 1
 549 2070 l 1
118 2263 m 1
 118 2418 l 1
 256 2418 l 1
 256 2263 l 1
 118 2263 l 1
406 2263 m 1
 406 2418 l 1
 544 2418 l 1
 544 2263 l 1
 406 2263 l 1
692 2263 m 1
 692 2418 l 1
 831 2418 l 1
 831 2263 l 1
 692 2263 l 1
EndSplineSet
EndChar

